<svg width="16" height="16" viewBox="0 0 16 16" fill="none" xmlns="http://www.w3.org/2000/svg">
<path d="M15.1918 3.93172C14.4872 3.22709 13.4371 2.97144 12.2351 3.21184C11.102 3.4385 9.95467 4.08653 9.00461 5.03659C8.05455 5.98665 7.40652 7.13394 7.17986 8.26709C6.93945 9.46912 7.19511 10.5192 7.89973 11.2238C8.60436 11.9284 9.65439 12.1841 10.8564 11.9437C11.9895 11.717 13.1368 11.069 14.0869 10.1189C15.037 9.16887 15.685 8.02159 15.9116 6.88844C16.1521 5.68637 15.8964 4.63634 15.1918 3.93172ZM14.9924 6.70453C14.8017 7.65819 14.2446 8.63534 13.424 9.45597C12.6034 10.2766 11.6262 10.8336 10.6726 11.0243C9.78783 11.2013 9.03848 11.0367 8.56264 10.5608C8.0868 10.085 7.9222 9.33569 8.09917 8.4509C8.28986 7.49725 8.84686 6.52009 9.66752 5.69947C10.4881 4.87884 11.4653 4.32184 12.419 4.13112C13.3037 3.95415 14.053 4.11875 14.5289 4.59459C15.0047 5.07047 15.1693 5.81978 14.9924 6.70453Z" fill="#1A1E2D"/>
<path d="M13.2026 5.25765C13.0315 5.42881 13.0203 5.69925 13.1691 5.88331C13.189 5.95556 13.2139 6.21487 13.0715 6.63853C12.9519 6.99444 12.6859 7.54212 12.0978 8.13025C11.5096 8.7184 10.9619 8.98444 10.606 9.10403C10.1823 9.2464 9.92296 9.22137 9.85084 9.20159C9.66674 9.05278 9.39624 9.064 9.22515 9.23512C9.04212 9.41815 9.04215 9.71497 9.22518 9.89803C9.39496 10.0678 9.67009 10.1547 10.0094 10.1546C10.2272 10.1546 10.4714 10.1188 10.7311 10.0462C11.223 9.9085 11.9745 9.57934 12.7607 8.79312C13.5469 8.00697 13.876 7.25547 14.0137 6.7635C14.1996 6.09919 14.1443 5.53625 13.8656 5.25759C13.6824 5.07459 13.3856 5.07462 13.2026 5.25765Z" fill="#1A1E2D"/>
<path d="M4.89938 13.1905C4.80738 13.1999 4.20063 13.1093 3.54591 12.4546C2.89138 11.8001 2.80072 11.1933 2.80966 11.1033C2.84804 10.8473 2.67157 10.6086 2.41554 10.5702C2.15935 10.5316 1.92085 10.7083 1.8825 10.9643C1.82213 11.3673 2.03875 12.2733 2.88297 13.1175C3.64085 13.8753 4.44825 14.1274 4.8971 14.1274C4.94835 14.1274 4.99494 14.1241 5.03622 14.1179C5.29225 14.0795 5.46978 13.8407 5.43135 13.5846C5.39294 13.3287 5.15538 13.1522 4.89938 13.1905Z" fill="#1A1E2D"/>
<path d="M1.30709 5.12653C2.0915 5.6495 3.12556 5.9375 4.21875 5.9375C5.31194 5.9375 6.346 5.6495 7.13041 5.12653C7.97331 4.56459 8.4375 3.79831 8.4375 2.96875C8.4375 2.13919 7.97331 1.37291 7.13041 0.810969C6.346 0.288 5.31194 0 4.21875 0C3.12556 0 2.0915 0.288 1.30709 0.810969C0.464188 1.37291 0 2.13919 0 2.96875C0 3.79831 0.464188 4.56459 1.30709 5.12653ZM4.21875 0.9375C5.99738 0.9375 7.5 1.86772 7.5 2.96875C7.5 4.06978 5.99738 5 4.21875 5C2.44012 5 0.9375 4.06978 0.9375 2.96875C0.9375 1.86772 2.44012 0.9375 4.21875 0.9375Z" fill="#1A1E2D"/>
<path d="M4.21829 4.06251C5.41241 4.06251 6.20613 3.57501 6.44829 3.24736C6.60213 3.03917 6.55879 2.74473 6.3506 2.59086C6.14241 2.43708 5.84957 2.48017 5.69572 2.68836C5.63704 2.76017 5.14416 3.12501 4.21829 3.12501C3.29266 3.12501 2.79954 2.76011 2.74219 2.69008C2.58826 2.48192 2.29472 2.43789 2.0866 2.59183C1.87841 2.74573 1.83444 3.03923 1.98835 3.24742C2.2306 3.57508 3.02435 4.06251 4.21829 4.06251Z" fill="#1A1E2D"/>
<path d="M5.75625 10.2438C4.98325 9.47082 4.04841 8.94329 3.12394 8.75839C2.1306 8.55973 1.2605 8.77335 0.673909 9.35995C0.0873466 9.94654 -0.12631 10.8166 0.0723466 11.81C0.257253 12.7344 0.784784 13.6693 1.55778 14.4423C2.33078 15.2153 3.26563 15.7428 4.1901 15.9277C5.18344 16.1264 6.05353 15.9128 6.64013 15.3262C7.22669 14.7396 7.44035 13.8695 7.24169 12.8761C7.05678 11.9516 6.52925 11.0168 5.75625 10.2438ZM5.97722 14.6632C5.19866 15.4418 3.47841 15.037 2.22072 13.7794C0.963034 12.5217 0.558284 10.8014 1.33685 10.0229C2.11541 9.24429 3.83566 9.64907 5.09335 10.9067C6.35103 12.1644 6.75582 13.8847 5.97722 14.6632Z" fill="#1A1E2D"/>
</svg>
