<svg width="40" height="40" viewBox="0 0 40 40" fill="none" xmlns="http://www.w3.org/2000/svg">
<path d="M0 12C0 5.37258 5.37258 0 12 0H28C34.6274 0 40 5.37258 40 12V28C40 34.6274 34.6274 40 28 40H12C5.37258 40 0 34.6274 0 28V12Z" fill="#2D3554"/>
<path d="M20.8003 22.3167V24.7974L24.4003 26.9377L28.0003 24.7974V20.4349L24.4003 18.2934L15.6 23.5674L10.4004 20.4755V14.2916L15.6 11.1997L20.8003 14.2916V16.7245L19.2005 17.6831V15.2019L15.6 13.0611L12.0005 15.2019V19.5651L15.6 21.7059L24.4003 16.4324L29.6004 19.5248V25.7072L24.4003 28.7996L19.2005 25.7072V23.2753L20.8003 22.3167Z" fill="white"/>
</svg>
