<svg width="40" height="40" viewBox="0 0 40 40" fill="none" xmlns="http://www.w3.org/2000/svg">
<path d="M0 12C0 5.37258 5.37258 0 12 0H28C34.6274 0 40 5.37258 40 12V28C40 34.6274 34.6274 40 28 40H12C5.37258 40 0 34.6274 0 28V12Z" fill="#557BF8"/>
<path d="M14.051 9.69652C12.9189 10.8496 12.9189 12.7155 14.072 13.8685L16.5878 16.3843C18.9568 18.7533 18.9568 22.6108 16.5878 24.9799L11.9755 20.3676C10.791 19.1831 10.1935 17.6212 10.1935 16.0698C10.1935 14.5184 10.791 12.9566 11.9755 11.772L14.0196 9.72797C14.0301 9.71749 14.0406 9.70701 14.051 9.69652Z" fill="white" stroke="white" stroke-width="2" stroke-miterlimit="10"/>
<path d="M16.0627 15.8591L14.0711 13.8675C12.918 12.7144 12.9075 10.859 14.0501 9.69548C15.1822 8.58435 16.9852 8.60531 18.1068 9.72693C18.6729 10.293 18.9559 11.0372 18.9559 11.771C18.9559 12.5048 18.6729 13.249 18.1068 13.8151L17.6351 14.2868" stroke="white" stroke-width="2" stroke-miterlimit="10"/>
<path d="M25.9491 30.2938C27.0812 29.1408 27.0812 27.2749 25.9281 26.1218L23.4124 23.6061C21.0433 21.237 21.0433 17.3795 23.4124 15.0105L28.0246 19.6227C29.2091 20.8073 29.8066 22.3691 29.8066 23.9205C29.8066 25.4719 29.2091 27.0338 28.0246 28.2183L25.9806 30.2624C25.9596 30.2834 25.9491 30.2938 25.9491 30.2938Z" stroke="white" stroke-width="2" stroke-miterlimit="10"/>
<path d="M23.9241 24.1406L25.9157 26.1323C27.0688 27.2853 27.0793 29.1407 25.9367 30.3043C24.8046 31.4154 23.0016 31.3944 21.88 30.2728C21.314 29.7068 21.0309 28.9625 21.0309 28.2288C21.0309 27.495 21.314 26.7507 21.88 26.1847L22.3622 25.7025" stroke="white" stroke-width="2" stroke-miterlimit="10"/>
</svg>
