<svg width="16" height="16" viewBox="0 0 16 16" fill="none" xmlns="http://www.w3.org/2000/svg">
<g clip-path="url(#clip0_11648_3910)">
<path d="M8 7.02832C9.41226 7.0284 10.7864 7.75304 11.8701 9.06152C12.8438 10.2372 13.4268 11.7208 13.4268 13.0322C13.4268 13.6646 13.2286 14.1565 12.832 14.4863C12.4162 14.8321 11.852 14.9354 11.2451 14.9258C10.638 14.9161 9.97846 14.7935 9.36523 14.6797C8.83765 14.5817 8.34651 14.4903 8 14.4902C7.59751 14.4902 7.07297 14.5863 6.51074 14.6895C5.87038 14.8069 5.21258 14.9277 4.61914 14.9277C4.06118 14.9278 3.55213 14.8214 3.16406 14.498C2.76954 14.1693 2.57324 13.6732 2.57324 13.0322C2.57326 11.7207 3.15616 10.2372 4.12988 9.06152C5.21359 7.75309 6.58773 7.02832 8 7.02832ZM8 8.06543C6.90869 8.06543 5.81709 8.651 4.92871 9.72363C4.1144 10.7069 3.61036 11.9759 3.61035 13.0322C3.61035 13.282 3.65355 13.4394 3.70117 13.5381C3.7483 13.6356 3.80155 13.679 3.82812 13.7012C3.92752 13.7839 4.07219 13.8364 4.25293 13.8643C4.43312 13.892 4.64471 13.8944 4.87402 13.8799C5.33306 13.8508 5.85486 13.7549 6.32324 13.6689C6.92564 13.5584 7.5011 13.4531 8 13.4531C8.44409 13.4532 8.98695 13.5538 9.55469 13.6592C10.043 13.7498 10.5873 13.8516 11.0674 13.8818C11.3072 13.8969 11.5292 13.894 11.7188 13.8643C11.9088 13.8344 12.0621 13.7773 12.1689 13.6885C12.1961 13.6659 12.2493 13.6216 12.2969 13.5254C12.345 13.4281 12.3887 13.2746 12.3887 13.0322C12.3887 11.9759 11.8847 10.7069 11.0703 9.72363C10.182 8.65117 9.09117 8.06554 8 8.06543Z" fill="#1A1E2D" stroke="#1A1E2D" stroke-width="0.1"/>
<path d="M10.3955 1.07227C11.0049 1.07227 11.5832 1.41637 11.9844 2.00781C12.3526 2.55069 12.5537 3.26169 12.5537 4.00879C12.5536 4.75568 12.3524 5.46599 11.9844 6.00879C11.5832 6.6002 11.005 6.94531 10.3955 6.94531C9.78612 6.94527 9.20776 6.60016 8.80664 6.00879C8.43859 5.466 8.23737 4.75563 8.2373 4.00879C8.2373 3.26173 8.43849 2.55071 8.80664 2.00781C9.20776 1.41647 9.78609 1.0723 10.3955 1.07227ZM10.3955 2.10938C10.223 2.1094 10.0726 2.18176 9.94824 2.2793C9.82364 2.37712 9.72706 2.4984 9.66504 2.58984C9.41789 2.95431 9.27441 3.47179 9.27441 4.00879C9.27448 4.54554 9.41799 5.06239 9.66504 5.42676C9.72708 5.51821 9.82364 5.63948 9.94824 5.7373C10.0726 5.8349 10.2229 5.9072 10.3955 5.90723C10.5683 5.90723 10.7193 5.83503 10.8438 5.7373C10.9683 5.63951 11.064 5.51815 11.126 5.42676C11.3731 5.06238 11.5165 4.54559 11.5166 4.00879C11.5166 3.47181 11.3732 2.9543 11.126 2.58984C11.064 2.49842 10.9683 2.37708 10.8438 2.2793C10.7193 2.18158 10.5683 2.10938 10.3955 2.10938Z" fill="#1A1E2D" stroke="#1A1E2D" stroke-width="0.1"/>
<path d="M5.60645 1.07227C6.2159 1.07227 6.79416 1.41637 7.19531 2.00781C7.56352 2.55069 7.76462 3.26168 7.76465 4.00879C7.76459 4.75571 7.56336 5.46599 7.19531 6.00879C6.79417 6.60023 6.2159 6.94531 5.60645 6.94531C4.99702 6.94527 4.4187 6.6002 4.01758 6.00879C3.64954 5.466 3.4483 4.75563 3.44824 4.00879C3.44824 3.26172 3.64941 2.55071 4.01758 2.00781C4.41867 1.41644 4.99702 1.0723 5.60645 1.07227ZM5.60645 2.10938C5.43393 2.10939 5.28354 2.18177 5.15918 2.2793C5.03459 2.37711 4.938 2.49841 4.87598 2.58984C4.62881 2.95431 4.48535 3.47178 4.48535 4.00879C4.4854 4.54555 4.62893 5.06237 4.87598 5.42676C4.938 5.5182 5.03458 5.63948 5.15918 5.7373C5.28358 5.83491 5.43384 5.90721 5.60645 5.90723C5.77919 5.90723 5.93022 5.83503 6.05469 5.7373C6.17916 5.63952 6.27494 5.51813 6.33691 5.42676C6.58398 5.06237 6.72749 4.54557 6.72754 4.00879C6.72754 3.47181 6.58411 2.9543 6.33691 2.58984C6.2749 2.49842 6.17921 2.37708 6.05469 2.2793C5.93022 2.18158 5.77921 2.10938 5.60645 2.10938Z" fill="#1A1E2D" stroke="#1A1E2D" stroke-width="0.1"/>
<path d="M13.7539 5.48267C14.1528 5.29604 14.5836 5.27136 14.9668 5.41528C15.443 5.59415 15.7936 6.00033 15.9561 6.55298C16.1019 7.04942 16.0779 7.6175 15.8926 8.15454V8.15747L15.8896 8.16528C15.6588 8.82597 15.2137 9.35381 14.665 9.6106C14.4378 9.71692 14.2002 9.77166 13.9668 9.77173C13.7907 9.77173 13.6167 9.74073 13.4521 9.67896C12.976 9.50011 12.6254 9.09383 12.4629 8.54126C12.316 8.04163 12.3407 7.46913 12.5293 6.92896C12.7601 6.26814 13.2051 5.73945 13.7539 5.48267ZM14.4521 6.35962C14.3549 6.35962 14.2633 6.38939 14.1934 6.42212C13.906 6.5566 13.6481 6.87205 13.5088 7.27075C13.3987 7.58589 13.3826 7.91355 13.4424 8.17896C13.5026 8.44573 13.6361 8.63941 13.8164 8.70728C13.966 8.76345 14.1191 8.72095 14.2256 8.67114C14.5127 8.53668 14.7709 8.22185 14.9102 7.82349C15.0202 7.50842 15.0363 7.18066 14.9766 6.91528C14.9165 6.64833 14.7829 6.45395 14.6025 6.38599C14.5522 6.3671 14.5013 6.35965 14.4521 6.35962Z" fill="#1A1E2D" stroke="#1A1E2D" stroke-width="0.1"/>
<path d="M1.03418 5.41528C1.41734 5.27143 1.84817 5.296 2.24707 5.48267C2.79569 5.7394 3.24078 6.26737 3.47168 6.92798C3.66037 7.46828 3.68494 8.04156 3.53809 8.54126C3.3756 9.09381 3.02505 9.50008 2.54883 9.67896C2.38424 9.74073 2.21032 9.77173 2.03418 9.77173C1.80071 9.77168 1.56321 9.71693 1.33594 9.6106C0.787248 9.35383 0.342231 8.82601 0.111328 8.16528L0.108398 8.15747V8.15454C-0.0770004 7.61747 -0.100925 7.04945 0.0449219 6.55298C0.207388 6.00035 0.55798 5.59417 1.03418 5.41528ZM1.80762 6.42212C1.70108 6.37231 1.54797 6.32981 1.39844 6.38599C1.21802 6.45388 1.08454 6.64825 1.02441 6.91528C0.964688 7.18067 0.980751 7.50838 1.09082 7.82349C1.2301 8.22189 1.48825 8.53672 1.77539 8.67114C1.88189 8.72095 2.035 8.76345 2.18457 8.70728C2.36477 8.63934 2.49845 8.44567 2.55859 8.17896C2.61836 7.91357 2.60226 7.58589 2.49219 7.27075C2.35294 6.87211 2.09494 6.55662 1.80762 6.42212Z" fill="#1A1E2D" stroke="#1A1E2D" stroke-width="0.1"/>
</g>
<defs>
<clipPath id="clip0_11648_3910">
<rect width="16" height="16" fill="white"/>
</clipPath>
</defs>
</svg>
