<svg width="56" height="56" viewBox="0 0 56 56" fill="none" xmlns="http://www.w3.org/2000/svg">
<g filter="url(#filter0_d_100_2220)">
<path fill-rule="evenodd" clip-rule="evenodd" d="M22.7181 28L21.1665 25.6293C20.1071 24.0106 17.8504 23.42 16.1243 24.3074L16.5265 24.1007C16.0981 24.3209 15.8927 24.8699 16.0691 25.3263L18.2168 30.883C18.5573 31.7639 19.4269 33.0097 20.1474 33.6356C20.1474 33.6356 24.4681 37.2117 24.4681 38.5526V40.25H31.4681H33.3822H34.9681H36.7181V38.5526C36.7181 37.2117 39.3585 32.9887 39.3585 32.9887C39.8446 32.1678 40.2497 30.7217 40.2497 29.7615V22.7007C40.2181 21.1374 38.8892 19.8704 37.2496 19.8704C36.4293 19.8704 35.7649 20.5039 35.7649 21.286V21.8515C35.7649 20.2882 34.436 19.0213 32.7964 19.0213C31.9761 19.0213 31.3117 19.6548 31.3117 20.4368V21.0024C31.3117 19.4391 29.9828 18.1721 28.3432 18.1721C27.5229 18.1721 26.8585 18.8056 26.8585 19.5877V20.1532C26.8585 19.902 26.8316 19.7023 26.7797 19.544L26.3269 12.2521C26.2656 11.2661 25.4346 10.5 24.4681 10.5C23.4948 10.5 22.7181 11.2834 22.7181 12.2497V19.25V28Z" fill="white"/>
<path d="M41.2998 29.7617C41.2998 30.3677 41.1755 31.0683 40.998 31.708C40.8204 32.3484 40.5666 33.0085 40.2617 33.5234L40.2559 33.5342L40.249 33.5449V33.5459L40.2471 33.5479C40.246 33.5496 40.2442 33.5524 40.2422 33.5557C40.2376 33.563 40.2308 33.5742 40.2217 33.5889C40.2033 33.6186 40.1757 33.6634 40.1406 33.7207C40.0705 33.8355 39.9697 34.0022 39.8486 34.2061C39.6058 34.6149 39.283 35.1716 38.9619 35.7666C38.639 36.365 38.3268 36.9863 38.0977 37.5273C37.9831 37.7979 37.8951 38.0334 37.8379 38.2266C37.8095 38.3224 37.7914 38.3999 37.7803 38.46C37.7748 38.4895 37.7713 38.5128 37.7695 38.5293C37.7679 38.5452 37.7686 38.5527 37.7686 38.5527V41.2998H23.418V38.5908C23.4118 38.5721 23.3942 38.524 23.3516 38.4424C23.2727 38.2914 23.1436 38.0963 22.9619 37.8613C22.5993 37.3924 22.0977 36.8573 21.5713 36.3398C21.0496 35.8271 20.5249 35.3521 20.1289 35.0039C19.9315 34.8303 19.7676 34.6889 19.6533 34.5918C19.5962 34.5433 19.5514 34.5055 19.5215 34.4805C19.5069 34.4682 19.4956 34.4592 19.4883 34.4531C19.4846 34.4501 19.4812 34.4477 19.4795 34.4463L19.4785 34.4443L19.4688 34.4365L19.459 34.4287C18.6078 33.6894 17.6389 32.3006 17.2373 31.2617L15.0898 25.7051C14.7791 24.901 15.0268 23.9722 15.6699 23.4219L15.6445 23.374C15.6458 23.3734 15.6471 23.3727 15.6484 23.3721L16.0469 23.167L16.0566 23.1855C17.9958 22.4145 20.308 22.984 21.668 24.5557V12.25C21.668 10.7063 22.9123 9.45036 24.4678 9.4502C25.9852 9.4502 27.2792 10.6442 27.375 12.1875L27.6865 17.208C27.8975 17.1527 28.1176 17.1221 28.3428 17.1221C29.5186 17.1221 30.599 17.618 31.3428 18.4199C31.7602 18.1362 32.2644 17.9718 32.7959 17.9717C33.9718 17.9717 35.0521 18.4675 35.7959 19.2695C36.2135 18.9856 36.7182 18.8203 37.25 18.8203C39.4267 18.8205 41.2559 20.5113 41.2998 22.6797V29.7617Z" stroke="#363B3E" stroke-width="2.1"/>
</g>
<defs>
<filter id="filter0_d_100_2220" x="8.65625" y="4.8999" width="38.9434" height="44.4502" filterUnits="userSpaceOnUse" color-interpolation-filters="sRGB">
<feFlood flood-opacity="0" result="BackgroundImageFix"/>
<feColorMatrix in="SourceAlpha" type="matrix" values="0 0 0 0 0 0 0 0 0 0 0 0 0 0 0 0 0 0 127 0" result="hardAlpha"/>
<feOffset dy="1.75"/>
<feGaussianBlur stdDeviation="2.625"/>
<feColorMatrix type="matrix" values="0 0 0 0 0 0 0 0 0 0 0 0 0 0 0 0 0 0 0.2 0"/>
<feBlend mode="normal" in2="BackgroundImageFix" result="effect1_dropShadow_100_2220"/>
<feBlend mode="normal" in="SourceGraphic" in2="effect1_dropShadow_100_2220" result="shape"/>
</filter>
</defs>
</svg>
