<svg width="40" height="40" viewBox="0 0 40 40" fill="none" xmlns="http://www.w3.org/2000/svg">
<path d="M0 12C0 5.37258 5.37258 0 12 0H28C34.6274 0 40 5.37258 40 12V28C40 34.6274 34.6274 40 28 40H12C5.37258 40 0 34.6274 0 28V12Z" fill="#5DA860"/>
<g clip-path="url(#clip0_11648_4014)">
<path d="M14.5741 23.5355V23.4738C15.0796 23.3848 15.4656 23.166 15.7345 22.821C16.0045 22.4742 16.1371 22.0408 16.1371 21.5206C16.1371 20.7467 15.864 20.1813 15.3171 19.8236C14.7705 19.4648 13.8806 19.2856 12.651 19.2856H10V28.2138H13.2255C14.2216 28.2138 15.0015 27.9867 15.5606 27.5327C16.1218 27.0788 16.4 26.4505 16.4 25.6489C16.4 25.0542 16.2533 24.5834 15.9586 24.2346C15.663 23.8849 15.2012 23.6528 14.5741 23.5355ZM11.4595 20.5059H12.724C13.3822 20.5059 13.865 20.5989 14.1686 20.7863C14.4733 20.9737 14.624 21.2769 14.624 21.6967C14.624 22.1606 14.482 22.4895 14.202 22.6823C13.9222 22.8757 13.4748 22.9726 12.864 22.9726H11.4595V20.5059ZM14.3956 26.6339C14.0833 26.8678 13.6217 26.9851 13.0109 26.9851H11.4595V24.1576H12.9377C13.5852 24.1576 14.0682 24.2696 14.3845 24.4935C14.7028 24.7176 14.8611 25.0617 14.8611 25.5258C14.8617 26.03 14.7068 26.3995 14.3956 26.6339Z" fill="white"/>
<path d="M19.7169 19.2842H18.2559V28.2123H19.7169V19.2842Z" fill="white"/>
<path d="M28.9131 20.3474C28.1879 19.5452 27.1627 19.1448 25.8341 19.1448C24.4874 19.1448 23.4515 19.5401 22.7248 20.3292C21.998 21.1191 21.6348 22.2503 21.6348 23.7249C21.6348 25.1982 21.9974 26.3356 22.7203 27.1345C23.4439 27.9342 24.477 28.3349 25.8243 28.3349C27.1556 28.3349 28.1835 27.932 28.9122 27.126C29.6383 26.3203 30.0009 25.1913 30.0009 23.7372C29.9993 22.2786 29.6367 21.1489 28.9131 20.3474ZM27.787 26.2464C27.3461 26.8075 26.6901 27.0889 25.8234 27.0889C24.952 27.0889 24.294 26.8046 23.8506 26.2372C23.4074 25.669 23.1849 24.8363 23.1849 23.7365C23.1849 22.6412 23.409 21.8118 23.8553 21.2449C24.2993 20.6797 24.9598 20.3964 25.8343 20.3964C26.7019 20.3964 27.3554 20.6795 27.7935 21.2449C28.2309 21.8118 28.4486 22.6412 28.4486 23.7365C28.4483 24.8479 28.2298 25.6843 27.787 26.2464Z" fill="white"/>
<path d="M22.3112 16.8555C22.4873 16.669 22.6607 16.4925 22.8147 16.2915C23.1234 15.9038 23.3852 15.4938 23.5949 15.0622C23.7044 14.8587 23.793 14.623 23.8789 14.4102C23.967 14.1988 24.0418 13.9657 24.1144 13.7514C24.1874 13.5408 24.2546 13.3271 24.3125 13.1203C24.3779 12.9066 24.436 12.7192 24.4839 12.5674C24.5364 12.4154 24.57 12.2562 24.6003 12.1625C24.6277 12.0566 24.643 12.0009 24.643 12.0009C24.643 12.0009 24.5905 11.972 24.4984 11.9346C24.4069 11.9019 24.2609 11.8333 24.0899 11.7948C23.9194 11.7545 23.6864 11.6833 23.4524 11.6733C23.2178 11.6593 22.9489 11.6624 22.6567 11.6882C22.3738 11.7232 22.0882 11.7966 21.7806 11.8885C21.4759 11.9822 21.197 12.1265 20.9018 12.2843C20.614 12.4466 20.3534 12.6453 20.0914 12.8612C19.8463 13.0829 19.6148 13.3256 19.4027 13.5838C19.2077 13.8466 19.0141 14.1184 18.8692 14.4049C18.7171 14.6898 18.5876 14.9823 18.4986 15.2794C18.3067 15.8684 18.2446 16.4689 18.2575 17.0009C18.2702 17.2704 18.296 17.5204 18.3387 17.749C18.3788 17.976 18.4427 18.185 18.4941 18.3527C18.515 18.433 18.5442 18.5076 18.5722 18.5739C18.6118 18.4822 18.6541 18.3838 18.7031 18.2761C18.9442 17.7459 19.2972 17.0539 19.7179 16.4019C19.9269 16.0767 20.157 15.7646 20.3839 15.4822C20.5043 15.346 20.622 15.2149 20.7313 15.09C20.8482 14.9745 20.961 14.8636 21.0647 14.7639C21.1783 14.6711 21.2795 14.5876 21.3701 14.5137C21.4578 14.4349 21.5506 14.3873 21.6192 14.3403C21.7601 14.2475 21.84 14.1961 21.84 14.1961C21.84 14.1961 21.7637 14.2555 21.6299 14.3568C21.5658 14.4104 21.4805 14.4639 21.3982 14.548C21.316 14.629 21.2214 14.7194 21.1179 14.8184C21.0249 14.9255 20.923 15.0432 20.8148 15.1666C20.7173 15.2968 20.6133 15.4339 20.5058 15.5752C20.3059 15.8702 20.1032 16.1922 19.9256 16.5266C19.5661 17.1952 19.2749 17.8972 19.0815 18.4317C19.0256 18.5902 19.0256 18.5901 18.9996 18.664L19.4372 18.6625C19.5621 18.6164 19.6976 18.5672 19.8334 18.504C20.0348 18.4176 20.2492 18.3164 20.466 18.2017C20.6839 18.0887 20.8974 17.9576 21.1166 17.8202C21.333 17.6831 21.54 17.5277 21.7425 17.3684C21.9373 17.2039 22.1352 17.0381 22.3112 16.8555Z" fill="white"/>
</g>
<defs>
<clipPath id="clip0_11648_4014">
<rect width="20" height="20" fill="white" transform="translate(10 10)"/>
</clipPath>
</defs>
</svg>
