<svg width="40" height="40" viewBox="0 0 40 40" fill="none" xmlns="http://www.w3.org/2000/svg">
<path d="M0 12C0 5.37258 5.37258 0 12 0H28C34.6274 0 40 5.37258 40 12V28C40 34.6274 34.6274 40 28 40H12C5.37258 40 0 34.6274 0 28V12Z" fill="#0896E9"/>
<g clip-path="url(#clip0_11648_3882)">
<path d="M31.7315 14.2188C31.3711 13.8584 30.7867 13.8584 30.4261 14.2188C30.179 14.4659 29.8848 14.6601 29.5647 14.8124L25.1895 10.4372C25.3418 10.1171 25.5359 9.8229 25.783 9.57577C26.1435 9.2153 26.1435 8.63087 25.783 8.27035C25.4226 7.90988 24.8381 7.90988 24.4776 8.27035C22.8525 9.89546 22.6579 12.5456 22.9292 14.8243C17.2098 14.1478 14.096 16.7542 14.8261 22.9273C12.549 22.6563 9.89788 22.8501 8.2723 24.4757C7.91184 24.8361 7.91184 25.4206 8.2723 25.7811C8.63268 26.1416 9.21716 26.1416 9.57772 25.7811C9.82485 25.534 10.119 25.3399 10.4392 25.1876L14.8142 29.5626C14.6602 29.8867 14.4655 30.1797 14.2209 30.4243C13.8605 30.7847 13.8605 31.3692 14.2209 31.7297C14.5813 32.0902 15.1658 32.0902 15.5263 31.7297C17.1514 30.1046 17.346 27.4546 17.0747 25.1759C22.794 25.8521 25.9079 23.2459 25.1777 17.0728C27.452 17.3435 30.1062 17.1498 31.7315 15.5244C32.092 15.1637 32.092 14.5793 31.7315 14.2188ZM15.3079 27.4453L12.557 24.6944C13.4184 24.6368 14.3338 24.703 15.1683 24.8398C15.2831 25.5239 15.3739 26.4813 15.3079 27.4453ZM16.7384 23.2634C16.6012 22.4248 16.5367 21.5093 16.5937 20.6575L19.3442 23.4079C18.4856 23.4654 17.5723 23.3998 16.7384 23.2634ZM21.462 22.915L17.0868 18.5398C17.4019 17.877 17.8446 17.4163 18.5417 17.0848L22.9169 21.46C22.6017 22.1228 22.159 22.5835 21.462 22.915ZM23.41 19.3423L20.6596 16.5918C21.5181 16.5344 22.4312 16.5999 23.2653 16.7363C23.4025 17.5747 23.4671 18.4904 23.41 19.3423ZM24.841 15.1608C24.7038 14.3221 24.6393 13.4068 24.6963 12.5549L27.4468 15.3053C26.5885 15.3627 25.6751 15.2972 24.841 15.1608Z" fill="white"/>
</g>
<defs>
<clipPath id="clip0_11648_3882">
<rect width="24" height="24" fill="white" transform="translate(8 8)"/>
</clipPath>
</defs>
</svg>
