<svg width="40" height="40" viewBox="0 0 40 40" fill="none" xmlns="http://www.w3.org/2000/svg">
<path d="M0 12C0 5.37258 5.37258 0 12 0H28C34.6274 0 40 5.37258 40 12V28C40 34.6274 34.6274 40 28 40H12C5.37258 40 0 34.6274 0 28V12Z" fill="#FF8902"/>
<path d="M23.3805 25.9698C20.8145 27.8138 17.7665 27.1078 16.0215 26.4328C15.6032 27.3058 15.2706 28.2175 15.0285 29.1548C14.9876 29.3495 14.8709 29.5199 14.7043 29.6286C14.5377 29.7373 14.3347 29.7753 14.14 29.7343C13.9454 29.6933 13.775 29.5767 13.6663 29.4101C13.5576 29.2435 13.5196 29.0405 13.5605 28.8458C14.7155 24.6294 17.145 20.8728 20.5165 18.0898C17.5318 19.5096 15.1457 21.9397 13.7805 24.9498C12.4705 22.3298 12.4505 17.4798 16.6905 15.1898C18.4805 14.2298 20.2905 14.0398 22.4805 13.2898C23.6492 12.8749 24.6595 12.1059 25.3705 11.0898C25.3892 11.0589 25.4164 11.034 25.4488 11.0182C25.4813 11.0023 25.5176 10.9961 25.5534 11.0003C25.5893 11.0045 25.6232 11.019 25.651 11.042C25.6789 11.0649 25.6996 11.0954 25.7105 11.1298C26.4105 13.0198 29.2205 21.7698 23.3805 25.9698Z" fill="white"/>
</svg>
