<svg width="11" height="16" viewBox="0 0 11 16" fill="none" xmlns="http://www.w3.org/2000/svg">
<path d="M6.91699 0.050293C7.69639 0.050293 8.33095 0.684014 8.33105 1.46338C8.33105 2.06517 7.95256 2.57907 7.42188 2.78271V5.89209C7.42188 6.03716 7.49129 6.16555 7.59082 6.22217C8.48094 6.72806 9.18953 7.48102 9.63867 8.3999C9.90984 8.95477 10.0743 9.5486 10.1289 10.1587H10.1279C10.1283 10.1622 10.1289 10.1683 10.1289 10.1685L10.1475 10.5005C10.1549 10.834 10.1302 11.1713 10.0723 11.5083C9.90375 12.4872 9.44317 13.3908 8.74121 14.1216C8.0373 14.8544 7.15181 15.3488 6.18066 15.5513C5.82334 15.6257 5.46394 15.6626 5.1084 15.6626C3.94767 15.6626 2.82374 15.2727 1.91602 14.5347C0.730185 13.5705 0.0498288 12.1416 0.0498047 10.6147C0.0498047 10.0449 0.146254 9.48137 0.332031 8.94873C0.336999 8.93266 0.342943 8.91658 0.349609 8.90088C0.454349 8.61008 0.584743 8.32808 0.742188 8.06006C1.18176 7.31173 1.8107 6.68538 2.56055 6.24854C2.69999 6.16733 2.77637 6.04434 2.77637 5.92432V2.78271C2.24584 2.57902 1.86719 2.06506 1.86719 1.46338C1.86733 0.684032 2.50187 0.050293 3.28125 0.050293H6.91699ZM4.81934 10.1255C3.62337 9.32823 2.41483 9.11784 1.21973 9.4917C1.11454 9.85263 1.05859 10.2303 1.05859 10.6147C1.05859 11.8364 1.60274 12.9796 2.55176 13.7515C3.50062 14.5229 4.74834 14.8195 5.97461 14.564C7.5548 14.2345 8.80165 12.9371 9.07715 11.3364C9.10075 11.1992 9.11586 11.0623 9.12598 10.9263C8.69472 11.0469 8.26083 11.1098 7.82617 11.1099C7.63546 11.1099 7.44431 11.098 7.25391 11.0747C6.43136 10.9737 5.61212 10.654 4.81934 10.1255ZM3.78613 5.92432C3.78613 6.41285 3.51586 6.85992 3.06836 7.12061C2.53908 7.429 2.09643 7.85059 1.76172 8.34326C2.17142 8.28963 2.58217 8.28813 2.99121 8.34229C3.79712 8.44901 4.60052 8.76676 5.37891 9.28564C6.60664 10.1042 7.84616 10.3025 9.07324 9.88721C8.86502 8.72836 8.16379 7.70789 7.09277 7.09912C6.67251 6.86027 6.41309 6.39708 6.41309 5.89209V2.87744H3.78613V5.92432ZM3.28125 1.05908C3.05835 1.05908 2.8771 1.24049 2.87695 1.46338C2.87695 1.6864 3.05824 1.86865 3.28125 1.86865H6.91699C7.13997 1.86865 7.32227 1.6864 7.32227 1.46338C7.32212 1.24052 7.13991 1.05908 6.91699 1.05908H3.28125Z" fill="#1A1E2D" stroke="#1A1E2D" stroke-width="0.1"/>
</svg>
