<svg width="48" height="48" viewBox="0 0 48 48" fill="none" xmlns="http://www.w3.org/2000/svg">
<path d="M0 24C0 10.7452 10.7452 0 24 0C37.2548 0 48 10.7452 48 24C48 37.2548 37.2548 48 24 48C10.7452 48 0 37.2548 0 24Z" fill="#FFEFE0"/>
<path fill-rule="evenodd" clip-rule="evenodd" d="M24 14C18.4772 14 14 18.4772 14 24C14 29.5228 18.4772 34 24 34C29.5228 34 34 29.5228 34 24C34 18.4772 29.5228 14 24 14ZM24 21C23.6227 21 23.2926 21.2086 23.1215 21.5215C22.8565 22.0061 22.2488 22.184 21.7643 21.919C21.2797 21.654 21.1018 21.0463 21.3668 20.5618C21.8746 19.6333 22.8626 19 24 19C25.5148 19 26.5669 20.0064 26.8664 21.189C27.1676 22.3779 26.7101 23.763 25.3416 24.4472C25.1323 24.5519 25 24.7659 25 25C25 25.5523 24.5523 26 24 26C23.4477 26 23 25.5523 23 25C23 24.0084 23.5603 23.1018 24.4472 22.6584C24.902 22.431 25.0188 22.0397 24.9277 21.6801C24.835 21.3142 24.5283 21 24 21ZM24 29C24.5523 29 25 28.5523 25 28C25 27.4477 24.5523 27 24 27C23.4477 27 23 27.4477 23 28C23 28.5523 23.4477 29 24 29Z" fill="#F86C1D"/>
</svg>
