<svg width="48" height="48" viewBox="0 0 48 48" fill="none" xmlns="http://www.w3.org/2000/svg">
<path d="M0 24C0 10.7452 10.7452 0 24 0C37.2548 0 48 10.7452 48 24C48 37.2548 37.2548 48 24 48C10.7452 48 0 37.2548 0 24Z" fill="#EFEAFF"/>
<path fill-rule="evenodd" clip-rule="evenodd" d="M23.3498 14.1662C23.7712 14.0214 24.2288 14.0214 24.6502 14.1662L31.6502 16.5725C32.4578 16.8501 33 17.6099 33 18.4639V23.9125C33 26.7193 31.8511 28.742 30.1875 30.317C28.6151 31.8056 26.5552 32.9164 24.6319 33.9535L24.4748 34.0382C24.1785 34.1981 23.8215 34.1981 23.5252 34.0382L23.3681 33.9535C21.4448 32.9164 19.3849 31.8056 17.8125 30.317C16.1489 28.742 15 26.7193 15 23.9125V18.4639C15 17.6099 15.5422 16.8501 16.3498 16.5725L23.3498 14.1662ZM27.2071 22.4571C27.5976 22.0666 27.5976 21.4334 27.2071 21.0429C26.8166 20.6524 26.1834 20.6524 25.7929 21.0429L23 23.8358L22.2071 23.0429C21.8166 22.6524 21.1834 22.6524 20.7929 23.0429C20.4024 23.4334 20.4024 24.0666 20.7929 24.4571L22.2929 25.9571C22.4804 26.1446 22.7348 26.25 23 26.25C23.2652 26.25 23.5196 26.1446 23.7071 25.9571L27.2071 22.4571Z" fill="#7C37FF"/>
</svg>
