<svg width="48" height="48" viewBox="0 0 48 48" fill="none" xmlns="http://www.w3.org/2000/svg">
<path d="M0 24C0 10.7452 10.7452 0 24 0C37.2548 0 48 10.7452 48 24C48 37.2548 37.2548 48 24 48C10.7452 48 0 37.2548 0 24Z" fill="#E4F1FF"/>
<path fill-rule="evenodd" clip-rule="evenodd" d="M13 24C13 20.6863 15.6863 18 19 18C20.9736 18 22.7246 18.9539 23.8165 20.4215C23.8445 20.4592 23.8734 20.4817 23.8929 20.4926C23.9019 20.4976 23.9074 20.4994 23.9098 20.5H32.0194C32.6269 20.5 33.2016 20.7762 33.5811 21.2506L34.7811 22.7506C35.3655 23.481 35.3655 24.519 34.7811 25.2494L33.5811 26.7494C33.2016 27.2238 32.6269 27.5 32.0194 27.5H30C29.8448 27.5 29.6916 27.4639 29.5528 27.3944L28 26.618L26.4472 27.3944C26.3084 27.4639 26.1552 27.5 26 27.5H23.9098C23.9074 27.5006 23.9019 27.5024 23.8929 27.5074C23.8734 27.5183 23.8445 27.5408 23.8165 27.5785C22.7246 29.0461 20.9736 30 19 30C15.6863 30 13 27.3137 13 24ZM19 25.5C19.8284 25.5 20.5 24.8284 20.5 24C20.5 23.1716 19.8284 22.5 19 22.5C18.1716 22.5 17.5 23.1716 17.5 24C17.5 24.8284 18.1716 25.5 19 25.5Z" fill="#2C80F9"/>
</svg>
