<svg width="48" height="48" viewBox="0 0 48 48" fill="none" xmlns="http://www.w3.org/2000/svg">
<path d="M0 24C0 10.7452 10.7452 0 24 0C37.2548 0 48 10.7452 48 24C48 37.2548 37.2548 48 24 48C10.7452 48 0 37.2548 0 24Z" fill="#E8FADA"/>
<path fill-rule="evenodd" clip-rule="evenodd" d="M13 16C13 15.4477 13.4477 15 14 15H34C34.5523 15 35 15.4477 35 16C35 16.5523 34.5523 17 34 17H33V28C33 29.1046 32.1046 30 31 30H25.8685L26.8321 31.4453C27.1384 31.9048 27.0142 32.5257 26.5547 32.8321C26.0952 33.1384 25.4743 33.0142 25.1679 32.5547L24 30.8028L22.8321 32.5547C22.5257 33.0142 21.9048 33.1384 21.4453 32.8321C20.9858 32.5257 20.8616 31.9048 21.1679 31.4453L22.1315 30H17C15.8954 30 15 29.1046 15 28V17H14C13.4477 17 13 16.5523 13 16ZM25 20C25 19.4477 24.5523 19 24 19C23.4477 19 23 19.4477 23 20V25C23 25.5523 23.4477 26 24 26C24.5523 26 25 25.5523 25 25V20ZM29 22C29 21.4477 28.5523 21 28 21C27.4477 21 27 21.4477 27 22V25C27 25.5523 27.4477 26 28 26C28.5523 26 29 25.5523 29 25V22ZM21 24C21 23.4477 20.5523 23 20 23C19.4477 23 19 23.4477 19 24V25C19 25.5523 19.4477 26 20 26C20.5523 26 21 25.5523 21 25V24Z" fill="#0AB610"/>
</svg>
