<svg width="10" height="2" viewBox="0 0 10 2" fill="none" xmlns="http://www.w3.org/2000/svg">
<path d="M8.26119 1.8421C8.00882 1.8421 7.79184 1.75284 7.61026 1.57434C7.42868 1.39276 7.33789 1.17425 7.33789 0.9188C7.33789 0.666433 7.42868 0.450997 7.61026 0.272493C7.79184 0.0909119 8.00882 0.00012207 8.26119 0.00012207C8.51355 0.00012207 8.73053 0.0909119 8.91211 0.272493C9.09369 0.450997 9.18448 0.666433 9.18448 0.9188C9.18448 1.08807 9.14139 1.24349 9.05522 1.38507C8.97212 1.52356 8.86133 1.63435 8.72283 1.71745C8.58434 1.80055 8.43046 1.8421 8.26119 1.8421Z" fill="#1A1E2D"/>
<path d="M4.59126 1.8421C4.3389 1.8421 4.12192 1.75284 3.94034 1.57434C3.75876 1.39276 3.66797 1.17425 3.66797 0.9188C3.66797 0.666433 3.75876 0.450997 3.94034 0.272493C4.12192 0.0909119 4.3389 0.00012207 4.59126 0.00012207C4.84363 0.00012207 5.06061 0.0909119 5.24219 0.272493C5.42377 0.450997 5.51456 0.666433 5.51456 0.9188C5.51456 1.08807 5.47147 1.24349 5.3853 1.38507C5.3022 1.52356 5.19141 1.63435 5.05291 1.71745C4.91442 1.80055 4.76054 1.8421 4.59126 1.8421Z" fill="#1A1E2D"/>
<path d="M0.923295 1.8421C0.670928 1.8421 0.453954 1.75284 0.272372 1.57434C0.0907907 1.39276 0 1.17425 0 0.9188C0 0.666433 0.0907907 0.450997 0.272372 0.272493C0.453954 0.0909119 0.670928 0.00012207 0.923295 0.00012207C1.17566 0.00012207 1.39264 0.0909119 1.57422 0.272493C1.7558 0.450997 1.84659 0.666433 1.84659 0.9188C1.84659 1.08807 1.8035 1.24349 1.71733 1.38507C1.63423 1.52356 1.52344 1.63435 1.38494 1.71745C1.24645 1.80055 1.09257 1.8421 0.923295 1.8421Z" fill="#1A1E2D"/>
</svg>
