<svg width="24" height="24" viewBox="0 0 24 24" fill="none" xmlns="http://www.w3.org/2000/svg">
<path d="M19.0996 9C19.0996 8.94477 19.0552 8.90039 19 8.90039H14.9004V18.0996H19.0996V9ZM10 12.0996C10.4971 12.0996 10.9004 12.5029 10.9004 13C10.9004 13.4971 10.4971 13.9004 10 13.9004H8C7.50294 13.9004 7.09961 13.4971 7.09961 13C7.09961 12.5029 7.50294 12.0996 8 12.0996H10ZM10 8.09961C10.4971 8.09961 10.9004 8.50294 10.9004 9C10.9004 9.49706 10.4971 9.90039 10 9.90039H8C7.50294 9.90039 7.09961 9.49706 7.09961 9C7.09961 8.50294 7.50294 8.09961 8 8.09961H10ZM13.0996 5C13.0996 4.94477 13.0552 4.90039 13 4.90039H5C4.94477 4.90039 4.90039 4.94477 4.90039 5V18.0996H13.0996V5ZM14.9004 7.09961H19C20.0493 7.09961 20.9004 7.95066 20.9004 9V18.0996H22C22.4971 18.0996 22.9004 18.5029 22.9004 19C22.9004 19.4971 22.4971 19.9004 22 19.9004H2C1.50294 19.9004 1.09961 19.4971 1.09961 19C1.09961 18.5029 1.50294 18.0996 2 18.0996H3.09961V5C3.09961 3.95066 3.95066 3.09961 5 3.09961H13C14.0493 3.09961 14.9004 3.95066 14.9004 5V7.09961Z" fill="#1A1E2D"/>
</svg>
