<svg width="24" height="24" viewBox="0 0 24 24" fill="none" xmlns="http://www.w3.org/2000/svg">
<path d="M12 14.5996C14.3874 14.5996 16.1924 16.0798 16.7441 18.0996H20C20.0552 18.0996 20.0996 18.0552 20.0996 18V6C20.0996 5.94477 20.0552 5.90039 20 5.90039H4C3.94477 5.90039 3.90039 5.94477 3.90039 6V18C3.90039 18.0552 3.94477 18.0996 4 18.0996H7.25586C7.80761 16.0798 9.61258 14.5996 12 14.5996ZM12 16.4004C10.642 16.4004 9.63334 17.0981 9.16699 18.0996H14.833C14.3667 17.0981 13.358 16.4004 12 16.4004ZM13.3496 10.75C13.3496 10.0044 12.7456 9.40039 12 9.40039C11.2544 9.40039 10.6504 10.0044 10.6504 10.75C10.6504 11.4956 11.2544 12.0996 12 12.0996C12.7456 12.0996 13.3496 11.4956 13.3496 10.75ZM15.1504 10.75C15.1504 12.4897 13.7397 13.9004 12 13.9004C10.2603 13.9004 8.84961 12.4897 8.84961 10.75C8.84961 9.0103 10.2603 7.59961 12 7.59961C13.7397 7.59961 15.1504 9.0103 15.1504 10.75ZM21.9004 18C21.9004 19.0493 21.0493 19.9004 20 19.9004H4C2.95066 19.9004 2.09961 19.0493 2.09961 18V6C2.09961 4.95066 2.95066 4.09961 4 4.09961H20C21.0493 4.09961 21.9004 4.95066 21.9004 6V18Z" fill="#1A1E2D"/>
<circle cx="17.75" cy="8.25" r="1.25" fill="#1A1E2D"/>
</svg>
