<svg width="24" height="24" viewBox="0 0 24 24" fill="none" xmlns="http://www.w3.org/2000/svg">
<path d="M9.0332 17.9004C9.41901 19.1733 10.6011 20.0996 12 20.0996C13.3989 20.0996 14.581 19.1733 14.9668 17.9004H9.0332ZM12 3.90039C9.11861 3.90039 6.74369 6.15936 6.59961 9.03711L6.40918 12.835C6.39605 13.0975 6.32847 13.3547 6.21094 13.5898L4.95605 16.0996H19.0439L17.7891 13.5898C17.6715 13.3547 17.6039 13.0975 17.5908 12.835L17.4004 9.03711C17.2563 6.15936 14.8814 3.90039 12 3.90039ZM20.9004 16.1914C20.9002 17.1349 20.1349 17.9002 19.1914 17.9004H16.8164C16.3936 20.1764 14.3986 21.9004 12 21.9004C9.60144 21.9004 7.60641 20.1764 7.18359 17.9004H4.80859C3.92373 17.9002 3.19566 17.2271 3.1084 16.3652L3.09961 16.1914L3.11133 15.9932C3.13424 15.7965 3.19129 15.6048 3.28027 15.4268L4.60156 12.7852C4.60769 12.7728 4.61064 12.7589 4.61133 12.7451L4.80176 8.94727C4.99371 5.11152 8.15942 2.09961 12 2.09961C15.8406 2.09961 19.0063 5.11152 19.1982 8.94727L19.3887 12.7451C19.3894 12.7589 19.3923 12.7728 19.3984 12.7852L20.7197 15.4268C20.8383 15.664 20.9004 15.9261 20.9004 16.1914Z" fill="#1A1E2D"/>
</svg>
