<svg width="11" height="11" viewBox="0 0 11 11" fill="none" xmlns="http://www.w3.org/2000/svg">
<path d="M5.08382 0C5.59008 0 6.00098 0.410894 6.00098 0.917155V4.16667H9.25049C9.75675 4.16667 10.1676 4.57756 10.1676 5.08382C10.1676 5.59008 9.75675 6.00098 9.25049 6.00098H6.00098V9.25049C6.00098 9.75675 5.59008 10.1676 5.08382 10.1676C4.57756 10.1676 4.16667 9.75675 4.16667 9.25049V6.00098H0.917155C0.410894 6.00098 0 5.59008 0 5.08382C0 4.57756 0.410894 4.16667 0.917155 4.16667H4.16667V0.917155C4.16667 0.410894 4.57756 0 5.08382 0Z" fill="white"/>
</svg>
