<svg width="123" height="39" viewBox="0 0 123 39" fill="none" xmlns="http://www.w3.org/2000/svg">
<path d="M52.8643 13.3691C54.2483 11.4142 55.4423 10.0832 56.7188 9.23828C57.9866 8.39912 59.3529 8.02832 61.1055 8.02832C62.478 8.02844 63.8312 8.72103 65.623 10.291C66.0147 10.6342 66.4249 11.0158 66.9365 11.5078C67.2009 11.7621 68.134 12.6702 68.3066 12.8369C71.6879 16.1034 73.9687 17.6529 77.0215 18.0664C80.9943 18.6044 85.3457 16.6782 90.4443 11.8965C93.0736 9.43065 95.6528 8.11688 98.1865 7.92188C100.716 7.72725 103.242 8.64442 105.777 10.7256C110.864 14.9012 115.919 23.7113 120.95 37.3135C121.141 37.8288 121.69 38.1186 122.195 37.8682C122.675 37.63 122.865 37.018 122.679 36.5146C117.494 22.4955 112.111 13.192 106.538 8.76172C103.743 6.54003 100.886 5.53202 97.9775 5.78906C95.0739 6.04573 92.1595 7.5591 89.2393 10.2979C84.4405 14.7983 80.5828 16.4469 77.2471 15.9951C74.6991 15.6499 72.7069 14.3257 69.5322 11.2588C69.368 11.1001 68.4264 10.1827 68.1592 9.92578C67.6298 9.41678 67.1978 9.01614 66.7793 8.64941C64.7419 6.86434 63.0215 5.94152 61.1055 5.94141C59.0298 5.94141 57.3575 6.39355 55.8203 7.39844C54.2925 8.39728 52.9136 9.93197 51.4023 12.0654L51.4004 12.0684C51.3989 12.0704 51.3971 12.0723 51.3965 12.0732L51.6006 12.2178L51.4912 12.375C51.3893 12.2573 51.3779 12.1081 51.3828 12.0967C51.3862 12.0904 51.3901 12.0839 51.3926 12.0801C51.3906 12.083 51.3857 12.0887 51.3789 12.0986C51.3655 12.1183 51.3439 12.1505 51.3145 12.1934C51.2555 12.2792 51.1664 12.4088 51.0557 12.5693C50.8343 12.8904 50.5255 13.3377 50.1914 13.8184C49.5216 14.782 48.755 15.8751 48.3896 16.3623C47.2504 17.8814 46.1532 19.1209 44.9258 20.2246C42.9415 22.0088 41.3137 23.004 39.499 23.4766C37.6786 23.9505 35.6443 23.9057 32.8311 23.5596L32.7686 23.5527C30.9203 23.3253 30.0736 23.2471 28.9834 23.2471C26.4252 23.2471 24.3996 24.9929 21.3145 28.8428C21.1696 29.0235 21.0184 29.2133 20.8398 29.4385C20.7255 29.5828 20.6038 29.7372 20.3682 30.0352C17.3331 33.8712 15.8596 35.3168 14.0557 35.9141C12.498 36.4297 10.709 36.1421 8.66992 34.9678C6.62848 33.792 4.35963 31.7397 1.86816 28.7725C1.507 28.3423 0.894023 28.3306 0.520508 28.751C0.16624 29.1498 0.159807 29.7916 0.50293 30.2002C3.1703 33.3769 5.6714 35.635 8.01074 36.9355C10.3542 38.2383 12.5524 38.589 14.5889 37.915C16.8971 37.1509 18.5652 35.4691 21.7705 31.418C22.4645 30.5408 22.4631 30.5434 22.71 30.2354C24.1251 28.4695 25.2529 27.2391 26.2549 26.4512C27.2517 25.6674 28.1074 25.334 28.9834 25.334C29.9771 25.334 30.766 25.4057 32.5635 25.627L32.625 25.6348C35.6133 26.0024 37.8873 26.0519 39.9668 25.5049C42.0513 24.9565 43.9159 23.8159 46.1016 21.8506C47.4356 20.6511 48.6156 19.3147 49.8242 17.7031C50.2075 17.192 50.9905 16.0764 51.6641 15.1074C52.0015 14.6221 52.3127 14.1719 52.5342 13.8506C52.6448 13.6901 52.7329 13.5613 52.791 13.4766C52.8201 13.4342 52.8423 13.4021 52.8555 13.3828C52.8589 13.3777 52.8617 13.3729 52.8643 13.3691ZM52.8643 13.3691C52.864 13.3695 52.8633 13.3707 52.8623 13.3721C52.8616 13.373 52.8596 13.3755 52.8584 13.377C52.8562 13.3797 52.8485 13.3893 52.8428 13.3955C52.8211 13.4141 52.6887 13.4162 52.5732 13.3496C52.6212 13.2798 52.6521 13.2367 52.6602 13.2246L52.8643 13.3691Z" fill="#1A6AFF" stroke="#1A6AFF" stroke-width="0.5"/>
<path d="M52.0059 21.0056C56.4241 21.0056 60.0059 17.4239 60.0059 13.0056C60.0059 8.58734 56.4241 5.00562 52.0059 5.00562C47.5876 5.00562 44.0059 8.58734 44.0059 13.0056C44.0059 17.4239 47.5876 21.0056 52.0059 21.0056Z" fill="white"/>
<path d="M52.005 17.5772C54.5298 17.5772 56.5765 15.5305 56.5765 13.0058C56.5765 10.481 54.5298 8.43433 52.005 8.43433C49.4803 8.43433 47.4336 10.481 47.4336 13.0058C47.4336 15.5305 49.4803 17.5772 52.005 17.5772Z" fill="#1A6AFF"/>
</svg>
