<svg width="48" height="48" viewBox="0 0 48 48" fill="none" xmlns="http://www.w3.org/2000/svg">
<rect width="48" height="48" rx="8" fill="#FFEFE0"/>
<path d="M29.5556 16.24V15.1111C29.5556 14.8164 29.4385 14.5338 29.2301 14.3254C29.0217 14.1171 28.7391 14 28.4444 14C28.1498 14 27.8671 14.1171 27.6588 14.3254C27.4504 14.5338 27.3333 14.8164 27.3333 15.1111V16.2222H25.1111V15.1111C25.1111 14.8164 24.994 14.5338 24.7857 14.3254C24.5773 14.1171 24.2947 14 24 14C23.7053 14 23.4227 14.1171 23.2143 14.3254C23.006 14.5338 22.8889 14.8164 22.8889 15.1111V16.2222H20.6667V15.1111C20.6667 14.8164 20.5496 14.5338 20.3412 14.3254C20.1329 14.1171 19.8502 14 19.5556 14C19.2609 14 18.9783 14.1171 18.7699 14.3254C18.5615 14.5338 18.4444 14.8164 18.4444 15.1111V16.24C17.2526 16.2839 16.1241 16.7876 15.2955 17.6454C14.4669 18.5032 14.0026 19.6485 14 20.8411V29.3811C14.0015 30.6057 14.4886 31.7796 15.3545 32.6455C16.2204 33.5114 17.3943 33.9985 18.6189 34H29.3811C30.6057 33.9985 31.7796 33.5114 32.6455 32.6455C33.5114 31.7796 33.9985 30.6057 34 29.3811V20.8411C33.9974 19.6485 33.5331 18.5032 32.7045 17.6454C31.8759 16.7876 30.7474 16.2839 29.5556 16.24Z" fill="#F86C1D"/>
<path d="M24 20C23.0111 20 22.0444 20.2932 21.2222 20.8427C20.3999 21.3921 19.759 22.173 19.3806 23.0866C19.0022 24.0002 18.9031 25.0055 19.0961 25.9754C19.289 26.9454 19.7652 27.8363 20.4645 28.5355C21.1637 29.2348 22.0546 29.711 23.0245 29.9039C23.9945 30.0969 24.9998 29.9978 25.9134 29.6194C26.827 29.241 27.6079 28.6001 28.1573 27.7778C28.7068 26.9556 29 25.9889 29 25C28.9984 23.6744 28.4711 22.4036 27.5337 21.4663C26.5964 20.5289 25.3256 20.0016 24 20ZM25.6667 25.5556H24C23.8527 25.5556 23.7114 25.497 23.6072 25.3928C23.503 25.2886 23.4444 25.1473 23.4444 25V22.7778C23.4444 22.6304 23.503 22.4891 23.6072 22.3849C23.7114 22.2808 23.8527 22.2222 24 22.2222C24.1473 22.2222 24.2887 22.2808 24.3928 22.3849C24.497 22.4891 24.5556 22.6304 24.5556 22.7778V24.4444H25.6667C25.814 24.4444 25.9553 24.503 26.0595 24.6072C26.1637 24.7113 26.2222 24.8527 26.2222 25C26.2222 25.1473 26.1637 25.2886 26.0595 25.3928C25.9553 25.497 25.814 25.5556 25.6667 25.5556Z" fill="#FFF3E6"/>
</svg>
