<svg width="48" height="48" viewBox="0 0 48 48" fill="none" xmlns="http://www.w3.org/2000/svg">
<rect width="48" height="48" rx="8" fill="#EFEAFF"/>
<path d="M29.5556 16.24V15.1111C29.5556 14.8164 29.4385 14.5338 29.2301 14.3254C29.0217 14.1171 28.7391 14 28.4444 14C28.1498 14 27.8671 14.1171 27.6588 14.3254C27.4504 14.5338 27.3333 14.8164 27.3333 15.1111V16.2222H25.1111V15.1111C25.1111 14.8164 24.994 14.5338 24.7857 14.3254C24.5773 14.1171 24.2947 14 24 14C23.7053 14 23.4227 14.1171 23.2143 14.3254C23.006 14.5338 22.8889 14.8164 22.8889 15.1111V16.2222H20.6667V15.1111C20.6667 14.8164 20.5496 14.5338 20.3412 14.3254C20.1329 14.1171 19.8502 14 19.5556 14C19.2609 14 18.9783 14.1171 18.7699 14.3254C18.5615 14.5338 18.4444 14.8164 18.4444 15.1111V16.24C17.2527 16.2842 16.1244 16.788 15.2958 17.6457C14.4673 18.5034 14.0029 19.6486 14 20.8411V29.3811C14.0015 30.6057 14.4886 31.7796 15.3545 32.6455C16.2204 33.5114 17.3943 33.9985 18.6189 34H29.3811C30.6057 33.9985 31.7796 33.5114 32.6455 32.6455C33.5114 31.7796 33.9985 30.6057 34 29.3811V20.8411C33.9971 19.6486 33.5327 18.5034 32.7042 17.6457C31.8756 16.788 30.7473 16.2842 29.5556 16.24ZM28.1189 23.6744L23.6744 28.1189C23.4661 28.3272 23.1835 28.4442 22.8889 28.4442C22.5943 28.4442 22.3117 28.3272 22.1033 28.1189L19.8811 25.8967C19.6787 25.6871 19.5667 25.4064 19.5693 25.1151C19.5718 24.8238 19.6886 24.5451 19.8946 24.3391C20.1007 24.1331 20.3793 24.0162 20.6707 24.0137C20.962 24.0112 21.2427 24.1232 21.4522 24.3256L22.8889 25.7622L26.5478 22.1033C26.7573 21.9009 27.038 21.7889 27.3293 21.7915C27.6207 21.794 27.8993 21.9109 28.1054 22.1169C28.3114 22.3229 28.4282 22.6016 28.4307 22.8929C28.4333 23.1842 28.3213 23.4649 28.1189 23.6744Z" fill="#7C37FF"/>
</svg>
