<svg width="48" height="48" viewBox="0 0 48 48" fill="none" xmlns="http://www.w3.org/2000/svg">
<rect width="48" height="48" rx="8" fill="#E8FADA"/>
<path d="M28.7209 14H17.5581C17.2221 13.9998 16.8894 14.0658 16.5789 14.1942C16.2684 14.3227 15.9863 14.5111 15.7487 14.7487C15.5111 14.9863 15.3227 15.2684 15.1942 15.5789C15.0658 15.8894 14.9998 16.2221 15 16.5581V31.4419C14.9998 31.7779 15.0658 32.1106 15.1942 32.4211C15.3227 32.7316 15.5111 33.0137 15.7487 33.2513C15.9863 33.4889 16.2684 33.6773 16.5789 33.8058C16.8894 33.9342 17.2221 34.0002 17.5581 34H26.386C25.2161 33.2891 24.311 32.2149 23.809 30.9413C23.3069 29.6677 23.2355 28.2648 23.6055 26.9469C23.9756 25.6289 24.7669 24.4682 25.8586 23.6422C26.9502 22.8161 28.2822 22.3701 29.6512 22.3721C30.2015 22.3706 30.7494 22.4457 31.2791 22.5953V16.5581C31.2793 16.2221 31.2133 15.8894 31.0848 15.5789C30.9564 15.2684 30.7679 14.9863 30.5304 14.7487C30.2928 14.5111 30.0107 14.3227 29.7002 14.1942C29.3897 14.0658 29.0569 13.9998 28.7209 14ZM23.1395 22.8372H18.4884C18.3033 22.8372 18.1259 22.7637 17.995 22.6329C17.8642 22.502 17.7907 22.3246 17.7907 22.1395C17.7907 21.9545 17.8642 21.777 17.995 21.6462C18.1259 21.5154 18.3033 21.4419 18.4884 21.4419H23.1395C23.3246 21.4419 23.502 21.5154 23.6329 21.6462C23.7637 21.777 23.8372 21.9545 23.8372 22.1395C23.8372 22.3246 23.7637 22.502 23.6329 22.6329C23.502 22.7637 23.3246 22.8372 23.1395 22.8372ZM25 19.1163H18.4884C18.3033 19.1163 18.1259 19.0428 17.995 18.9119C17.8642 18.7811 17.7907 18.6036 17.7907 18.4186C17.7907 18.2336 17.8642 18.0561 17.995 17.9253C18.1259 17.7944 18.3033 17.7209 18.4884 17.7209H25C25.185 17.7209 25.3625 17.7944 25.4933 17.9253C25.6242 18.0561 25.6977 18.2336 25.6977 18.4186C25.6977 18.6036 25.6242 18.7811 25.4933 18.9119C25.3625 19.0428 25.185 19.1163 25 19.1163Z" fill="#0AB610"/>
<path d="M30 24C29.0111 24 28.0444 24.2932 27.2222 24.8427C26.3999 25.3921 25.759 26.173 25.3806 27.0866C25.0022 28.0002 24.9031 29.0055 25.0961 29.9755C25.289 30.9454 25.7652 31.8363 26.4645 32.5355C27.1637 33.2348 28.0546 33.711 29.0245 33.9039C29.9945 34.0969 30.9998 33.9978 31.9134 33.6194C32.827 33.241 33.6079 32.6001 34.1573 31.7778C34.7068 30.9556 35 29.9889 35 29C34.9984 27.6744 34.4711 26.4036 33.5338 25.4662C32.5964 24.5289 31.3256 24.0016 30 24ZM31.7652 28.5913L30.0261 30.3304C29.9657 30.3911 29.8938 30.4393 29.8147 30.4721C29.7357 30.505 29.6509 30.5219 29.5652 30.5219C29.4796 30.5219 29.3948 30.505 29.3157 30.4721C29.2366 30.4393 29.1648 30.3911 29.1043 30.3304L28.2348 29.4609C28.1707 29.4012 28.1193 29.3292 28.0837 29.2492C28.048 29.1692 28.0289 29.0828 28.0273 28.9952C28.0258 28.9077 28.0419 28.8207 28.0747 28.7395C28.1075 28.6583 28.1563 28.5845 28.2182 28.5226C28.2802 28.4606 28.3539 28.4118 28.4351 28.379C28.5163 28.3462 28.6033 28.3301 28.6909 28.3317C28.7785 28.3332 28.8648 28.3524 28.9448 28.388C29.0248 28.4237 29.0968 28.4751 29.1565 28.5391L29.5652 28.947L30.8435 27.6696C30.9032 27.6055 30.9752 27.5541 31.0552 27.5185C31.1352 27.4828 31.2215 27.4636 31.3091 27.4621C31.3967 27.4605 31.4837 27.4767 31.5649 27.5095C31.6461 27.5423 31.7198 27.5911 31.7818 27.653C31.8437 27.7149 31.8925 27.7887 31.9253 27.8699C31.9581 27.9511 31.9742 28.0381 31.9727 28.1257C31.9711 28.2132 31.952 28.2996 31.9163 28.3796C31.8807 28.4596 31.8293 28.5316 31.7652 28.5913Z" fill="#0AB610"/>
</svg>
