<svg width="48" height="48" viewBox="0 0 48 48" fill="none" xmlns="http://www.w3.org/2000/svg">
<rect width="48" height="48" rx="8" fill="#E4F1FF"/>
<path fill-rule="evenodd" clip-rule="evenodd" d="M25.6096 14C25.7688 14.0025 25.9256 14.0533 26.0592 14.1508C26.2728 14.3067 26.4 14.5617 26.4 14.8333V33.1667C26.4 33.6233 26.0472 33.9942 25.6104 34H25.6H16.8C16.3584 34 16 33.6267 16 33.1667C16 33.1667 16 22.8608 16 19.3342C16 18.2825 16.6312 17.3442 17.58 16.9842C19.916 16.1 25.3264 14.05 25.3264 14.05C25.4112 14.0183 25.4984 14.0017 25.5856 14H25.5976H25.6096ZM28 20.8317L30.5456 21.9675C31.428 22.3617 32 23.2658 32 24.2658V33.1667C32 33.6267 31.6416 34 31.2 34H27.8632C27.952 33.7392 28 33.4592 28 33.1667V20.8317ZM22.4104 28.1667C22.8472 28.1608 23.2 27.79 23.2 27.3333C23.2 26.8733 22.8416 26.5 22.4 26.5H20C19.5584 26.5 19.2 26.8733 19.2 27.3333C19.2 27.7933 19.5584 28.1667 20 28.1667H22.4H22.4104ZM22.4104 24.8333C22.8472 24.8275 23.2 24.4567 23.2 24C23.2 23.54 22.8416 23.1667 22.4 23.1667H20C19.5584 23.1667 19.2 23.54 19.2 24C19.2 24.46 19.5584 24.8333 20 24.8333H22.4H22.4104ZM22.4104 21.5C22.8472 21.4942 23.2 21.1233 23.2 20.6667C23.2 20.2067 22.8416 19.8333 22.4 19.8333H20C19.5584 19.8333 19.2 20.2067 19.2 20.6667C19.2 21.1267 19.5584 21.5 20 21.5H22.4H22.4104Z" fill="#2C80F9"/>
</svg>
