<svg width="20" height="20" viewBox="0 0 20 20" fill="none" xmlns="http://www.w3.org/2000/svg">
<path d="M13.7209 6.7758e-07H2.55814C2.22213 -0.000243959 1.88937 0.0657573 1.57889 0.194229C1.26842 0.322701 0.986311 0.511123 0.748717 0.748717C0.511123 0.986311 0.322701 1.26842 0.194229 1.57889C0.0657573 1.88937 -0.000243959 2.22213 6.7758e-07 2.55814V17.4419C-0.000243959 17.7779 0.0657573 18.1106 0.194229 18.4211C0.322701 18.7316 0.511123 19.0137 0.748717 19.2513C0.986311 19.4889 1.26842 19.6773 1.57889 19.8058C1.88937 19.9342 2.22213 20.0002 2.55814 20H11.386C10.2161 19.2891 9.31104 18.2149 8.80897 16.9413C8.3069 15.6677 8.23546 14.2648 8.60555 12.9469C8.97564 11.6289 9.76692 10.4682 10.8586 9.64218C11.9502 8.81613 13.2822 8.37006 14.6512 8.37209C15.2015 8.3706 15.7494 8.44574 16.2791 8.59535V2.55814C16.2793 2.22213 16.2133 1.88937 16.0848 1.57889C15.9564 1.26842 15.7679 0.986311 15.5304 0.748717C15.2928 0.511123 15.0107 0.322701 14.7002 0.194229C14.3897 0.0657573 14.0569 -0.000243959 13.7209 6.7758e-07ZM8.13954 8.83721H3.48837C3.30334 8.83721 3.12588 8.76371 2.99504 8.63287C2.8642 8.50203 2.7907 8.32457 2.7907 8.13954C2.7907 7.9545 2.8642 7.77705 2.99504 7.64621C3.12588 7.51537 3.30334 7.44186 3.48837 7.44186H8.13954C8.32457 7.44186 8.50203 7.51537 8.63287 7.64621C8.76371 7.77705 8.83721 7.9545 8.83721 8.13954C8.83721 8.32457 8.76371 8.50203 8.63287 8.63287C8.50203 8.76371 8.32457 8.83721 8.13954 8.83721ZM10 5.11628H3.48837C3.30334 5.11628 3.12588 5.04278 2.99504 4.91194C2.8642 4.7811 2.7907 4.60364 2.7907 4.41861C2.7907 4.23357 2.8642 4.05611 2.99504 3.92528C3.12588 3.79444 3.30334 3.72093 3.48837 3.72093H10C10.185 3.72093 10.3625 3.79444 10.4933 3.92528C10.6242 4.05611 10.6977 4.23357 10.6977 4.41861C10.6977 4.60364 10.6242 4.7811 10.4933 4.91194C10.3625 5.04278 10.185 5.11628 10 5.11628Z" fill="#1A1E2D"/>
<path d="M15 10C14.0111 10 13.0444 10.2932 12.2222 10.8427C11.3999 11.3921 10.759 12.173 10.3806 13.0866C10.0022 14.0002 9.90315 15.0055 10.0961 15.9755C10.289 16.9454 10.7652 17.8363 11.4645 18.5355C12.1637 19.2348 13.0546 19.711 14.0245 19.9039C14.9945 20.0969 15.9998 19.9978 16.9134 19.6194C17.827 19.241 18.6079 18.6001 19.1573 17.7778C19.7068 16.9556 20 15.9889 20 15C19.9984 13.6744 19.4711 12.4036 18.5338 11.4662C17.5964 10.5289 16.3256 10.0016 15 10ZM16.7652 14.5913L15.0261 16.3304C14.9657 16.3911 14.8938 16.4393 14.8147 16.4721C14.7357 16.505 14.6509 16.5219 14.5652 16.5219C14.4796 16.5219 14.3948 16.505 14.3157 16.4721C14.2366 16.4393 14.1648 16.3911 14.1043 16.3304L13.2348 15.4609C13.1707 15.4012 13.1193 15.3292 13.0837 15.2492C13.048 15.1692 13.0289 15.0828 13.0273 14.9952C13.0258 14.9077 13.0419 14.8207 13.0747 14.7395C13.1075 14.6583 13.1563 14.5845 13.2182 14.5226C13.2802 14.4606 13.3539 14.4118 13.4351 14.379C13.5163 14.3462 13.6033 14.3301 13.6909 14.3317C13.7785 14.3332 13.8648 14.3524 13.9448 14.388C14.0248 14.4237 14.0968 14.4751 14.1565 14.5391L14.5652 14.947L15.8435 13.6696C15.9032 13.6055 15.9752 13.5541 16.0552 13.5185C16.1352 13.4828 16.2215 13.4636 16.3091 13.4621C16.3967 13.4605 16.4837 13.4767 16.5649 13.5095C16.6461 13.5423 16.7198 13.5911 16.7818 13.653C16.8437 13.7149 16.8925 13.7887 16.9253 13.8699C16.9581 13.9511 16.9742 14.0381 16.9727 14.1257C16.9711 14.2132 16.952 14.2996 16.9163 14.3796C16.8807 14.4596 16.8293 14.5316 16.7652 14.5913Z" fill="#1A1E2D"/>
</svg>
