<svg width="98" height="98" viewBox="0 0 98 98" fill="none" xmlns="http://www.w3.org/2000/svg">
<path d="M98 49C98 39.6083 97.5917 31.0333 96.1625 26.1333C94.5292 20.4167 92.6917 15.1083 87.5875 10.4125C81.4625 4.9 75.95 3.0625 67.9875 1.42917C62.0667 0.204167 55.125 0 50.8375 0H46.9583C42.6708 0 35.7292 0.204167 29.8083 1.42917C21.8458 3.0625 16.3333 4.9 10.2083 10.4125C5.30833 15.1083 3.675 20.4167 1.8375 26.1333C0.408333 31.0333 0 39.6083 0 49C0 58.3917 0.408333 66.9667 1.8375 71.8667C3.47083 77.5833 5.30833 82.8917 10.4125 87.5875C16.5375 93.1 22.05 94.9375 30.0125 96.5708C36.9542 98 45.1208 98 49 98C52.8792 98.2042 61.0458 98 67.9875 96.5708C75.95 94.9375 81.4625 93.1 87.5875 87.5875C92.6917 82.8917 94.5292 77.5833 96.1625 71.8667C97.5917 66.9667 98 58.3917 98 49Z" fill="#5DA860"/>
<path d="M37.6057 56.4249V56.2954C38.6672 56.1084 39.4777 55.649 40.0424 54.9244C40.6094 54.1962 40.888 53.2861 40.888 52.1937C40.888 50.5685 40.3144 49.3812 39.166 48.63C38.018 47.8765 36.1492 47.5002 33.5671 47.5002H28V66.2493H34.7735C36.8653 66.2493 38.5032 65.7726 39.6773 64.819C40.8557 63.8659 41.44 62.5464 41.44 60.8631C41.44 59.6142 41.132 58.6255 40.5131 57.8931C39.8924 57.1588 38.9224 56.6712 37.6057 56.4249ZM31.0649 50.0627H33.7204C35.1026 50.0627 36.1165 50.2581 36.754 50.6517C37.3939 51.0452 37.7104 51.6819 37.7104 52.5634C37.7104 53.5376 37.4122 54.2284 36.8241 54.6332C36.2366 55.0394 35.2971 55.2428 34.0144 55.2428H31.0649V50.0627ZM37.2308 62.9315C36.575 63.4228 35.6056 63.6691 34.3229 63.6691H31.0649V57.7314H34.1691C35.5289 57.7314 36.5432 57.9665 37.2074 58.4367C37.8759 58.9074 38.2082 59.6301 38.2082 60.6046C38.2096 61.6634 37.8843 62.4393 37.2308 62.9315Z" fill="white"/>
<path d="M48.4061 47.4971H45.3379V66.2462H48.4061V47.4971Z" fill="white"/>
<path d="M67.7181 49.7299C66.1952 48.0453 64.0422 47.2043 61.2521 47.2043C58.4242 47.2043 56.2488 48.0345 54.7226 49.6915C53.1964 51.3505 52.4336 53.7259 52.4336 56.8227C52.4336 59.9166 53.195 62.3051 54.7133 63.9828C56.2329 65.6622 58.4022 66.5036 61.2316 66.5036C64.0273 66.5036 66.1859 65.6576 67.7162 63.965C69.241 62.2729 70.0024 59.9021 70.0024 56.8484C69.9992 53.7853 69.2377 51.4131 67.7181 49.7299ZM65.3534 62.1177C64.4274 63.2961 63.0499 63.8869 61.2297 63.8869C59.3997 63.8869 58.018 63.29 57.0869 62.0985C56.1562 60.9052 55.6888 59.1565 55.6888 56.847C55.6888 54.5467 56.1595 52.8051 57.0967 51.6145C58.0292 50.4277 59.4161 49.8327 61.2526 49.8327C63.0746 49.8327 64.447 50.4273 65.3669 51.6145C66.2854 52.8051 66.7426 54.5467 66.7426 56.847C66.7421 59.1808 66.2831 60.9374 65.3534 62.1177Z" fill="white"/>
<path d="M53.8542 42.3969C54.2239 42.0052 54.588 41.6345 54.9115 41.2124C55.5598 40.3981 56.1095 39.5371 56.5498 38.6308C56.7798 38.2036 56.9658 37.7086 57.1463 37.2617C57.3314 36.8176 57.4884 36.3282 57.6408 35.8781C57.7941 35.4359 57.9353 34.9872 58.0568 34.5529C58.1943 34.1042 58.3162 33.7106 58.4167 33.3918C58.5271 33.0726 58.5976 32.7384 58.6612 32.5416C58.7187 32.3191 58.751 32.2022 58.751 32.2022C58.751 32.2022 58.6406 32.1415 58.4471 32.0629C58.255 31.9942 57.9484 31.8502 57.5894 31.7694C57.2313 31.6848 56.7419 31.5352 56.2507 31.5142C55.758 31.4847 55.1933 31.4913 54.5796 31.5455C53.9855 31.6189 53.3858 31.7731 52.7398 31.9662C52.0999 32.163 51.5142 32.4659 50.8944 32.7973C50.29 33.138 49.7426 33.5554 49.1925 34.0088C48.6778 34.4744 48.1917 34.9839 47.7462 35.5261C47.3368 36.0782 46.9301 36.6489 46.6258 37.2505C46.3066 37.8488 46.0345 38.463 45.8475 39.087C45.4446 40.3238 45.3142 41.585 45.3413 42.7021C45.368 43.2682 45.4222 43.7931 45.5119 44.2731C45.5961 44.7499 45.7302 45.1888 45.8382 45.5408C45.8821 45.7096 45.9434 45.8661 46.0023 46.0054C46.0855 45.8129 46.1743 45.6063 46.2771 45.38C46.7833 44.2666 47.5247 42.8134 48.4081 41.4443C48.847 40.7613 49.3304 40.106 49.8067 39.5128C50.0596 39.2268 50.3068 38.9514 50.5363 38.6892C50.7817 38.4466 51.0187 38.2138 51.2366 38.0044C51.4749 37.8095 51.6876 37.6342 51.8779 37.479C52.062 37.3136 52.257 37.2135 52.4009 37.1149C52.6968 36.92 52.8646 36.812 52.8646 36.812C52.8646 36.812 52.7043 36.9368 52.4234 37.1495C52.2887 37.2622 52.1097 37.3743 51.9368 37.551C51.7643 37.7212 51.5656 37.9109 51.3483 38.119C51.1529 38.3438 50.9388 38.5911 50.7116 38.85C50.5069 39.1235 50.2886 39.4114 50.0628 39.7082C49.6431 40.3276 49.2173 41.0039 48.8442 41.706C48.0893 43.1102 47.4779 44.5845 47.0717 45.7068C46.9544 46.0396 46.9544 46.0396 46.8997 46.1947L47.8187 46.1915C48.0809 46.0947 48.3656 45.9914 48.6507 45.8587C49.0738 45.6773 49.5239 45.4646 49.9792 45.2239C50.4368 44.9864 50.885 44.7111 51.3455 44.4227C51.7998 44.1348 52.2345 43.8085 52.6599 43.4738C53.0689 43.1284 53.4844 42.7802 53.8542 42.3969Z" fill="white"/>
</svg>
