<svg width="22" height="22" viewBox="0 0 22 22" fill="none" xmlns="http://www.w3.org/2000/svg">
<path d="M10.25 11C13.2876 11 15.75 8.53757 15.75 5.5C15.75 2.46243 13.2876 0 10.25 0C7.21243 0 4.75 2.46243 4.75 5.5C4.75 8.53757 7.21243 11 10.25 11Z" fill="#1A1E2D"/>
<path fill-rule="evenodd" clip-rule="evenodd" d="M11.675 20.5121C10.636 19.3961 10 17.9001 10 16.2561C10 14.5731 10.667 13.0441 11.751 11.9201C11.261 11.8821 10.76 11.8621 10.25 11.8621C6.928 11.8621 3.987 12.6931 2.161 13.9381C0.768 14.8881 0 16.0951 0 17.3621V18.8121C0 19.2631 0.179 19.6961 0.498 20.0141C0.817 20.3331 1.249 20.5121 1.7 20.5121H11.675Z" fill="#1A1E2D"/>
<path fill-rule="evenodd" clip-rule="evenodd" d="M16.25 11.0061C13.352 11.0061 11 13.3581 11 16.2561C11 19.1541 13.352 21.5061 16.25 21.5061C19.148 21.5061 21.5 19.1541 21.5 16.2561C21.5 13.3581 19.148 11.0061 16.25 11.0061ZM15.5 16.2561V18.7561C15.5 19.1701 15.836 19.5061 16.25 19.5061C16.664 19.5061 17 19.1701 17 18.7561V16.2561C17 15.8421 16.664 15.5061 16.25 15.5061C15.836 15.5061 15.5 15.8421 15.5 16.2561ZM16.25 13.0061C16.802 13.0061 17.25 13.4541 17.25 14.0061C17.25 14.5581 16.802 15.0061 16.25 15.0061C15.698 15.0061 15.25 14.5581 15.25 14.0061C15.25 13.4541 15.698 13.0061 16.25 13.0061Z" fill="#1A1E2D"/>
</svg>
