<svg width="21" height="21" viewBox="0 0 21 21" fill="none" xmlns="http://www.w3.org/2000/svg">
<path fill-rule="evenodd" clip-rule="evenodd" d="M10.5802 0C11.0143 0 11.3662 0.352175 11.3663 0.786133C11.3663 1.21845 11.0168 1.56866 10.5851 1.57129V2.4873C10.8942 2.41973 11.2151 2.38381 11.5441 2.38379C14.02 2.38379 16.0341 4.39776 16.0343 6.87402C16.0343 7.38952 15.9451 7.88497 15.7843 8.34668L19.8282 12.3906C20.591 13.1534 20.5906 14.3886 19.8282 15.1514C19.0687 15.9109 17.8323 15.9123 17.0714 15.1543L13.0157 11.1133C12.7316 11.2122 12.4355 11.2851 12.129 11.3252L14.4181 15.0273C15.8692 17.3742 14.1834 20.4002 11.4239 20.4004H3.52942C0.761188 20.4 -0.916683 17.3708 0.532347 15.0273L0.533324 15.0264C0.533719 15.0257 0.534496 15.0247 0.535277 15.0234C0.537035 15.0206 0.539628 15.0154 0.543089 15.0098C0.550054 14.9985 0.560992 14.9815 0.574339 14.96C0.601342 14.9163 0.641231 14.8518 0.691527 14.7705C0.792502 14.6072 0.936766 14.3737 1.11047 14.0928C1.45835 13.5302 1.92426 12.7769 2.39563 12.0146C3.27596 10.591 4.17571 9.13485 4.36536 8.82812V1.57129C3.9334 1.56874 3.58411 1.21846 3.58411 0.786133C3.58419 0.352241 3.93622 0.000107263 4.37024 0H10.5802ZM3.06067 20.168C3.09137 20.1722 3.12239 20.1744 3.15344 20.1777C3.12239 20.1744 3.09137 20.1722 3.06067 20.168ZM11.8185 20.1758C11.8419 20.1731 11.8655 20.1721 11.8888 20.1689C11.8655 20.1721 11.8419 20.1731 11.8185 20.1758ZM2.83899 20.1299C2.86581 20.1354 2.89292 20.1397 2.92004 20.1445C2.89292 20.1397 2.86581 20.1354 2.83899 20.1299ZM12.0763 20.1367C12.087 20.1346 12.0978 20.133 12.1085 20.1309C12.0978 20.133 12.087 20.1346 12.0763 20.1367ZM2.6134 20.0752C2.65264 20.0862 2.69259 20.0949 2.73254 20.1045C2.69259 20.0949 2.65264 20.0862 2.6134 20.0752ZM12.2413 20.0996C12.272 20.092 12.3029 20.0856 12.3331 20.0771C12.3029 20.0856 12.272 20.092 12.2413 20.0996ZM2.39953 20.0068C2.44419 20.0227 2.48959 20.0367 2.53528 20.0508C2.48959 20.0367 2.44419 20.0227 2.39953 20.0068ZM2.19739 19.9277C2.2435 19.9477 2.29066 19.9655 2.33801 19.9834C2.29066 19.9655 2.2435 19.9477 2.19739 19.9277ZM12.6652 19.9629C12.6936 19.9515 12.7221 19.9408 12.7501 19.9287C12.7221 19.9408 12.6936 19.9515 12.6652 19.9629ZM2.01184 19.8408C2.04006 19.8552 2.06903 19.8682 2.09778 19.8818C2.06903 19.8682 2.04006 19.8552 2.01184 19.8408ZM12.8517 19.8818C12.8808 19.868 12.91 19.8545 12.9386 19.8398C12.91 19.8545 12.8808 19.868 12.8517 19.8818ZM13.0392 19.7852C13.0706 19.7677 13.1022 19.7509 13.1329 19.7324C13.1022 19.7509 13.0706 19.7677 13.0392 19.7852ZM1.64368 19.6201C1.66587 19.6354 1.68844 19.6502 1.71106 19.665C1.68844 19.6502 1.66587 19.6354 1.64368 19.6201ZM13.2482 19.6582C13.2645 19.6474 13.2809 19.637 13.297 19.626C13.2809 19.637 13.2645 19.6474 13.2482 19.6582ZM1.46692 19.4883C1.49417 19.5099 1.52193 19.5309 1.54993 19.5518C1.52193 19.5309 1.49417 19.5099 1.46692 19.4883ZM13.4034 19.5488C13.4299 19.529 13.4567 19.5098 13.4825 19.4893C13.4567 19.5098 13.4299 19.529 13.4034 19.5488ZM13.5529 19.4307C13.5845 19.404 13.616 19.3774 13.6466 19.3496C13.616 19.3774 13.5845 19.404 13.5529 19.4307ZM1.31067 19.3564C1.33568 19.379 1.36111 19.401 1.38684 19.4229C1.36111 19.401 1.33568 19.379 1.31067 19.3564ZM13.714 19.2861C13.7401 19.2611 13.7659 19.2358 13.7911 19.21C13.7659 19.2358 13.7401 19.2611 13.714 19.2861ZM1.15246 19.2051C1.17892 19.2323 1.2061 19.2588 1.23352 19.2852C1.2061 19.2588 1.17892 19.2323 1.15246 19.2051ZM13.8673 19.1289C13.8883 19.1059 13.9095 19.0831 13.9298 19.0596C13.9095 19.0831 13.8883 19.1059 13.8673 19.1289ZM1.01868 19.0576C1.03825 19.0803 1.05805 19.1028 1.07825 19.125C1.05805 19.1028 1.03825 19.0803 1.01868 19.0576ZM2.98254 18.959C3.06159 18.9792 3.14253 18.9956 3.22571 19.0068C3.14254 18.9956 3.06158 18.9792 2.98254 18.959ZM12.1046 18.9189C12 18.9533 11.8912 18.9798 11.7784 18.998C11.8912 18.9798 12 18.9533 12.1046 18.9189ZM0.885863 18.8936C0.905894 18.92 0.92657 18.9458 0.947386 18.9717C0.926569 18.9459 0.905895 18.92 0.885863 18.8936ZM14.0236 18.9463C14.0355 18.9312 14.047 18.9157 14.0587 18.9004C14.047 18.9157 14.0355 18.9312 14.0236 18.9463ZM1.86926 15.8545C1.06591 17.1539 1.99924 18.8277 3.52551 18.8281H11.42C12.9556 18.8281 13.8825 17.151 13.0812 15.8545L11.5206 13.332H3.42883L1.86926 15.8545ZM14.1271 18.8086C14.1507 18.7753 14.173 18.7411 14.1954 18.707C14.173 18.7411 14.1507 18.7753 14.1271 18.8086ZM0.757933 18.7129C0.77678 18.7415 0.795837 18.7699 0.81555 18.7979C0.795836 18.7699 0.776781 18.7415 0.757933 18.7129ZM14.2316 18.6514C14.2583 18.6088 14.2848 18.5661 14.3097 18.5225C14.2848 18.5662 14.2583 18.6088 14.2316 18.6514ZM0.652464 18.543C0.670291 18.5738 0.688358 18.6045 0.707152 18.6348C0.688357 18.6045 0.670292 18.5738 0.652464 18.543ZM14.3439 18.46C14.3648 18.4213 14.385 18.3822 14.4044 18.3428C14.385 18.3822 14.3648 18.4213 14.3439 18.46ZM0.557738 18.3672C0.569234 18.3901 0.580882 18.4129 0.592894 18.4355C0.580881 18.4129 0.569235 18.3901 0.557738 18.3672ZM14.4415 18.2656C14.4581 18.2298 14.4741 18.1937 14.4894 18.1572C14.4741 18.1937 14.4581 18.2297 14.4415 18.2656ZM14.5245 18.0693C14.5359 18.0399 14.5462 18.0102 14.5568 17.9805C14.5462 18.0102 14.5359 18.0399 14.5245 18.0693ZM0.388792 17.9688C0.400273 18.0015 0.412445 18.034 0.424925 18.0664C0.412443 18.034 0.400275 18.0015 0.388792 17.9688ZM6.08118 14.1426C7.14987 14.1427 8.01856 15.0123 8.01867 16.0811C8.01867 17.1501 7.14996 18.0194 6.08118 18.0195C5.01227 18.0195 4.1427 17.1502 4.1427 16.0811C4.14281 15.0122 5.01235 14.1426 6.08118 14.1426ZM0.31848 17.7432C0.329475 17.7834 0.341159 17.8235 0.353636 17.8633C0.341157 17.8235 0.329477 17.7834 0.31848 17.7432ZM14.5978 17.8584C14.6039 17.8386 14.6095 17.8187 14.6154 17.7988C14.6095 17.8187 14.6039 17.8386 14.5978 17.8584ZM6.20032 17.8135C6.21729 17.8123 6.23426 17.8122 6.2511 17.8105C6.23426 17.8122 6.21729 17.8123 6.20032 17.8135ZM1.58606 17.8037C1.58687 17.8054 1.58817 17.8069 1.58899 17.8086C1.57073 17.7706 1.55328 17.7323 1.53723 17.6934L1.58606 17.8037ZM5.73743 17.7852C5.77727 17.7932 5.81775 17.7985 5.85852 17.8037C5.81774 17.7985 5.77727 17.7932 5.73743 17.7852ZM6.3302 17.7988C6.359 17.7947 6.38781 17.7917 6.41614 17.7861C6.3878 17.7917 6.35901 17.7947 6.3302 17.7988ZM6.50891 17.7637C6.53188 17.7578 6.55467 17.7519 6.57727 17.7451C6.55467 17.7519 6.53188 17.7578 6.50891 17.7637ZM5.57825 17.7441C5.60111 17.7511 5.62433 17.7567 5.64758 17.7627C5.62433 17.7567 5.60111 17.7511 5.57825 17.7441ZM5.41321 17.6855C5.44612 17.6993 5.4799 17.7109 5.51379 17.7227C5.4799 17.7109 5.44612 17.6993 5.41321 17.6855ZM6.66125 17.7168C6.68578 17.7081 6.71049 17.7002 6.7345 17.6904C6.71049 17.7002 6.68578 17.7081 6.66125 17.7168ZM0.274535 17.5625C0.282635 17.6004 0.290524 17.6383 0.299925 17.6758C0.290522 17.6383 0.282638 17.6004 0.274535 17.5625ZM14.6515 17.6689C14.6624 17.6249 14.6726 17.5807 14.6818 17.5361C14.6726 17.5807 14.6624 17.6249 14.6515 17.6689ZM5.27063 17.6182C5.30276 17.6352 5.33598 17.65 5.36926 17.665C5.33598 17.65 5.30276 17.6352 5.27063 17.6182ZM6.80383 17.6592C6.83275 17.6459 6.86173 17.633 6.88977 17.6182C6.86172 17.633 6.83276 17.6459 6.80383 17.6592ZM6.94348 17.5869C6.97113 17.571 6.99884 17.5554 7.02551 17.5381C6.99884 17.5555 6.97113 17.571 6.94348 17.5869ZM5.13196 17.5361C5.15358 17.5503 5.17609 17.563 5.19836 17.5762C5.17609 17.563 5.15358 17.5503 5.13196 17.5361ZM7.10071 17.4863C7.11783 17.4739 7.13484 17.4613 7.15149 17.4482C7.13484 17.4613 7.11784 17.4739 7.10071 17.4863ZM14.6925 17.4805C14.7022 17.4287 14.7106 17.3766 14.7179 17.3242C14.7106 17.3766 14.7022 17.4287 14.6925 17.4805ZM5.00696 17.4453C5.02209 17.4573 5.03732 17.469 5.05286 17.4805C5.03732 17.469 5.02209 17.4573 5.00696 17.4453ZM0.239378 17.3643C0.244301 17.3968 0.248144 17.4295 0.254027 17.4619C0.248142 17.4295 0.244303 17.3968 0.239378 17.3643ZM7.22473 17.3867C7.23929 17.3739 7.25357 17.3609 7.2677 17.3477C7.25357 17.3609 7.2393 17.3739 7.22473 17.3867ZM4.88782 17.3428C4.90155 17.3558 4.91566 17.3683 4.92981 17.3809C4.91566 17.3683 4.90155 17.3558 4.88782 17.3428ZM4.77063 17.2207C4.78547 17.2377 4.80105 17.2541 4.81653 17.2705C4.80105 17.2541 4.78547 17.2378 4.77063 17.2207ZM7.3468 17.2686C7.358 17.2566 7.36914 17.2447 7.38 17.2324C7.36914 17.2447 7.358 17.2566 7.3468 17.2686ZM14.7267 17.2529C14.731 17.2162 14.7344 17.1795 14.7374 17.1426C14.7344 17.1795 14.731 17.2162 14.7267 17.2529ZM0.214964 17.1729C0.217355 17.1989 0.219769 17.225 0.222777 17.251C0.219768 17.225 0.217356 17.1989 0.214964 17.1729ZM4.66418 17.085C4.68186 17.1098 4.69995 17.1343 4.71887 17.1582C4.69995 17.1343 4.68185 17.1098 4.66418 17.085ZM7.44446 17.1543C7.45829 17.1367 7.47133 17.1187 7.4845 17.1006C7.47133 17.1187 7.4583 17.1367 7.44446 17.1543ZM14.7443 17.0479C14.7462 17.0108 14.7475 16.9737 14.7482 16.9365C14.7475 16.9737 14.7462 17.0108 14.7443 17.0479ZM7.53625 17.0273C7.55101 17.0047 7.56453 16.9814 7.57825 16.958C7.56453 16.9814 7.55102 17.0047 7.53625 17.0273ZM4.57727 16.9492C4.5923 16.9752 4.60686 17.0013 4.62317 17.0264C4.60686 17.0013 4.59229 16.9752 4.57727 16.9492ZM7.61731 16.8896C7.63116 16.8634 7.64384 16.8366 7.65637 16.8096C7.64383 16.8366 7.63117 16.8634 7.61731 16.8896ZM4.505 16.8096C4.51674 16.8349 4.52824 16.8601 4.54114 16.8848C4.52824 16.8601 4.51673 16.8349 4.505 16.8096ZM0.208128 16.6719C0.20491 16.7234 0.202054 16.7748 0.201292 16.8262C0.202052 16.7748 0.204912 16.7234 0.208128 16.6719ZM14.7482 16.8262C14.7478 16.8044 14.747 16.7826 14.7462 16.7607C14.747 16.7826 14.7478 16.8044 14.7482 16.8262ZM7.68957 16.7344C7.69796 16.7138 7.7054 16.6929 7.71301 16.6719C7.7054 16.6929 7.69796 16.7138 7.68957 16.7344ZM4.44836 16.6719C4.45533 16.6911 4.46125 16.7106 4.46887 16.7295C4.46125 16.7106 4.45533 16.6911 4.44836 16.6719ZM6.08118 15.7148C5.87936 15.7148 5.71508 15.8793 5.71496 16.0811C5.71496 16.283 5.87947 16.4482 6.08118 16.4482C6.28275 16.4481 6.44739 16.2829 6.44739 16.0811C6.44727 15.8794 6.28275 15.715 6.08118 15.7148ZM0.230589 16.4414C0.222383 16.5024 0.214785 16.5632 0.210082 16.624C0.214782 16.5632 0.222385 16.5024 0.230589 16.4414ZM7.74524 16.5801C7.75476 16.5483 7.76193 16.5159 7.76965 16.4834C7.76192 16.5159 7.75477 16.5483 7.74524 16.5801ZM4.39172 16.4834C4.39859 16.5122 4.40492 16.5411 4.41321 16.5693C4.40492 16.5411 4.39858 16.5122 4.39172 16.4834ZM4.35657 16.2891C4.36173 16.3321 4.36686 16.3749 4.37512 16.417C4.36686 16.3749 4.36172 16.3321 4.35657 16.2891ZM14.7159 16.4062C14.7072 16.3466 14.6958 16.2871 14.6837 16.2275C14.6958 16.2871 14.7072 16.3466 14.7159 16.4062ZM1.49914 16.1611C1.49403 16.1753 1.49026 16.1899 1.48547 16.2041C1.49226 16.184 1.49854 16.1636 1.50598 16.1436L1.49914 16.1611ZM14.6769 16.1914C14.6647 16.1346 14.6503 16.0781 14.6349 16.0215C14.6503 16.0781 14.6646 16.1346 14.6769 16.1914ZM7.78332 15.7373C7.80576 15.8485 7.81944 15.9633 7.81946 16.0811C7.81944 15.9633 7.80577 15.8486 7.78332 15.7373ZM5.55871 15.8613H5.55969H5.55871ZM0.359496 15.873C0.371275 15.8367 0.382482 15.7999 0.395628 15.7637C0.382482 15.7999 0.371275 15.8367 0.359496 15.873ZM14.5538 15.7637C14.5326 15.7053 14.5083 15.6478 14.4835 15.5898C14.5083 15.6478 14.5326 15.7053 14.5538 15.7637ZM7.77551 15.7012C7.76595 15.6585 7.75494 15.6166 7.74231 15.5752C7.75494 15.6166 7.76596 15.6585 7.77551 15.7012ZM9.57629 14.1035C10.0102 14.1035 10.3624 14.4556 10.3624 14.8896C10.3624 15.3236 10.0103 15.6758 9.57629 15.6758C9.14215 15.6758 8.79016 15.3237 8.79016 14.8896C8.79019 14.4556 9.14224 14.1035 9.57629 14.1035ZM17.212 15.0127C17.2546 15.0551 17.2992 15.0947 17.3448 15.1318C17.3908 15.1692 17.4378 15.2044 17.4864 15.2363C17.632 15.3319 17.7889 15.4035 17.9513 15.4512C18.0054 15.4671 18.0602 15.4796 18.1154 15.4902C18.2811 15.522 18.4506 15.5299 18.6183 15.5137C18.1162 15.5621 17.5971 15.3952 17.213 15.0127L13.0695 10.8848L17.212 15.0127ZM7.72473 15.5215C7.71243 15.4855 7.69926 15.45 7.68469 15.415C7.69925 15.45 7.71243 15.4855 7.72473 15.5215ZM9.57629 15.4756C9.61442 15.4756 9.65151 15.4708 9.68762 15.4639C9.65151 15.4708 9.61443 15.4756 9.57629 15.4756ZM9.71985 15.4551C9.7446 15.4488 9.76872 15.4419 9.79211 15.4326C9.76872 15.4419 9.74461 15.4488 9.71985 15.4551ZM9.82727 15.417C9.84887 15.4067 9.86972 15.3956 9.88977 15.3828C9.86973 15.3956 9.84886 15.4067 9.82727 15.417ZM7.67004 15.3809C7.65272 15.3417 7.63445 15.3032 7.61438 15.2656C7.63444 15.3032 7.65273 15.3417 7.67004 15.3809ZM9.91907 15.3623C9.93957 15.3474 9.9583 15.3308 9.97668 15.3135C9.95832 15.3309 9.93956 15.3474 9.91907 15.3623ZM0.702269 15.1328L0.583128 15.3418L0.703246 15.1328C0.715982 15.1123 4.38351 9.1802 4.56555 8.88574L0.702269 15.1328ZM9.99719 15.2939C10.015 15.2754 10.0317 15.2561 10.047 15.2354C10.0317 15.2561 10.015 15.2754 9.99719 15.2939ZM7.59387 15.2295C7.57341 15.1933 7.55234 15.1576 7.52942 15.123C7.55234 15.1576 7.57341 15.1933 7.59387 15.2295ZM10.0675 15.2061C10.0808 15.1855 10.092 15.1639 10.1027 15.1416C10.092 15.1639 10.0808 15.1855 10.0675 15.2061ZM7.50207 15.085C7.48129 15.0554 7.46016 15.0262 7.43762 14.998C7.46016 15.0262 7.48129 15.0554 7.50207 15.085ZM7.39758 14.9492C7.37712 14.9254 7.35581 14.9025 7.33411 14.8799C7.3558 14.9025 7.37712 14.9254 7.39758 14.9492ZM7.28625 14.8311C7.26219 14.8078 7.2374 14.7855 7.21203 14.7637C7.23739 14.7855 7.26219 14.8078 7.28625 14.8311ZM7.16516 14.7256C7.13488 14.7013 7.10427 14.6775 7.07239 14.6553C7.10427 14.6775 7.13488 14.7013 7.16516 14.7256ZM7.04114 14.6338C7.00686 14.611 6.97159 14.5897 6.93567 14.5693C6.97158 14.5897 7.00687 14.611 7.04114 14.6338ZM6.89465 14.5459C6.86564 14.5305 6.83574 14.5168 6.80578 14.5029C6.83574 14.5167 6.86564 14.5305 6.89465 14.5459ZM6.7384 14.4727C6.71309 14.4623 6.68714 14.4535 6.66125 14.4443C6.68714 14.4535 6.71309 14.4623 6.7384 14.4727ZM6.58508 14.418C6.55682 14.4094 6.528 14.4027 6.49914 14.3955C6.52799 14.4027 6.55682 14.4094 6.58508 14.418ZM6.25793 14.3516H6.25891L6.08118 14.3428L6.25793 14.3516ZM14.9767 9.76172C14.8112 9.95833 14.6291 10.14 14.4327 10.3057L18.1808 14.04C18.3286 14.1873 18.5694 14.1875 18.7169 14.04C18.8654 13.8914 18.8652 13.6514 18.7169 13.5029L14.9767 9.76172ZM5.93664 9.05273C5.93664 9.10364 5.94249 9.17352 5.90637 9.27441C5.87638 9.35808 5.81719 9.46561 5.71594 9.63574C5.52492 9.9567 5.14623 10.5573 4.40149 11.7598H10.5489L10.17 11.1475C8.36512 10.5655 7.05383 8.8715 7.05383 6.87402C7.05396 5.33608 7.8323 3.97826 9.01282 3.16895V1.57227H5.93664V9.05273ZM12.1232 11.126C12.0134 11.1409 11.9024 11.1518 11.7902 11.1582C11.9023 11.1518 12.0135 11.1409 12.1232 11.126ZM8.33117 9.71484C8.55445 9.96726 8.80683 10.1934 9.08313 10.3877C9.17527 10.4525 9.27006 10.5138 9.36731 10.5713C9.56169 10.6863 9.76623 10.7856 9.97864 10.8691L9.66614 10.7314C9.15668 10.4823 8.70326 10.1354 8.33117 9.71484ZM11.5441 3.95508C9.93536 3.95529 8.6263 5.26491 8.6261 6.87402C8.6261 8.48329 9.93523 9.79276 11.5441 9.79297C13.1441 9.79297 14.462 8.48961 14.462 6.87402C14.4618 5.26477 13.1528 3.95508 11.5441 3.95508ZM7.26282 6.59375C7.25681 6.6864 7.25403 6.77988 7.25403 6.87402C7.25403 7.08808 7.27245 7.29816 7.30286 7.50391C7.27248 7.29829 7.25403 7.08796 7.25403 6.87402C7.25404 6.68575 7.26652 6.50028 7.29016 6.31836L7.26282 6.59375ZM14.6261 7.34961V7.35059V7.34961ZM14.5216 5.94727C14.5521 6.04493 14.5779 6.1446 14.5988 6.24609C14.6092 6.29676 14.6182 6.34789 14.6261 6.39941L14.6271 6.40039C14.6033 6.24527 14.5674 6.09404 14.5216 5.94727ZM8.07532 4.35254C8.23036 4.13979 8.40421 3.94148 8.59485 3.76074C8.40422 3.9415 8.23035 4.13975 8.07532 4.35254ZM12.4073 2.6709V2.66992V2.6709ZM4.06164 1.2832C4.08166 1.29566 4.1026 1.30639 4.12414 1.31641C4.1026 1.30639 4.08167 1.29566 4.06164 1.2832ZM3.8927 1.125C3.93057 1.17832 3.97719 1.22467 4.03039 1.2627C3.97717 1.22468 3.93059 1.17831 3.8927 1.125ZM3.83899 1.03125C3.84851 1.05188 3.85945 1.07157 3.87121 1.09082C3.85944 1.07157 3.84852 1.05188 3.83899 1.03125ZM3.79602 0.904297C3.803 0.938416 3.81367 0.971249 3.82629 1.00293C3.81365 0.971229 3.803 0.938439 3.79602 0.904297ZM6.42297 14.376C6.3822 14.3678 6.34069 14.3627 6.29895 14.3574C6.34068 14.3627 6.38221 14.3678 6.42297 14.376Z" fill="#1A1E2D"/>
</svg>
