<svg width="21" height="21" viewBox="0 0 21 21" fill="none" xmlns="http://www.w3.org/2000/svg">
<path fill-rule="evenodd" clip-rule="evenodd" d="M2.91406 15.3352C3.65874 15.3353 4.26465 15.9411 4.26465 16.6857V18.8498C4.2644 19.5943 3.65858 20.2003 2.91406 20.2004H1.35059C0.605989 20.2004 0.000251816 19.5943 0 18.8498V16.6857C0 15.941 0.605834 15.3352 1.35059 15.3352H2.91406ZM8.23047 9.74434C8.97503 9.74457 9.58105 10.3503 9.58105 11.0949V18.8488C9.58105 19.5934 8.97503 20.2002 8.23047 20.2004H6.66699C5.92224 20.2004 5.31641 19.5936 5.31641 18.8488V11.0949C5.31641 10.3502 5.92224 9.74434 6.66699 9.74434H8.23047ZM18.8613 5.35372C19.6059 5.35381 20.2118 5.95969 20.2119 6.7043V18.8488C20.2119 19.5935 19.606 20.2003 18.8613 20.2004H17.2979C16.5533 20.2002 15.9473 19.5935 15.9473 18.8488V6.7043C15.9474 5.95975 16.5533 5.3539 17.2979 5.35372H18.8613ZM13.5469 11.9201C14.2912 11.9205 14.8972 12.5264 14.8975 13.2707V18.8488C14.8975 19.5934 14.2913 20.1991 13.5469 20.1994H11.9834C11.2386 20.1994 10.6328 19.5936 10.6328 18.8488V13.2707C10.633 12.5262 11.2388 11.9201 11.9834 11.9201H13.5469ZM13.5459 20.0998H13.5469C13.5891 20.0998 13.6308 20.0981 13.6719 20.094C13.6305 20.0981 13.5883 20.0998 13.5459 20.0998ZM0.994141 20.0481C1.06777 20.07 1.14407 20.0859 1.22266 20.094C1.14408 20.0859 1.06777 20.07 0.994141 20.0481ZM6.30664 20.0471C6.3814 20.0696 6.45918 20.0858 6.53906 20.094C6.45912 20.0858 6.38146 20.0696 6.30664 20.0471ZM16.9287 20.0441C17.0063 20.0682 17.0868 20.0855 17.1699 20.094C17.0868 20.0855 17.0062 20.0682 16.9287 20.0441ZM13.6992 20.0891C13.7302 20.0853 13.7608 20.0814 13.791 20.0754C13.7608 20.0814 13.7302 20.0853 13.6992 20.0891ZM11.623 20.0471C11.6781 20.0637 11.735 20.0753 11.793 20.0842C11.735 20.0753 11.6782 20.0637 11.623 20.0471ZM8.42676 20.0822C8.44241 20.0797 8.45818 20.0785 8.47363 20.0754C8.45818 20.0785 8.44241 20.0797 8.42676 20.0822ZM3.11816 20.0813C3.13056 20.0792 3.143 20.0778 3.15527 20.0754C3.143 20.0778 3.13056 20.0792 3.11816 20.0813ZM19.0654 20.0813C19.0778 20.0792 19.0903 20.0778 19.1025 20.0754C19.0903 20.0778 19.0778 20.0792 19.0654 20.0813ZM13.8271 20.0666C13.8541 20.0604 13.8809 20.0541 13.9072 20.0461C13.8809 20.0541 13.8541 20.0604 13.8271 20.0666ZM3.23145 20.0568C3.24346 20.0537 3.2557 20.0516 3.26758 20.0481C3.2557 20.0516 3.24346 20.0537 3.23145 20.0568ZM8.55566 20.0549C8.56406 20.0526 8.57273 20.0515 8.58105 20.049C8.57273 20.0515 8.56406 20.0526 8.55566 20.0549ZM19.1914 20.0539C19.1985 20.052 19.2059 20.0511 19.2129 20.049C19.2059 20.0511 19.1985 20.052 19.1914 20.0539ZM0.873047 20.0041C0.89746 20.0142 0.922105 20.0238 0.947266 20.0324C0.922107 20.0238 0.89746 20.0142 0.873047 20.0041ZM6.07617 19.9504C6.13538 19.9823 6.19731 20.0093 6.26172 20.0315C6.19731 20.0093 6.13538 19.9823 6.07617 19.9504ZM16.8223 20.0061C16.845 20.0154 16.8683 20.0234 16.8916 20.0315C16.8683 20.0234 16.845 20.0154 16.8223 20.0061ZM3.33398 20.0256C3.3518 20.0192 3.36928 20.0122 3.38672 20.0051C3.36928 20.0122 3.35181 20.0192 3.33398 20.0256ZM8.65332 20.0236C8.67089 20.0173 8.68885 20.0122 8.70605 20.0051C8.68885 20.0122 8.6709 20.0173 8.65332 20.0236ZM13.9736 20.0236C13.9871 20.0187 14.0004 20.0134 14.0137 20.008C14.0004 20.0134 13.9871 20.0187 13.9736 20.0236ZM19.3057 20.0168C19.3114 20.0146 19.3175 20.0132 19.3232 20.0109C19.3175 20.0132 19.3114 20.0146 19.3057 20.0168ZM0.761719 19.9514C0.791949 19.9676 0.822845 19.9825 0.854492 19.9963C0.822845 19.9826 0.791952 19.9676 0.761719 19.9514ZM3.42969 19.9865C3.45189 19.9764 3.47362 19.9656 3.49512 19.9543C3.47362 19.9657 3.4519 19.9764 3.42969 19.9865ZM14.0674 19.9846C14.0875 19.9753 14.1074 19.9656 14.127 19.9553C14.1074 19.9656 14.0875 19.9753 14.0674 19.9846ZM8.75391 19.9826C8.77099 19.9747 8.78803 19.9669 8.80469 19.9582C8.78803 19.9669 8.77099 19.9747 8.75391 19.9826ZM19.417 19.969C19.4217 19.9666 19.426 19.9635 19.4307 19.9611C19.426 19.9635 19.4217 19.9666 19.417 19.969ZM0.661133 19.8918C0.690543 19.9113 0.720874 19.9294 0.751953 19.9465C0.720869 19.9295 0.690551 19.9113 0.661133 19.8918ZM5.97754 19.8918C6.00223 19.9082 6.02784 19.9231 6.05371 19.9377C6.02784 19.9231 6.00223 19.9082 5.97754 19.8918ZM14.165 19.9348C14.1889 19.9211 14.2125 19.907 14.2354 19.8918C14.2125 19.907 14.1889 19.9211 14.165 19.9348ZM3.53516 19.9318C3.55558 19.9201 3.57602 19.9086 3.5957 19.8957C3.57603 19.9086 3.55558 19.9201 3.53516 19.9318ZM16.6055 19.8898C16.6263 19.9038 16.6482 19.9162 16.6699 19.9289C16.6482 19.9162 16.6264 19.9038 16.6055 19.8898ZM8.86328 19.925C8.87841 19.9161 8.89349 19.9072 8.9082 19.8977C8.89349 19.9072 8.87841 19.9161 8.86328 19.925ZM19.5 19.9221C19.5137 19.9139 19.5277 19.9063 19.541 19.8977C19.5277 19.9063 19.5137 19.9139 19.5 19.9221ZM11.2939 19.8918C11.3093 19.902 11.325 19.9116 11.3408 19.9211C11.325 19.9116 11.3093 19.902 11.2939 19.8918ZM0.394531 19.6545C0.467233 19.7408 0.551337 19.817 0.644531 19.8811C0.551298 19.8171 0.467281 19.7407 0.394531 19.6545ZM16.5205 19.8273C16.5389 19.842 16.5579 19.8557 16.5771 19.8693C16.5579 19.8557 16.5389 19.842 16.5205 19.8273ZM3.6377 19.8664C3.65533 19.8538 3.67251 19.8408 3.68945 19.8273C3.67251 19.8408 3.65533 19.8538 3.6377 19.8664ZM5.88379 19.8234C5.90245 19.8385 5.9219 19.8524 5.94141 19.8664C5.92189 19.8525 5.90245 19.8385 5.88379 19.8234ZM8.95508 19.8664C8.97418 19.8528 8.99245 19.8381 9.01074 19.8234C8.99245 19.8381 8.97418 19.8528 8.95508 19.8664ZM14.2715 19.8664C14.2876 19.8549 14.3029 19.8425 14.3184 19.8303C14.3029 19.8425 14.2876 19.8549 14.2715 19.8664ZM11.2051 19.8273C11.2215 19.8404 11.2388 19.8522 11.2559 19.8645C11.2388 19.8522 11.2215 19.8404 11.2051 19.8273ZM19.5898 19.8645C19.6049 19.8536 19.6192 19.8418 19.6338 19.8303C19.6192 19.8418 19.6049 19.8536 19.5898 19.8645ZM3.72559 19.7971C3.74312 19.782 3.76066 19.7671 3.77734 19.7512C3.76067 19.7672 3.74312 19.782 3.72559 19.7971ZM5.80176 19.7512C5.81723 19.766 5.83339 19.7801 5.84961 19.7941C5.83339 19.7801 5.81724 19.766 5.80176 19.7512ZM9.0459 19.7941C9.05952 19.7824 9.07284 19.7704 9.08594 19.758C9.07284 19.7704 9.05952 19.7824 9.0459 19.7941ZM19.6787 19.7932C19.6948 19.7793 19.7103 19.7649 19.7256 19.7502C19.7103 19.7649 19.6948 19.7793 19.6787 19.7932ZM14.3672 19.7902C14.3792 19.7798 14.3908 19.7689 14.4023 19.758C14.3908 19.7689 14.3792 19.7798 14.3672 19.7902ZM11.1182 19.7512C11.1305 19.763 11.1435 19.774 11.1562 19.7854C11.1435 19.774 11.1305 19.763 11.1182 19.7512ZM16.4336 19.7512C16.4459 19.763 16.4589 19.774 16.4717 19.7854C16.4589 19.774 16.4459 19.763 16.4336 19.7512ZM19.7578 19.719C19.7747 19.7016 19.7908 19.6836 19.8066 19.6652C19.7908 19.6836 19.7747 19.7016 19.7578 19.719ZM9.13379 19.7111C9.14685 19.6975 9.15944 19.6834 9.17188 19.6691C9.15944 19.6834 9.14685 19.6975 9.13379 19.7111ZM14.4502 19.7111C14.4644 19.6963 14.4778 19.6808 14.4912 19.6652C14.4778 19.6808 14.4644 19.6963 14.4502 19.7111ZM3.82129 19.7082C3.83145 19.6975 3.84081 19.6861 3.85059 19.675C3.84081 19.6861 3.83144 19.6975 3.82129 19.7082ZM5.72363 19.6691C5.73438 19.6815 5.74562 19.6934 5.75684 19.7053C5.74562 19.6934 5.73438 19.6815 5.72363 19.6691ZM14.5205 19.6311C14.5378 19.6095 14.5544 19.5874 14.5703 19.5647C14.5544 19.5874 14.5379 19.6095 14.5205 19.6311ZM3.89551 19.6223C3.90834 19.606 3.92059 19.5894 3.93262 19.5725C3.92059 19.5894 3.90834 19.606 3.89551 19.6223ZM5.64258 19.5647C5.65635 19.5843 5.6707 19.6035 5.68555 19.6223C5.67069 19.6035 5.65635 19.5843 5.64258 19.5647ZM9.21094 19.6223C9.2258 19.6035 9.24013 19.5843 9.25391 19.5647C9.24013 19.5843 9.22579 19.6035 9.21094 19.6223ZM19.8428 19.6223C19.8576 19.6035 19.872 19.5843 19.8857 19.5647C19.872 19.5843 19.8576 19.6035 19.8428 19.6223ZM10.959 19.5647C10.9696 19.5798 10.98 19.595 10.9912 19.6096C10.98 19.595 10.9696 19.5798 10.959 19.5647ZM0.326172 19.5647C0.333385 19.575 0.34112 19.5848 0.348633 19.5949C0.341114 19.5849 0.333392 19.575 0.326172 19.5647ZM9.27441 19.5344C9.28703 19.5152 9.29897 19.4957 9.31055 19.4758C9.29897 19.4957 9.28703 19.5152 9.27441 19.5344ZM14.5908 19.5334C14.6034 19.5142 14.6154 19.4947 14.627 19.4748C14.6154 19.4947 14.6034 19.5142 14.5908 19.5334ZM19.9072 19.5324C19.9196 19.5136 19.9311 19.4943 19.9424 19.4748C19.9311 19.4943 19.9196 19.5136 19.9072 19.5324ZM3.96289 19.5266C3.97188 19.5127 3.98081 19.4988 3.98926 19.4846C3.98081 19.4988 3.97188 19.5127 3.96289 19.5266ZM5.57715 19.4602C5.58986 19.4827 5.60314 19.5049 5.61719 19.5266C5.60314 19.5049 5.58987 19.4827 5.57715 19.4602ZM10.9014 19.4758C10.9114 19.493 10.9218 19.5099 10.9326 19.5266C10.9218 19.5099 10.9114 19.493 10.9014 19.4758ZM16.2168 19.4758C16.2248 19.4896 16.2327 19.5034 16.2412 19.5168C16.2327 19.5034 16.2248 19.4896 16.2168 19.4758ZM0.260742 19.4602C0.271355 19.479 0.282399 19.4976 0.293945 19.5158C0.282387 19.4976 0.271366 19.479 0.260742 19.4602ZM4.02148 19.4279C4.0292 19.4132 4.03583 19.398 4.04297 19.383C4.03583 19.398 4.02919 19.4132 4.02148 19.4279ZM5.52832 19.3645C5.53811 19.386 5.54862 19.4071 5.55957 19.4279C5.54861 19.4071 5.53811 19.386 5.52832 19.3645ZM9.33789 19.4279C9.34816 19.4084 9.35794 19.3885 9.36719 19.3684C9.35794 19.3885 9.34816 19.4084 9.33789 19.4279ZM14.6543 19.4279C14.6652 19.4072 14.6748 19.3859 14.6846 19.3645C14.6748 19.3859 14.6652 19.4072 14.6543 19.4279ZM19.9697 19.4279C19.9806 19.4072 19.9903 19.3859 20 19.3645C19.9903 19.3859 19.9806 19.4072 19.9697 19.4279ZM10.8525 19.383C10.8581 19.3947 10.8632 19.4066 10.8691 19.4182C10.8632 19.4066 10.8581 19.3947 10.8525 19.383ZM16.1592 19.3645C16.1674 19.3825 16.1755 19.4006 16.1846 19.4182C16.1755 19.4006 16.1674 19.3825 16.1592 19.3645ZM0.213867 19.3684C0.221404 19.3848 0.229085 19.4011 0.237305 19.4172C0.229076 19.4011 0.221412 19.3848 0.213867 19.3684ZM4.07031 19.3244C4.08218 19.2957 4.0928 19.2663 4.10254 19.2365C4.09281 19.2663 4.08218 19.2956 4.07031 19.3244ZM9.38672 19.3244C9.39476 19.3049 9.40114 19.2848 9.4082 19.2648C9.40114 19.2848 9.39475 19.3049 9.38672 19.3244ZM14.7021 19.3244C14.714 19.2956 14.7246 19.2663 14.7344 19.2365C14.7246 19.2663 14.714 19.2956 14.7021 19.3244ZM20.0176 19.3244C20.0295 19.2956 20.0401 19.2663 20.0498 19.2365C20.0401 19.2663 20.0294 19.2956 20.0176 19.3244ZM5.4834 19.2512C5.4907 19.2726 5.49842 19.2938 5.50684 19.3147C5.49842 19.2938 5.4907 19.2726 5.4834 19.2512ZM16.1094 19.2365C16.118 19.263 16.1274 19.289 16.1377 19.3147C16.1274 19.289 16.118 19.263 16.1094 19.2365ZM0.170898 19.2619C0.176194 19.277 0.181647 19.292 0.1875 19.3068C0.18164 19.292 0.1762 19.277 0.170898 19.2619ZM4.1084 19.217C4.11535 19.1945 4.12127 19.1717 4.12695 19.1486C4.12127 19.1717 4.11534 19.1945 4.1084 19.217ZM14.7412 12.9045C14.7769 13.0205 14.7969 13.1432 14.7969 13.2707V18.8498C14.7968 18.9777 14.7761 19.1007 14.7402 19.217C14.7641 19.1398 14.7826 19.0595 14.791 18.9768C14.7953 18.9349 14.7979 18.8918 14.7979 18.8488V13.2707C14.7978 13.1432 14.7769 13.0205 14.7412 12.9045ZM20.0557 19.217C20.0632 19.1925 20.0701 19.1679 20.0762 19.1428C20.0701 19.1679 20.0632 19.1925 20.0557 19.217ZM10.7373 18.9748C10.7453 19.0544 10.7619 19.1317 10.7842 19.2063C10.7619 19.1317 10.7453 19.0544 10.7373 18.9748ZM16.083 19.1428C16.0882 19.1641 16.0934 19.1854 16.0996 19.2063C16.0934 19.1853 16.0882 19.1641 16.083 19.1428ZM0.135742 19.1428C0.14058 19.1628 0.145576 19.1827 0.151367 19.2023C0.145569 19.1827 0.140585 19.1628 0.135742 19.1428ZM9.42676 10.7316C9.46173 10.8466 9.48047 10.9687 9.48047 11.0949V18.8488C9.48047 18.935 9.47175 19.0195 9.45508 19.1008C9.46342 19.0601 9.47034 19.0188 9.47461 18.9768C9.47887 18.9348 9.48145 18.8919 9.48145 18.8488V11.0949C9.48145 10.9686 9.46181 10.8467 9.42676 10.7316ZM11.9824 18.8498H13.5479V18.8488H11.9834V13.2707H11.9824V18.8498ZM18.8623 18.8488V18.8498V18.8488ZM1.4502 18.7492H2.81543L2.81348 16.7854H1.4502V18.7492ZM6.7666 18.7492H8.13184L8.12988 11.1945H6.7666V18.7492ZM12.083 18.7492H13.4482L13.4463 13.3703H12.083V18.7492ZM17.3975 18.7492H18.7627L18.7607 6.80391H17.3975V18.7492ZM4.1543 16.5363C4.15051 16.5047 4.14673 16.4734 4.14062 16.4426C4.14672 16.4734 4.15052 16.5047 4.1543 16.5363ZM4.12793 16.3889C4.12253 16.3668 4.1169 16.345 4.11035 16.3234C4.11689 16.345 4.12254 16.3668 4.12793 16.3889ZM4.0957 16.2795C4.08774 16.2564 4.07957 16.2336 4.07031 16.2111C4.07955 16.2336 4.08775 16.2564 4.0957 16.2795ZM4.04785 16.1604C4.03891 16.1412 4.0294 16.1224 4.01953 16.1037C4.02939 16.1224 4.03893 16.1412 4.04785 16.1604ZM3.99512 16.0598C3.9851 16.0426 3.97467 16.0257 3.96387 16.009C3.97466 16.0257 3.98511 16.0425 3.99512 16.0598ZM3.9248 15.9523C3.91494 15.9388 3.90492 15.9254 3.89453 15.9123C3.90491 15.9254 3.91495 15.9388 3.9248 15.9523ZM3.86426 15.8752C3.84716 15.8552 3.82983 15.8355 3.81152 15.8166C3.82982 15.8355 3.84717 15.8552 3.86426 15.8752ZM3.77734 15.7834C3.765 15.7716 3.75207 15.7605 3.73926 15.7492C3.75207 15.7605 3.76501 15.7716 3.77734 15.7834ZM3.68457 15.7023C3.67269 15.693 3.66066 15.6839 3.64844 15.675C3.66066 15.6839 3.67269 15.693 3.68457 15.7023ZM3.5957 15.6389C3.57869 15.6278 3.56152 15.6169 3.54395 15.6066C3.56151 15.6169 3.57869 15.6277 3.5957 15.6389ZM3.49414 15.5783C3.4747 15.5681 3.45459 15.5592 3.43457 15.55C3.45459 15.5592 3.4747 15.5681 3.49414 15.5783ZM3.20898 15.4709C3.27216 15.4863 3.33353 15.5059 3.39258 15.5305C3.33354 15.5059 3.27214 15.4862 3.20898 15.4709ZM14.7393 12.8986C14.7281 12.8631 14.7153 12.8283 14.7012 12.7941C14.7153 12.8283 14.7281 12.8631 14.7393 12.8986ZM14.6875 12.7619C14.6756 12.7354 14.6631 12.7093 14.6494 12.6838C14.6631 12.7093 14.6756 12.7354 14.6875 12.7619ZM14.6348 12.6584C14.6205 12.6332 14.6058 12.6083 14.5898 12.5842C14.6058 12.6083 14.6205 12.6332 14.6348 12.6584ZM14.5674 12.552C14.5538 12.5327 14.54 12.5137 14.5254 12.4953C14.54 12.5137 14.5538 12.5327 14.5674 12.552ZM14.4883 12.4504C14.4769 12.4374 14.465 12.4249 14.4531 12.4123C14.465 12.4249 14.4769 12.4374 14.4883 12.4504ZM14.4082 12.3664C14.3937 12.3526 14.3785 12.3395 14.3633 12.3264C14.3785 12.3395 14.3937 12.3526 14.4082 12.3664ZM14.3262 12.2941C14.3076 12.2793 14.288 12.2659 14.2686 12.2522C14.2879 12.2659 14.3076 12.2793 14.3262 12.2941ZM14.2295 12.2248C14.2129 12.2139 14.1959 12.2037 14.1787 12.1936C14.1959 12.2037 14.2129 12.2139 14.2295 12.2248ZM14.125 12.1633C14.1108 12.1559 14.0965 12.1487 14.082 12.1418C14.0965 12.1487 14.1108 12.1558 14.125 12.1633ZM13.6748 12.0266C13.728 12.032 13.78 12.042 13.8311 12.0539C13.78 12.042 13.728 12.032 13.6748 12.0266ZM9.41211 10.6887C9.40425 10.6659 9.39584 10.6435 9.38672 10.6213C9.39583 10.6435 9.40426 10.6659 9.41211 10.6887ZM9.36426 10.5695C9.35625 10.5523 9.34763 10.5355 9.33887 10.5188C9.34762 10.5355 9.35626 10.5523 9.36426 10.5695ZM9.3125 10.4709C9.30024 10.4497 9.28785 10.4288 9.27441 10.4084C9.28784 10.4288 9.30025 10.4497 9.3125 10.4709ZM9.25293 10.3772C9.23685 10.3543 9.21968 10.3324 9.20215 10.3107C9.21967 10.3324 9.23686 10.3543 9.25293 10.3772ZM9.18359 10.2883C9.16687 10.2686 9.14973 10.2493 9.13184 10.2307C9.14972 10.2493 9.16688 10.2686 9.18359 10.2883ZM9.0918 10.1906C9.0801 10.1795 9.06778 10.1691 9.05566 10.1584C9.06778 10.1691 9.08011 10.1795 9.0918 10.1906ZM9.00098 10.1115C8.98909 10.1022 8.97706 10.0931 8.96484 10.0842C8.97706 10.0931 8.9891 10.1022 9.00098 10.1115ZM8.91211 10.0481C8.89645 10.0378 8.88039 10.0283 8.86426 10.0188C8.88039 10.0283 8.89645 10.0378 8.91211 10.0481ZM8.70508 9.9377C8.6875 9.93046 8.66934 9.92462 8.65137 9.91817C8.66934 9.92463 8.68749 9.93045 8.70508 9.9377ZM8.23047 9.84395C8.30409 9.84397 8.37612 9.85118 8.44629 9.86348C8.41729 9.8584 8.38804 9.85382 8.3584 9.85079L8.23047 9.84395ZM17.5742 0.212114C17.8574 -0.0707552 18.3163 -0.0706539 18.5996 0.212114C18.8829 0.495441 18.8829 0.955128 18.5996 1.23848L13.918 5.91915C13.3668 6.47095 12.5408 6.64412 11.8213 6.37032L11.6787 6.30977L7.9541 4.55782C7.77905 4.47517 7.57393 4.49759 7.4209 4.6086L7.3584 4.66133L2.63965 9.38008C2.35629 9.66344 1.89662 9.66342 1.61328 9.38008C1.33059 9.09672 1.33025 8.63784 1.61328 8.35469L6.33301 3.63594C6.921 3.048 7.82278 2.89199 8.57227 3.24434L12.2969 4.99727C12.4951 5.0918 12.735 5.05017 12.8916 4.89375L17.5742 0.212114ZM2.14844 9.49043C2.17207 9.48962 2.19531 9.48707 2.21875 9.4836C2.19532 9.48709 2.17207 9.48961 2.14844 9.49043ZM2.03125 9.4836C2.054 9.48712 2.07665 9.48943 2.09961 9.49043C2.07665 9.48944 2.05401 9.48711 2.03125 9.4836ZM2.25586 9.47774C2.28271 9.47208 2.3089 9.4645 2.33496 9.45528C2.3089 9.46451 2.2827 9.47207 2.25586 9.47774ZM1.91602 9.4543C1.93985 9.46287 1.96376 9.47021 1.98828 9.47579C1.96375 9.47022 1.93986 9.46286 1.91602 9.4543ZM1.81152 9.40547C1.83461 9.41905 1.85755 9.43222 1.88184 9.44258C1.85754 9.43223 1.83462 9.41904 1.81152 9.40547ZM1.60938 9.21797C1.63124 9.25022 1.65601 9.28117 1.68457 9.30977C1.71218 9.33736 1.7424 9.36165 1.77344 9.38301C1.74231 9.3616 1.71225 9.33745 1.68457 9.30977C1.65599 9.28117 1.63126 9.25023 1.60938 9.21797ZM1.55469 9.11934C1.56316 9.13862 1.57445 9.15648 1.58496 9.175C1.57444 9.15648 1.56316 9.13863 1.55469 9.11934ZM1.51855 9.00606C1.52287 9.02517 1.52804 9.04398 1.53418 9.0627C1.52804 9.04397 1.52288 9.02518 1.51855 9.00606ZM1.50391 8.90254C1.50481 8.91891 1.50661 8.9351 1.50879 8.95137C1.5066 8.93509 1.50481 8.91892 1.50391 8.90254ZM1.50879 8.7834C1.50604 8.80356 1.50371 8.82366 1.50293 8.84395C1.50371 8.82364 1.50604 8.80357 1.50879 8.7834ZM1.5332 8.67598C1.52723 8.69448 1.52081 8.71277 1.5166 8.73164C1.52081 8.71276 1.52723 8.69449 1.5332 8.67598ZM1.68457 8.425L1.60449 8.52364C1.58371 8.55508 1.56626 8.58835 1.55176 8.62227C1.58222 8.55097 1.62638 8.48418 1.68457 8.42598L6.40332 3.70625L1.68457 8.425ZM20.0879 6.46114C20.1035 6.53986 20.1123 6.62109 20.1123 6.7043C20.1123 6.62106 20.1035 6.53987 20.0879 6.46114ZM20.0742 6.40547C20.069 6.38444 20.0639 6.36357 20.0576 6.34297C20.0639 6.36357 20.069 6.38445 20.0742 6.40547ZM12.46 6.39571C12.4828 6.39643 12.5055 6.39777 12.5283 6.39766C12.5055 6.39778 12.4828 6.39642 12.46 6.39571ZM12.6084 6.39473C12.627 6.39385 12.6455 6.39324 12.6641 6.3918C12.6455 6.39324 12.627 6.39384 12.6084 6.39473ZM12.3359 6.3879C12.3558 6.38985 12.3756 6.39244 12.3955 6.39375C12.3756 6.39244 12.3558 6.38985 12.3359 6.3879ZM12.7451 6.38301C12.7641 6.38072 12.7829 6.37807 12.8018 6.3752C12.7829 6.37807 12.7641 6.38071 12.7451 6.38301ZM12.2031 6.37032C12.2174 6.37278 12.2317 6.37503 12.2461 6.37715C12.2317 6.37504 12.2174 6.37277 12.2031 6.37032ZM12.876 6.3625C12.8966 6.35853 12.9171 6.35447 12.9375 6.34981C12.9171 6.35448 12.8966 6.35852 12.876 6.3625ZM12.0107 6.32735C12.0467 6.33755 12.0828 6.34672 12.1191 6.35469C12.0828 6.34673 12.0467 6.33755 12.0107 6.32735ZM13.0068 6.33321C13.0337 6.326 13.0604 6.31817 13.0869 6.30977C13.0604 6.31817 13.0337 6.32599 13.0068 6.33321ZM11.9131 6.2961C11.9388 6.30494 11.9643 6.31382 11.9902 6.32149C11.9643 6.31382 11.9388 6.30494 11.9131 6.2961ZM20.0439 6.30196C20.0356 6.27759 20.0273 6.25336 20.0176 6.22969C20.0273 6.25336 20.0356 6.27759 20.0439 6.30196ZM13.1377 6.29317C13.1587 6.28586 13.1794 6.27779 13.2002 6.26973C13.1794 6.2778 13.1587 6.28585 13.1377 6.29317ZM13.2695 6.24141C13.2897 6.23265 13.3092 6.22257 13.3291 6.21309C13.3092 6.22258 13.2897 6.23264 13.2695 6.24141ZM13.6006 6.05489C13.5326 6.10278 13.4626 6.14671 13.3896 6.18477C13.4626 6.14672 13.5326 6.10278 13.6006 6.05489ZM19.9951 6.17891C19.9873 6.16211 19.9792 6.14549 19.9707 6.12911C19.9792 6.1455 19.9873 6.16211 19.9951 6.17891ZM19.9326 6.06172C19.9267 6.05196 19.9212 6.04202 19.915 6.03243C19.9212 6.04202 19.9267 6.05195 19.9326 6.06172ZM19.8779 5.97872C19.8646 5.96016 19.8512 5.94181 19.8369 5.92403C19.8512 5.94182 19.8646 5.96016 19.8779 5.97872ZM19.8096 5.89082C19.7942 5.87299 19.778 5.85601 19.7617 5.83907C19.778 5.85602 19.7942 5.87298 19.8096 5.89082ZM19.7305 5.80684C19.7127 5.78969 19.6945 5.77313 19.6758 5.75704C19.6945 5.77314 19.7127 5.78967 19.7305 5.80684ZM19.6396 5.72676C19.6253 5.71532 19.6106 5.70438 19.5957 5.69356C19.6106 5.70438 19.6253 5.71531 19.6396 5.72676ZM19.5361 5.65254C19.5262 5.64614 19.516 5.64012 19.5059 5.63399C19.516 5.64012 19.5262 5.64614 19.5361 5.65254ZM19.4404 5.59688C19.4263 5.58944 19.4119 5.5823 19.3975 5.5754C19.4119 5.5823 19.4263 5.58944 19.4404 5.59688ZM12.9629 4.96407V4.96504V4.96407ZM7.44336 4.47774C7.3869 4.50679 7.33446 4.54481 7.28809 4.59102L7.3623 4.52852C7.38827 4.50964 7.41516 4.49229 7.44336 4.47774ZM18.5645 1.1252C18.5782 1.10882 18.5917 1.09277 18.6035 1.07539C18.5917 1.09277 18.5782 1.10882 18.5645 1.1252ZM18.6279 1.03243C18.6385 1.01388 18.6497 0.996078 18.6582 0.976762C18.6497 0.996076 18.6385 1.01388 18.6279 1.03243ZM18.6758 0.928911C18.6836 0.906253 18.6912 0.883803 18.6963 0.860551C18.6912 0.8838 18.6836 0.906256 18.6758 0.928911ZM18.7031 0.821489C18.7067 0.798422 18.709 0.775425 18.71 0.752153C18.709 0.775421 18.7067 0.798426 18.7031 0.821489ZM18.71 0.703325C18.7092 0.68201 18.707 0.66101 18.7041 0.639848C18.707 0.661003 18.7092 0.682017 18.71 0.703325ZM18.6963 0.59102C18.6909 0.566451 18.6832 0.542653 18.6748 0.518754C18.6832 0.542642 18.6909 0.566463 18.6963 0.59102ZM18.3936 0.182817C18.4418 0.210079 18.4882 0.242328 18.5293 0.283403C18.5888 0.342892 18.6335 0.411497 18.6641 0.484575C18.6492 0.448999 18.6311 0.413942 18.6094 0.381059L18.5293 0.283403C18.4882 0.242371 18.4418 0.21004 18.3936 0.182817Z" fill="#1A1E2D"/>
</svg>
