<svg width="22" height="20" viewBox="0 0 22 20" fill="none" xmlns="http://www.w3.org/2000/svg">
<path fill-rule="evenodd" clip-rule="evenodd" d="M9.84961 10.0004C11.9987 10.0005 13.4658 10.7884 14.3936 11.9233C15.3183 13.0547 15.6991 14.5208 15.6992 15.8686C15.7007 17.0896 15.3632 18.0514 14.7041 18.7075C14.045 19.3635 13.0787 19.6996 11.8525 19.6997H3.85254C2.62492 19.6996 1.6579 19.3634 0.998047 18.7075C0.338209 18.0514 1.98275e-05 17.0895 0 15.8686C8.4461e-05 14.5208 0.380869 13.0547 1.30566 11.9233C2.2334 10.7884 3.70046 10.0004 5.84961 10.0004H9.84961ZM9.86035 11.6997L9.85254 11.7006V11.6997H5.84473C5.28834 11.6567 4.72928 11.7351 4.20605 11.9292C3.68266 12.1233 3.20734 12.429 2.81348 12.8247C2.4198 13.2201 2.11662 13.6962 1.9248 14.2202C1.73301 14.7444 1.65664 15.3045 1.70215 15.8608L1.70312 15.8686H1.70215C1.70216 16.6389 1.86866 17.1654 2.20703 17.5004C2.54563 17.8356 3.07739 18.0004 3.85547 18.0004H11.8525C12.6306 18.0004 13.1624 17.8356 13.501 17.5004C13.8393 17.1654 14.0058 16.6389 14.0059 15.8686V15.8608L14.0176 15.6518C14.0309 15.1648 13.952 14.6788 13.7842 14.2202C13.5922 13.6957 13.2877 13.2184 12.8936 12.8227C12.4996 12.4273 12.0244 12.1221 11.501 11.9282C10.9772 11.7342 10.4172 11.6562 9.86035 11.6997ZM16.9629 9.77974C17.5956 9.73917 18.23 9.83346 18.8232 10.0571C19.4186 10.2815 19.9588 10.6312 20.4082 11.0815C20.8576 11.5319 21.2056 12.0735 21.4287 12.6694C21.6505 13.2619 21.7434 13.8946 21.7021 14.5258C21.7453 14.9541 21.6936 15.387 21.5488 15.7924C21.4034 16.1996 21.168 16.5687 20.8613 16.8735C20.5546 17.1783 20.1835 17.4113 19.7754 17.5541C19.4182 17.6791 19.04 17.7324 18.6631 17.7124L18.502 17.6997H17.833C17.6076 17.6997 17.3908 17.61 17.2314 17.4506C17.0722 17.2913 16.9825 17.0753 16.9824 16.85C16.9824 16.6248 17.0722 16.4088 17.2314 16.2495C17.3909 16.0901 17.6076 16.0004 17.833 16.0004H18.5127C19.0762 16.0004 19.4409 15.8908 19.667 15.6674C19.8926 15.4444 20.0029 15.085 20.0029 14.5297V14.5219L20.0107 14.3696C20.0204 14.0132 19.9628 13.6573 19.8398 13.3217C19.6993 12.9384 19.4767 12.5904 19.1885 12.3012C18.9002 12.0121 18.5528 11.7887 18.1699 11.6469C17.787 11.5052 17.3778 11.4482 16.9707 11.4799H15.4521C15.2269 11.4798 15.0109 11.3901 14.8516 11.2309C14.6923 11.0716 14.6026 10.8556 14.6025 10.6303C14.6025 10.4049 14.6922 10.1882 14.8516 10.0288C15.0108 9.86954 15.2269 9.77986 15.4521 9.77974H16.9629ZM18.7578 17.6147C18.7718 17.615 18.7858 17.6156 18.7998 17.6157C18.7858 17.6156 18.7718 17.615 18.7578 17.6147ZM19.0371 17.6059C19.0511 17.6048 19.0651 17.6043 19.0791 17.603C19.0651 17.6043 19.0511 17.6048 19.0371 17.6059ZM17.5566 17.5454C17.5984 17.562 17.6412 17.5765 17.6855 17.5854C17.6412 17.5765 17.5985 17.562 17.5566 17.5454ZM19.3154 17.5708C19.3252 17.569 19.3349 17.5668 19.3447 17.5649C19.3349 17.5668 19.3252 17.569 19.3154 17.5708ZM17.4443 17.4887C17.4706 17.5047 17.4975 17.5191 17.5254 17.5317C17.4974 17.5191 17.4706 17.5047 17.4443 17.4887ZM17.3115 17.3881C17.339 17.4147 17.3686 17.4385 17.3994 17.4604C17.3686 17.4385 17.339 17.4148 17.3115 17.3881ZM19.9707 17.3657C19.9824 17.3604 19.9942 17.3555 20.0059 17.35C19.9942 17.3555 19.9824 17.3604 19.9707 17.3657ZM17.2188 17.2778C17.2389 17.3066 17.261 17.3339 17.2852 17.3598C17.261 17.3338 17.2388 17.3066 17.2188 17.2778ZM17.1484 17.1538C17.1627 17.1856 17.1796 17.2159 17.1982 17.2456C17.1797 17.2159 17.1626 17.1856 17.1484 17.1538ZM20.2236 17.2358C20.2317 17.2311 20.24 17.2269 20.248 17.2221C20.24 17.2269 20.2317 17.2311 20.2236 17.2358ZM17.0967 16.9975C17.1055 17.0414 17.1192 17.084 17.1357 17.1254C17.1192 17.0837 17.1055 17.0408 17.0967 16.9965V16.9975ZM17.0947 16.7202C17.0872 16.7627 17.083 16.8062 17.083 16.85C17.083 16.8062 17.0872 16.7628 17.0947 16.7202ZM17.1289 16.5942C17.1197 16.6195 17.1119 16.6451 17.1055 16.6713C17.1119 16.6451 17.1197 16.6195 17.1289 16.5942ZM17.209 16.434C17.1856 16.4691 17.1655 16.5061 17.1484 16.5444C17.1656 16.5061 17.1856 16.4691 17.209 16.434ZM17.4004 16.2377C17.3729 16.2572 17.3471 16.279 17.3223 16.3022C17.3472 16.279 17.3729 16.2572 17.4004 16.2377ZM17.5225 16.1684C17.4942 16.1813 17.4669 16.196 17.4404 16.2124C17.467 16.196 17.4942 16.1813 17.5225 16.1684ZM17.6855 16.1147C17.6432 16.1232 17.6016 16.1353 17.5615 16.1508C17.6017 16.1353 17.6431 16.1232 17.6855 16.1147ZM20.0898 14.8178C20.0921 14.7903 20.0961 14.7624 20.0977 14.7338V14.7211C20.096 14.7541 20.0924 14.7862 20.0898 14.8178ZM21.6113 14.185C21.611 14.1537 21.6104 14.1225 21.6094 14.0913C21.6104 14.1225 21.611 14.1537 21.6113 14.185ZM20.0859 13.8999H20.085H20.0859ZM21.6045 13.9858C21.6024 13.9493 21.5987 13.9129 21.5957 13.8764C21.5987 13.9129 21.6024 13.9493 21.6045 13.9858ZM21.5889 13.7915C21.5837 13.7409 21.5772 13.6905 21.5703 13.6401C21.5772 13.6905 21.5837 13.7409 21.5889 13.7915ZM21.5586 13.562C21.5521 13.5206 21.5457 13.4792 21.5381 13.4379C21.5457 13.4792 21.5521 13.5205 21.5586 13.562ZM21.3359 12.7045H21.335H21.3359ZM21.1035 12.1918C21.0918 12.1697 21.0805 12.1474 21.0684 12.1254C21.0805 12.1474 21.0918 12.1697 21.1035 12.1918ZM21.0068 12.018C20.9863 11.9833 20.9658 11.9486 20.9443 11.9145C20.9658 11.9486 20.9864 11.9833 21.0068 12.018ZM20.8926 11.8344C20.8682 11.7975 20.8428 11.7612 20.8174 11.725C20.8428 11.7613 20.8682 11.7975 20.8926 11.8344ZM18.2041 11.5532C18.3031 11.5898 18.4 11.6313 18.4941 11.6782C18.4001 11.6313 18.3031 11.5898 18.2041 11.5532C18.1228 11.5231 18.0404 11.4967 17.957 11.4741C18.0403 11.4968 18.1228 11.5231 18.2041 11.5532ZM20.7725 11.6616C20.7457 11.625 20.7183 11.5889 20.6904 11.5532C20.7183 11.5889 20.7457 11.625 20.7725 11.6616ZM20.6328 11.4799C20.5891 11.4262 20.5443 11.3734 20.498 11.3217C20.5443 11.3734 20.5891 11.4262 20.6328 11.4799ZM15.1768 11.3256C15.2186 11.3422 15.2614 11.3568 15.3057 11.3657C15.2613 11.3568 15.2186 11.3422 15.1768 11.3256ZM15.0625 11.268C15.0885 11.2839 15.1149 11.2984 15.1426 11.311C15.1149 11.2984 15.0885 11.2839 15.0625 11.268ZM14.8369 11.0571C14.8622 11.0936 14.8901 11.1288 14.9219 11.1606C14.9528 11.1915 14.9871 11.2179 15.0225 11.2426C14.9872 11.2179 14.9528 11.1915 14.9219 11.1606C14.89 11.1287 14.8622 11.0936 14.8369 11.0571ZM20.3379 11.1518L20.1904 11.0112C20.1867 11.0078 20.1825 11.0048 20.1787 11.0014C20.2327 11.0504 20.2863 11.1001 20.3379 11.1518ZM14.7666 10.9301C14.7809 10.9629 14.7975 10.9944 14.8164 11.0249C14.7975 10.9944 14.7809 10.9629 14.7666 10.9301ZM20.1201 10.9497C20.0857 10.9195 20.051 10.8898 20.0156 10.8608C20.051 10.8898 20.0857 10.9195 20.1201 10.9497ZM14.7461 10.8823C14.7485 10.889 14.7523 10.8952 14.7549 10.9018C14.7391 10.8612 14.7254 10.8197 14.7168 10.7768L14.7461 10.8823ZM19.9346 10.7963C19.9007 10.7699 19.8667 10.7437 19.832 10.7182C19.8667 10.7437 19.9007 10.7699 19.9346 10.7963ZM19.7812 10.6811C19.7335 10.6471 19.6848 10.6145 19.6357 10.5825C19.6848 10.6145 19.7335 10.6471 19.7812 10.6811ZM19.5977 10.5571C19.5469 10.5247 19.4954 10.4936 19.4434 10.4633C19.4954 10.4936 19.5469 10.5247 19.5977 10.5571ZM14.751 10.3696C14.7403 10.398 14.7318 10.4269 14.7246 10.4565C14.7317 10.4269 14.7404 10.398 14.751 10.3696ZM18.7881 10.1508C18.9996 10.2306 19.2037 10.3271 19.3994 10.4379C19.2711 10.3652 19.1393 10.2982 19.0039 10.2387L18.7881 10.1508C18.7171 10.1241 18.6453 10.0996 18.5732 10.0766C18.6453 10.0996 18.7172 10.1241 18.7881 10.1508ZM14.8203 10.2299C14.8 10.2619 14.7819 10.295 14.7666 10.3295C14.7818 10.2949 14.8 10.262 14.8203 10.2299ZM15.0234 10.0161C14.9875 10.0411 14.9532 10.0687 14.9219 10.1C14.9531 10.0688 14.9877 10.041 15.0234 10.0161ZM18.542 10.0668C18.4811 10.048 18.4199 10.0303 18.3584 10.0141C18.4199 10.0303 18.4811 10.048 18.542 10.0668ZM18.3086 10.0014C18.2513 9.98706 18.1936 9.97437 18.1357 9.96235C18.1936 9.97436 18.2513 9.98706 18.3086 10.0014ZM15.1396 9.94966C15.1117 9.96248 15.0849 9.9774 15.0586 9.9936C15.0848 9.97736 15.1117 9.96252 15.1396 9.94966ZM18.0947 9.95356C18.0415 9.94304 17.9881 9.93377 17.9346 9.92524C17.9881 9.93377 18.0415 9.94305 18.0947 9.95356ZM15.2734 9.90376C15.2426 9.91135 15.2122 9.91972 15.1826 9.9311C15.2122 9.91969 15.2426 9.91136 15.2734 9.90376ZM17.8496 9.91255C17.7931 9.90468 17.7365 9.89769 17.6797 9.89204C17.7365 9.89768 17.7931 9.90469 17.8496 9.91255ZM17.1953 9.87056C17.3481 9.86869 17.5006 9.87501 17.6523 9.88911C17.5679 9.88126 17.4833 9.87543 17.3984 9.87251L17.1953 9.87056ZM15.4131 2.00044C16.3595 2.00059 17.2672 2.37623 17.9365 3.04536C18.6059 3.71479 18.9823 4.6231 18.9824 5.56978C18.9824 6.51656 18.606 7.42471 17.9365 8.09419C17.2672 8.76348 16.3596 9.13994 15.4131 9.14009C14.49 9.14326 13.6022 8.78269 12.9424 8.13716L12.9365 8.1313C12.7989 7.97049 12.7259 7.76377 12.7324 7.5522C12.739 7.34047 12.8252 7.13881 12.9727 6.98677C13.1202 6.83474 13.3188 6.74293 13.5303 6.72993C13.689 6.7202 13.8461 6.7553 13.9844 6.82954L14.1152 6.91646L14.123 6.92231H14.1221C14.4657 7.25728 14.9283 7.4433 15.4082 7.43989H15.4102C15.6561 7.44249 15.9002 7.39606 16.1279 7.30317C16.3558 7.21021 16.5632 7.07291 16.7373 6.89888C16.9113 6.72483 17.0486 6.5174 17.1416 6.2895C17.2346 6.06158 17.281 5.81689 17.2783 5.57075V5.56978C17.2775 5.07428 17.0808 4.59892 16.7305 4.24849C16.3799 3.89795 15.9039 3.70043 15.4082 3.69966H15.4072C15.1364 3.69535 14.8677 3.75523 14.625 3.87544L14.626 3.87642C14.4252 3.97865 14.1918 3.99675 13.9775 3.9272C13.7631 3.8575 13.5848 3.70522 13.4824 3.50435C13.3802 3.30351 13.362 3.07025 13.4316 2.85591C13.5014 2.64146 13.6536 2.46313 13.8545 2.36079L14.0381 2.27485C14.4714 2.08837 14.9399 1.99501 15.4131 2.00044ZM15.4131 9.04048L15.4121 9.0395L15.4131 9.04048ZM15.6875 9.02778C15.7096 9.02602 15.7318 9.02509 15.7539 9.0229C15.7318 9.02508 15.7096 9.02602 15.6875 9.02778ZM14.9258 9.0063C14.9342 9.00748 14.9427 9.00811 14.9512 9.00923C14.9427 9.00811 14.9342 9.00748 14.9258 9.0063ZM16.0225 8.98384C16.0354 8.98152 16.0486 8.98045 16.0615 8.97798C16.0486 8.98044 16.0354 8.98152 16.0225 8.98384ZM14.6113 8.94673C14.6272 8.95049 14.6433 8.95295 14.6592 8.95649C14.6433 8.95296 14.6272 8.95049 14.6113 8.94673ZM16.3379 8.91255C16.3506 8.90902 16.3633 8.90548 16.376 8.90181C16.3633 8.90547 16.3506 8.90903 16.3379 8.91255ZM14.3242 8.86567C14.3284 8.86707 14.3327 8.8682 14.3369 8.86958C14.3327 8.8682 14.3284 8.86707 14.3242 8.86567ZM16.6387 8.81392C16.6533 8.80837 16.668 8.80306 16.6826 8.79731C16.668 8.80305 16.6533 8.80838 16.6387 8.81392ZM14.0254 8.74946C14.0349 8.75363 14.0442 8.75807 14.0537 8.76216C14.0442 8.75808 14.0349 8.75363 14.0254 8.74946ZM7.0127 0.0834473C7.8565 -0.0843843 8.73153 0.00225981 9.52637 0.331494C10.321 0.660724 11.0006 1.21787 11.4785 1.93306C11.9565 2.64839 12.2119 3.48974 12.2119 4.35005C12.2105 5.50309 11.7517 6.60886 10.9365 7.42427C10.1211 8.23971 9.01454 8.69828 7.86133 8.69966C7.00129 8.6996 6.16047 8.44494 5.44531 7.96724C4.73009 7.48934 4.17204 6.80976 3.84277 6.01509C3.51356 5.22029 3.42693 4.34518 3.59473 3.50142C3.76257 2.65761 4.17778 1.88223 4.78613 1.27388C5.39438 0.665763 6.16913 0.25129 7.0127 0.0834473ZM13.7432 8.60981C13.7545 8.61611 13.7659 8.6222 13.7773 8.62837C13.7659 8.6222 13.7545 8.61611 13.7432 8.60981ZM6.62793 8.41743C6.82685 8.47768 7.03019 8.52355 7.23633 8.55415C7.33919 8.56945 7.44282 8.58061 7.54688 8.58833C7.65124 8.59606 7.75618 8.60004 7.86133 8.60005C8.00022 8.59988 8.13834 8.59212 8.27539 8.57856C8.13842 8.59211 8.00016 8.59989 7.86133 8.60005C7.4412 8.60003 7.02565 8.53805 6.62793 8.41743ZM8.39453 8.56392C8.41373 8.56147 8.433 8.55979 8.45215 8.55708C8.433 8.55979 8.41373 8.56147 8.39453 8.56392ZM17.2129 8.53462C17.228 8.52542 17.2428 8.51573 17.2578 8.5063C17.2428 8.51572 17.228 8.52543 17.2129 8.53462ZM8.59473 8.53364C8.61619 8.52986 8.63779 8.52701 8.65918 8.5229C8.6378 8.52701 8.61619 8.52986 8.59473 8.53364ZM8.80762 8.49067C8.81932 8.48799 8.83109 8.48564 8.84277 8.48286C8.83109 8.48565 8.81932 8.48799 8.80762 8.49067ZM13.4678 8.43794C13.4836 8.44879 13.4987 8.46057 13.5146 8.47114C13.4987 8.46057 13.4836 8.44879 13.4678 8.43794ZM8.98535 8.44575C9.00554 8.4402 9.0258 8.435 9.0459 8.42915C9.0258 8.435 9.00554 8.4402 8.98535 8.44575ZM9.16992 8.39009C9.19236 8.38281 9.215 8.37625 9.2373 8.3686C9.215 8.37626 9.19235 8.3828 9.16992 8.39009ZM17.4883 8.35005C17.4964 8.34397 17.5036 8.33667 17.5117 8.33052C17.5036 8.33667 17.4964 8.34397 17.4883 8.35005ZM9.3418 8.33052C9.37841 8.31688 9.41495 8.30316 9.45117 8.28853C9.41496 8.30317 9.37841 8.31687 9.3418 8.33052ZM13.2236 8.25435C13.2331 8.26217 13.2424 8.27007 13.252 8.27778C13.2424 8.27007 13.2331 8.26217 13.2236 8.25435ZM9.51562 8.26118C9.5602 8.24231 9.60452 8.22297 9.64844 8.20259C9.60453 8.22298 9.5602 8.2423 9.51562 8.26118ZM4.57617 7.04634C4.8397 7.3679 5.15061 7.65076 5.5 7.88423C5.67476 8.00099 5.85737 8.10382 6.0459 8.19282L5.76758 8.04829C5.67673 7.99685 5.58723 7.94154 5.5 7.88325C5.15077 7.64984 4.8398 7.36754 4.57617 7.04634ZM9.69824 8.18013C9.73775 8.16117 9.77651 8.14074 9.81543 8.12056C9.77651 8.14075 9.73774 8.16116 9.69824 8.18013ZM9.89551 8.07856C9.92825 8.06069 9.96088 8.04262 9.99316 8.02388C9.96088 8.04262 9.92825 8.06069 9.89551 8.07856ZM12.9385 7.96138C12.9603 7.99788 12.9847 8.03318 13.0127 8.06587C12.9847 8.03315 12.9602 7.99794 12.9385 7.96138ZM10.0586 7.98481C10.1046 7.95697 10.1503 7.92849 10.1953 7.89888C10.1503 7.9285 10.1046 7.95697 10.0586 7.98481ZM12.8809 7.84028C12.8931 7.87278 12.9072 7.90442 12.9238 7.93501C12.9072 7.9044 12.893 7.8728 12.8809 7.84028ZM11.0107 7.20063C10.9636 7.25269 10.9151 7.30406 10.8652 7.35396C10.6692 7.54998 10.4554 7.72406 10.2285 7.87642C10.3978 7.76276 10.5603 7.63766 10.7129 7.49946L10.8652 7.35396C10.9152 7.30401 10.9636 7.25275 11.0107 7.20063ZM12.8633 7.79438C12.8658 7.80266 12.8693 7.81062 12.8721 7.8188C12.8583 7.77814 12.8475 7.73639 12.8408 7.6938L12.8633 7.79438ZM18.0752 7.79438C18.0794 7.78939 18.0828 7.78377 18.0869 7.77876C18.0828 7.78377 18.0794 7.78939 18.0752 7.79438ZM12.8477 7.43306C12.8398 7.47309 12.8343 7.51386 12.833 7.55513C12.8343 7.5139 12.8398 7.47305 12.8477 7.43306ZM12.8848 7.30806C12.8746 7.33431 12.8656 7.36084 12.8584 7.38813C12.8656 7.36084 12.8746 7.33431 12.8848 7.30806ZM12.957 7.1645C12.9348 7.19805 12.9159 7.23345 12.8994 7.26997C12.9159 7.23345 12.9348 7.19806 12.957 7.1645ZM18.4375 7.26802C18.4422 7.25963 18.4465 7.25105 18.4512 7.24263C18.4465 7.25105 18.4422 7.25963 18.4375 7.26802ZM7.86133 1.69966C7.33734 1.69971 6.82534 1.85583 6.38965 2.14692C5.95386 2.43811 5.61366 2.85215 5.41309 3.33638C5.21274 3.82035 5.16057 4.35289 5.2627 4.86665C5.36495 5.38059 5.6168 5.85351 5.9873 6.22407C6.3579 6.59463 6.83072 6.84644 7.34473 6.94868C7.85874 7.0509 8.39179 6.99885 8.87598 6.79829C9.36005 6.59772 9.7743 6.25836 10.0654 5.82271C10.3566 5.38694 10.5117 4.87413 10.5117 4.35005C10.5112 3.64743 10.2312 2.97385 9.73438 2.477C9.23753 1.98023 8.56392 1.70019 7.86133 1.69966ZM18.5791 6.98677C18.5848 6.97412 18.5902 6.96139 18.5957 6.94868C18.5902 6.96139 18.5848 6.97412 18.5791 6.98677ZM18.6973 6.68696C18.7024 6.67176 18.707 6.65634 18.7119 6.64106C18.707 6.65634 18.7024 6.67176 18.6973 6.68696ZM18.7852 6.38228C18.7877 6.37153 18.7905 6.36082 18.793 6.35005C18.7905 6.36082 18.7877 6.37153 18.7852 6.38228ZM5.27246 5.27778C5.31791 5.4046 5.37319 5.52745 5.43652 5.64595C5.373 5.52719 5.31802 5.4039 5.27246 5.27681V5.27778ZM3.75098 5.42427C3.75971 5.45766 3.76974 5.49068 3.7793 5.52388C3.76975 5.49067 3.7597 5.45766 3.75098 5.42427ZM18.8691 5.27681C18.8677 5.2602 18.8669 5.24357 18.8652 5.227C18.8669 5.24357 18.8677 5.2602 18.8691 5.27681ZM3.68945 5.1479C3.69558 5.17988 3.70212 5.21175 3.70898 5.2436C3.70213 5.21175 3.69557 5.17989 3.68945 5.1479ZM10.6035 4.55317C10.5985 4.62061 10.591 4.68769 10.5811 4.75435C10.6009 4.62101 10.6113 4.48596 10.6113 4.35005L10.6035 4.55317ZM3.6416 4.84126C3.6469 4.88663 3.6534 4.93181 3.66016 4.977C3.65341 4.93181 3.64688 4.88664 3.6416 4.84126ZM18.8252 4.94868C18.8235 4.93925 18.8221 4.92977 18.8203 4.92036C18.8221 4.92977 18.8235 4.93925 18.8252 4.94868ZM3.61719 4.53169C3.61978 4.59199 3.62277 4.65224 3.62793 4.71235C3.62278 4.65223 3.61977 4.592 3.61719 4.53169ZM18.7559 4.64302C18.7512 4.62603 18.7462 4.60914 18.7412 4.59224C18.7462 4.60914 18.7512 4.62603 18.7559 4.64302ZM3.61523 4.24165C3.61377 4.29931 3.6124 4.35689 3.61328 4.4145C3.61241 4.35689 3.61376 4.29931 3.61523 4.24165ZM18.6592 4.34712C18.6513 4.32618 18.643 4.3054 18.6348 4.28462C18.6431 4.3054 18.6513 4.32618 18.6592 4.34712ZM12.1094 4.28462C12.1081 4.20431 12.1053 4.12422 12.0996 4.04438C12.1054 4.12422 12.1081 4.2043 12.1094 4.28462ZM18.5332 4.05513C18.5237 4.03547 18.5138 4.01601 18.5039 3.99653C18.5138 4.016 18.5237 4.03548 18.5332 4.05513ZM12.0908 3.95552C12.0845 3.88726 12.078 3.81914 12.0684 3.75142C12.078 3.81914 12.0845 3.88726 12.0908 3.95552ZM15.6025 3.60981H15.6035L15.4082 3.60005L15.6025 3.60981ZM13.5713 3.45942C13.6616 3.63652 13.8188 3.77096 14.0078 3.83247C14.0551 3.84784 14.1036 3.85809 14.1523 3.86372L14.0078 3.83149C13.8188 3.76993 13.6615 3.63563 13.5713 3.45845V3.45942ZM14.5801 3.78657C14.536 3.80901 14.4903 3.82706 14.4434 3.84028C14.4906 3.82695 14.5368 3.80912 14.5811 3.78657C14.6087 3.77289 14.6378 3.76265 14.666 3.75044C14.6376 3.76273 14.6079 3.77279 14.5801 3.78657ZM18.375 3.76411C18.364 3.74599 18.3522 3.72833 18.3408 3.7104C18.3522 3.72833 18.364 3.74599 18.375 3.76411ZM5.19824 3.6645C5.20004 3.65754 5.20323 3.65095 5.20508 3.64399C5.20323 3.65095 5.20003 3.65754 5.19824 3.6645ZM12.0508 3.64497C12.0403 3.58282 12.0288 3.52098 12.0156 3.45942C12.0288 3.52097 12.0403 3.58283 12.0508 3.64497ZM3.75879 3.24067C3.7338 3.33307 3.71212 3.42664 3.69336 3.52095C3.71212 3.42665 3.73381 3.33307 3.75879 3.24067ZM18.2012 3.50532C18.1872 3.48649 18.1725 3.46823 18.1582 3.44966C18.1725 3.46822 18.1872 3.48649 18.2012 3.50532ZM11.9893 3.3481C11.9751 3.2895 11.96 3.23121 11.9434 3.17329C11.9601 3.2312 11.975 3.2895 11.9893 3.3481ZM17.8662 3.11665C17.9144 3.16484 17.9608 3.21443 18.0059 3.26509C17.9988 3.25715 17.9925 3.24855 17.9854 3.24067L17.8662 3.11665ZM3.84668 2.95747C3.83015 3.00511 3.8166 3.05373 3.80176 3.102C3.8166 3.05372 3.83015 3.00512 3.84668 2.95747ZM11.9141 3.07466C11.8909 3.00107 11.866 2.92816 11.8389 2.85591C11.866 2.92814 11.8909 3.00109 11.9141 3.07466ZM17.6377 2.90864C17.6324 2.9042 17.6274 2.89938 17.6221 2.89497C17.6274 2.89938 17.6324 2.9042 17.6377 2.90864ZM14.2598 2.29438C14.1369 2.3387 14.0166 2.39065 13.8994 2.44966C13.8553 2.47212 13.8137 2.49854 13.7754 2.52876C13.6984 2.58946 13.634 2.66497 13.5859 2.75044V2.75142C13.6579 2.62311 13.7664 2.51742 13.8994 2.44966C14.0167 2.39065 14.137 2.33874 14.2598 2.29438ZM3.95898 2.67134C3.93953 2.71654 3.9212 2.76217 3.90332 2.80806C3.9212 2.76216 3.93954 2.71654 3.95898 2.67134ZM11.8174 2.80024C11.7863 2.72081 11.7527 2.64243 11.7168 2.56489C11.7527 2.64242 11.7863 2.72082 11.8174 2.80024ZM17.3965 2.72407C17.3834 2.71498 17.3706 2.70564 17.3574 2.69673C17.3706 2.70564 17.3834 2.71498 17.3965 2.72407ZM17.1113 2.54438C17.1052 2.54096 17.0989 2.538 17.0928 2.53462C17.0989 2.538 17.1052 2.54096 17.1113 2.54438ZM4.07812 2.41841C4.05766 2.45848 4.03774 2.49879 4.01855 2.5395C4.03774 2.49878 4.05766 2.45849 4.07812 2.41841ZM16.8281 2.40278C16.8203 2.39927 16.8126 2.39549 16.8047 2.39204C16.8126 2.39549 16.8203 2.39928 16.8281 2.40278ZM6.02832 2.29927C6.03058 2.29725 6.03387 2.29639 6.03613 2.29438C6.03387 2.2964 6.03058 2.29725 6.02832 2.29927ZM16.5439 2.2895C16.5271 2.28369 16.5101 2.27845 16.4932 2.2729C16.5101 2.27845 16.5271 2.2837 16.5439 2.2895ZM4.23047 2.14595C4.20319 2.19088 4.17598 2.23579 4.15039 2.28169C4.17597 2.23578 4.20319 2.19089 4.23047 2.14595ZM6.87207 1.78462C6.68403 1.85715 6.50329 1.94985 6.33398 2.06294V2.06392C6.39039 2.02622 6.44808 1.99074 6.50684 1.95747C6.62451 1.89081 6.74658 1.83308 6.87207 1.78462ZM16.2412 2.20063C16.2175 2.1948 16.1937 2.18937 16.1699 2.18403C16.1937 2.18936 16.2175 2.19481 16.2412 2.20063ZM15.9248 2.13813C15.9044 2.13508 15.8838 2.13301 15.8633 2.13032C15.8838 2.13301 15.9044 2.13508 15.9248 2.13813ZM4.39941 1.88813C4.36395 1.938 4.32914 1.98822 4.2959 2.0395C4.32914 1.98821 4.36396 1.938 4.39941 1.88813ZM11.3955 1.98872L11.2354 1.76509C11.2303 1.75847 11.2248 1.75214 11.2197 1.74556C11.2809 1.82441 11.3398 1.90537 11.3955 1.98872ZM4.59863 1.63032C4.55097 1.6875 4.50348 1.74469 4.45898 1.80415C4.50348 1.74468 4.55097 1.68751 4.59863 1.63032ZM11.1436 1.65376C11.1079 1.61032 11.0725 1.56677 11.0352 1.52485C11.0725 1.56677 11.1079 1.61032 11.1436 1.65376ZM10.9443 1.4272C10.905 1.38573 10.8651 1.34494 10.8242 1.30513C10.8651 1.34494 10.905 1.38573 10.9443 1.4272ZM5.08105 1.13521C5.00371 1.20211 4.9291 1.27251 4.85645 1.34517C4.92906 1.27255 5.00376 1.20206 5.08105 1.13521ZM10.749 1.23384C10.6996 1.18803 10.6492 1.14343 10.5977 1.10005C10.6492 1.14343 10.6996 1.18803 10.749 1.23384ZM5.29785 0.961377C5.2377 1.0069 5.17887 1.0542 5.12109 1.10298C5.17888 1.05421 5.23769 1.00689 5.29785 0.961377ZM10.5176 1.03364C10.4735 0.998345 10.4283 0.964627 10.3828 0.931104C10.4283 0.964627 10.4735 0.998345 10.5176 1.03364ZM5.54199 0.789502C5.49511 0.82006 5.44901 0.85181 5.40332 0.884229C5.44902 0.851816 5.4951 0.820052 5.54199 0.789502ZM10.2725 0.851025C10.2213 0.815783 10.1689 0.782466 10.1162 0.749463C10.1689 0.782465 10.2213 0.815784 10.2725 0.851025ZM5.7998 0.635205C5.75005 0.662832 5.70096 0.691529 5.65234 0.721143C5.70097 0.69154 5.75005 0.662822 5.7998 0.635205ZM6.08008 0.493604C6.01964 0.521538 5.95942 0.549786 5.90039 0.580518C5.95943 0.5498 6.01964 0.521525 6.08008 0.493604ZM6.34668 0.381299C6.28575 0.404568 6.22477 0.427544 6.16504 0.453564C6.22477 0.427556 6.28574 0.404559 6.34668 0.381299ZM6.46484 0.336377C6.45998 0.338069 6.45505 0.33955 6.4502 0.34126C6.54117 0.30923 6.63332 0.280184 6.72656 0.254346L6.46484 0.336377ZM21.2363 12.4653C21.2111 12.4085 21.1858 12.3519 21.1582 12.2963C21.1857 12.3519 21.2111 12.4085 21.2363 12.4653Z" fill="#1A1E2D"/>
</svg>
