<svg width="20" height="20" viewBox="0 0 20 20" fill="none" xmlns="http://www.w3.org/2000/svg">
<path d="M10.5449 0C10.9766 0 11.3912 0.171493 11.6963 0.477539L15.8018 4.58301C16.1078 4.88812 16.2793 5.30275 16.2793 5.73438V9.06934C16.2793 9.45445 15.9662 9.76758 15.5811 9.76758C15.1961 9.76739 14.8838 9.45434 14.8838 9.06934V6.04688H11.8604C10.961 6.04681 10.2326 5.31827 10.2324 4.41895V1.39551H2.55859C2.24976 1.39551 1.95396 1.51768 1.73535 1.73535C1.51768 1.95396 1.39551 2.24976 1.39551 2.55859V17.4414C1.39551 17.7502 1.51768 18.046 1.73535 18.2646C1.95396 18.4823 2.24976 18.6045 2.55859 18.6045H10C10.3851 18.6045 10.6973 18.9176 10.6973 19.3027C10.697 19.6877 10.385 20 10 20H2.55859C1.88045 20 1.22902 19.73 0.749023 19.251C0.269954 18.771 0 18.1195 0 17.4414V2.55859C0 1.88045 0.269954 1.22902 0.749023 0.749023C1.22902 0.269954 1.88045 0 2.55859 0H10.5449ZM14.5342 10.5547C15.1406 10.4357 15.7637 10.4356 16.3701 10.5547C16.5988 10.5993 16.7905 10.7551 16.8799 10.9707L17.209 11.7666C17.3346 11.8299 17.4571 11.9003 17.5752 11.9766L18.4287 11.8652C18.6594 11.8355 18.8914 11.9228 19.0449 12.0986C19.4504 12.5637 19.762 13.1044 19.9629 13.6885C20.0382 13.9089 19.9978 14.1538 19.8555 14.3389C19.843 14.3552 19.3344 15.0206 19.333 15.0215C19.3404 15.1618 19.3404 15.303 19.333 15.4424L19.8555 16.127C19.9976 16.3119 20.038 16.5561 19.9629 16.7764C19.762 17.3604 19.4504 17.9012 19.0449 18.3662C18.8914 18.542 18.6594 18.6294 18.4287 18.5996C18.4195 18.5984 17.5974 18.4911 17.5762 18.4873C17.458 18.5645 17.3346 18.635 17.21 18.6982L16.8799 19.4941C16.7905 19.7099 16.5989 19.8665 16.3701 19.9111C15.7638 20.0302 15.1405 20.0301 14.5342 19.9111C14.3054 19.8665 14.1138 19.7098 14.0244 19.4941C14.0244 19.4941 13.6937 18.699 13.6943 18.6982C13.5689 18.635 13.4462 18.5645 13.3291 18.4883L12.4756 18.5996C12.244 18.6294 12.0129 18.542 11.8594 18.3662C11.4529 17.9011 11.1414 17.3605 10.9414 16.7764C10.8663 16.5562 10.9059 16.3119 11.0469 16.127L11.5713 15.4434C11.5639 15.3031 11.5639 15.1618 11.5713 15.0225L11.0469 14.3389C10.9055 14.1538 10.8661 13.9089 10.9414 13.6885C11.1414 13.1043 11.4529 12.5637 11.8594 12.0986C12.0129 11.9228 12.244 11.8355 12.4756 11.8652C12.4948 11.8678 13.3147 11.9748 13.3281 11.9775C13.4463 11.9003 13.5688 11.8299 13.6943 11.7666L14.0244 10.9707C14.1138 10.7551 14.3055 10.5993 14.5342 10.5547ZM15.1611 11.873L14.8779 12.5537C14.8072 12.7238 14.6711 12.86 14.5 12.9307C14.2974 13.0144 14.1074 13.124 13.9336 13.2578C13.7877 13.3701 13.6019 13.4196 13.4189 13.3965L12.6885 13.3008C12.5769 13.4607 12.4793 13.629 12.3975 13.8057L12.8447 14.3896C12.9573 14.5366 13.0066 14.723 12.9824 14.9062C12.9536 15.1228 12.9536 15.3421 12.9824 15.5586C13.0066 15.7418 12.9572 15.9282 12.8447 16.0752C12.8447 16.0752 12.4092 16.6439 12.3975 16.6602C12.4793 16.836 12.5768 17.006 12.6885 17.165L13.4189 17.0684C13.6019 17.0453 13.7877 17.0948 13.9336 17.207C14.1075 17.3409 14.2973 17.4514 14.5 17.5352C14.671 17.6058 14.8072 17.7411 14.8779 17.9111L15.1611 18.5918C15.3545 18.6094 15.5498 18.6095 15.7432 18.5918L16.0264 17.9111C16.0971 17.7413 16.2325 17.6058 16.4033 17.5352C16.6052 17.4514 16.7958 17.341 16.9697 17.207C17.1157 17.0945 17.3022 17.0452 17.4854 17.0684L18.2158 17.165C18.3274 17.005 18.425 16.8359 18.5068 16.6592L18.0596 16.0752C17.947 15.9282 17.8977 15.7418 17.9219 15.5586C17.9497 15.3421 17.9497 15.1228 17.9219 14.9062C17.8977 14.723 17.947 14.5366 18.0596 14.3896C18.0668 14.3802 18.502 13.8119 18.5068 13.8047C18.4241 13.629 18.3274 13.4598 18.2158 13.3008L17.4854 13.3965C17.3021 13.4197 17.1157 13.3703 16.9697 13.2578C16.7958 13.1239 16.6051 13.0144 16.4033 12.9307C16.2323 12.86 16.0971 12.7237 16.0264 12.5537L15.7432 11.873C15.5498 11.8563 15.3545 11.8554 15.1611 11.873ZM15.4512 13.8369C16.2218 13.8369 16.8466 14.4619 16.8467 15.2324C16.8467 16.0031 16.2218 16.6279 15.4512 16.6279C14.6807 16.6278 14.0557 16.0029 14.0557 15.2324C14.0557 14.462 14.6807 13.8371 15.4512 13.8369ZM8.60449 14.4189C8.98959 14.4189 9.30271 14.7311 9.30273 15.1162C9.30273 15.5013 8.98961 15.8135 8.60449 15.8135H4.41895C4.03383 15.8135 3.7207 15.5013 3.7207 15.1162C3.72073 14.7311 4.03384 14.4189 4.41895 14.4189H8.60449ZM8.60449 11.1631C8.98957 11.1631 9.30268 11.4753 9.30273 11.8604C9.30273 12.2455 8.98961 12.5586 8.60449 12.5586H4.41895C4.03383 12.5586 3.7207 12.2455 3.7207 11.8604C3.72076 11.4753 4.03386 11.1631 4.41895 11.1631H8.60449ZM11.8604 7.90723C12.2454 7.90723 12.5585 8.21945 12.5586 8.60449C12.5586 8.98961 12.2455 9.30273 11.8604 9.30273H4.41895C4.03383 9.30273 3.7207 8.98961 3.7207 8.60449C3.72079 8.21945 4.03388 7.90723 4.41895 7.90723H11.8604ZM11.6279 4.41895C11.6281 4.54711 11.7322 4.65131 11.8604 4.65137H13.8975L11.6279 2.38086V4.41895Z" fill="#1A1E2D"/>
</svg>
