<svg width="18" height="21" viewBox="0 0 18 21" fill="none" xmlns="http://www.w3.org/2000/svg">
<path d="M15 15.4004C15 13.9644 13.8363 12.8008 12.4004 12.8008C10.9644 12.8008 9.80078 13.9644 9.80078 15.4004C9.80078 16.8363 10.9644 18 12.4004 18C13.1281 18 13.7849 17.7024 14.2578 17.2197C14.7181 16.7499 15 16.109 15 15.4004ZM7.90039 8C8.39745 8 8.80078 8.40333 8.80078 8.90039C8.80078 9.39745 8.39745 9.80078 7.90039 9.80078H4.90039C4.40333 9.80078 4 9.39745 4 8.90039C4 8.40333 4.40333 8 4.90039 8H7.90039ZM14 7.90039V1.90039C14 1.84516 13.9556 1.80078 13.9004 1.80078H1.90039C1.84516 1.80078 1.80078 1.84516 1.80078 1.90039V17.9004C1.80078 17.9556 1.84516 18 1.90039 18H5.40039C5.89745 18 6.30078 18.4033 6.30078 18.9004C6.30078 19.3974 5.89745 19.8008 5.40039 19.8008H1.90039C0.851049 19.8008 0 18.9497 0 17.9004V1.90039C0 0.85105 0.85105 0 1.90039 0H13.9004C14.9497 0 15.8008 0.85105 15.8008 1.90039V7.90039C15.8008 8.39745 15.3974 8.80078 14.9004 8.80078C14.4033 8.80078 14 8.39745 14 7.90039ZM10.9004 4C11.3974 4 11.8008 4.40333 11.8008 4.90039C11.8008 5.39745 11.3974 5.80078 10.9004 5.80078H4.90039C4.40333 5.80078 4 5.39745 4 4.90039C4 4.40333 4.40333 4 4.90039 4H10.9004ZM16.8008 15.4004C16.8008 16.281 16.5394 17.101 16.0938 17.7891L17.0469 18.7744C17.3924 19.1316 17.3833 19.7012 17.0264 20.0469C16.6692 20.3924 16.0995 20.3833 15.7539 20.0264L14.8271 19.0684C14.1314 19.5294 13.2975 19.8008 12.4004 19.8008C9.97034 19.8008 8 17.8304 8 15.4004C8 12.9703 9.97034 11 12.4004 11C14.8304 11 16.8008 12.9703 16.8008 15.4004Z" fill="#1A1E2D"/>
</svg>
