<svg width="23" height="20" viewBox="0 0 23 20" fill="none" xmlns="http://www.w3.org/2000/svg">
<path d="M13.7207 0C14.8421 0 15.7538 0.911847 15.7539 2.0332V5.15625H20.166C21.2874 5.15625 22.1992 6.0681 22.1992 7.18945V14.9238C22.1992 16.0452 21.2874 16.957 20.166 16.957H19.6211V18.791C19.6211 19.3878 18.9559 19.7382 18.4639 19.4102L14.7842 16.957H8.47852C7.35711 16.957 6.44531 16.0452 6.44531 14.9238V12.4473L3.73535 14.2539C3.24399 14.5814 2.57812 14.2315 2.57812 13.6348V11.8008H2.0332C0.911791 11.8008 0 10.889 0 9.76758V2.0332C6.81694e-05 0.911848 0.911833 2.06895e-06 2.0332 0H13.7207ZM15.7539 9.76758C15.7539 10.889 14.8421 11.8008 13.7207 11.8008H7.93359V14.9238C7.93359 15.224 8.17836 15.4687 8.47852 15.4688H15.0098C15.1567 15.4688 15.3005 15.5122 15.4229 15.5938L18.1328 17.4004V16.2129C18.1329 15.8018 18.4658 15.4688 18.877 15.4688H20.166C20.4662 15.4688 20.7109 15.224 20.7109 14.9238V7.18945C20.7109 6.88935 20.4661 6.64453 20.166 6.64453H15.7539V9.76758ZM2.0332 1.48828C1.73308 1.48828 1.48835 1.7331 1.48828 2.0332V9.76758C1.48828 10.0677 1.73304 10.3125 2.0332 10.3125H3.32227C3.7334 10.3125 4.06633 10.6455 4.06641 11.0566V12.2432L6.77246 10.4395L6.77441 10.4385C6.89665 10.3565 7.04504 10.3125 7.18945 10.3125H13.7207C14.0209 10.3125 14.2656 10.0677 14.2656 9.76758V2.0332C14.2656 1.73309 14.0208 1.48828 13.7207 1.48828H2.0332ZM8.09961 6.44531C8.51079 6.44531 8.84375 6.77827 8.84375 7.18945C8.84375 7.60064 8.51079 7.93359 8.09961 7.93359H4.32227C3.91108 7.93359 3.57812 7.60064 3.57812 7.18945C3.57813 6.77827 3.91108 6.44531 4.32227 6.44531H8.09961ZM11.4316 3.86719C11.8428 3.86719 12.1758 4.20015 12.1758 4.61133C12.1758 5.02251 11.8428 5.35547 11.4316 5.35547H4.32227C3.91108 5.35547 3.57812 5.02251 3.57812 4.61133C3.57813 4.20015 3.91108 3.86719 4.32227 3.86719H11.4316Z" fill="#1A1E2D"/>
</svg>
