<svg width="18" height="18" viewBox="0 0 18 18" fill="none" xmlns="http://www.w3.org/2000/svg">
<path d="M15.2012 0C15.4676 -6.85437e-07 15.7161 -0.000275121 15.9229 0.0166016C16.0829 0.0296903 16.2567 0.0544827 16.4326 0.116211V0.117188L16.6182 0.196289L16.7441 0.268555C17.025 0.441437 17.2548 0.688186 17.4053 0.983398C17.5266 1.22172 17.5673 1.46276 17.585 1.67871C17.6018 1.88547 17.6016 2.13392 17.6016 2.40039V15.2012C17.6016 15.4676 17.6018 15.7161 17.585 15.9229C17.5673 16.1388 17.5266 16.3798 17.4053 16.6182C17.2327 16.9566 16.9566 17.2327 16.6182 17.4053C16.3798 17.5266 16.1388 17.5673 15.9229 17.585C15.7161 17.6018 15.4676 17.6016 15.2012 17.6016H2.40039C2.13392 17.6016 1.88547 17.6018 1.67871 17.585C1.46276 17.5673 1.22172 17.5266 0.983398 17.4053C0.644938 17.2327 0.368819 16.9566 0.196289 16.6182C0.0749452 16.3798 0.0342665 16.1388 0.0166016 15.9229C-0.000275337 15.7161 -6.92888e-07 15.4676 0 15.2012V2.40039C-6.99552e-07 2.13392 -0.000275991 1.88547 0.0166016 1.67871C0.0341588 1.46409 0.0747239 1.22516 0.194336 0.988281L0.268555 0.857422L0.267578 0.856445C0.439467 0.577359 0.685632 0.349693 0.978516 0.199219L1.16895 0.117188L1.16797 0.116211C1.34419 0.0542589 1.51843 0.0297128 1.67871 0.0166016C1.88547 -0.000275999 2.13392 -6.99552e-07 2.40039 0H15.2012ZM1.60156 7.60156V15.2012C1.60156 15.4931 1.60102 15.6653 1.61133 15.792C1.61467 15.8328 1.61985 15.8609 1.62207 15.874L1.62598 15.8965L1.63867 15.915C1.65203 15.9339 1.66817 15.949 1.68457 15.9609L1.70312 15.9746L1.72656 15.9785C1.73656 15.9803 1.76735 15.9868 1.80957 15.9902C1.93622 16.0005 2.10841 16 2.40039 16H8V7.60156H1.60156ZM9.60156 11.6016V16H15.2012C15.4931 16 15.6653 16.0005 15.792 15.9902C15.8336 15.9868 15.8652 15.98 15.874 15.9785L15.8965 15.9746L15.916 15.9609C15.9336 15.9483 15.9483 15.9335 15.9609 15.916L15.9746 15.8965L15.9785 15.874C15.98 15.8652 15.9868 15.8336 15.9902 15.792C16.0005 15.6653 16 15.4931 16 15.2012V11.6016H9.60156ZM9.60156 1.60156V10H16V2.40039C16 2.10841 16.0005 1.93622 15.9902 1.80957C15.9868 1.76735 15.9803 1.73656 15.9785 1.72656L15.9746 1.70312L15.9609 1.68457L15.915 1.63867L15.8965 1.62598L15.874 1.62207C15.8609 1.61985 15.8328 1.61466 15.792 1.61133C15.6653 1.60102 15.4931 1.60156 15.2012 1.60156H9.60156ZM2.40039 1.60156C2.10841 1.60156 1.93622 1.60101 1.80957 1.61133C1.76828 1.6147 1.74046 1.61969 1.72656 1.62207L1.70312 1.62598L1.68457 1.63965C1.66717 1.6522 1.6522 1.66717 1.63965 1.68457L1.62598 1.70312L1.62207 1.72656C1.61969 1.74046 1.6147 1.76828 1.61133 1.80957C1.60101 1.93622 1.60156 2.10841 1.60156 2.40039V6H8V1.60156H2.40039Z" fill="#1A1E2D"/>
</svg>
