<svg width="17" height="17" viewBox="0 0 17 17" fill="none" xmlns="http://www.w3.org/2000/svg">
<path d="M15 8.33333C15 4.65143 12.0152 1.66667 8.33333 1.66667C4.65143 1.66667 1.66667 4.65143 1.66667 8.33333C1.66667 12.0152 4.65143 15 8.33333 15C12.0152 15 15 12.0152 15 8.33333ZM7.5 5C7.5 4.53976 7.8731 4.16667 8.33333 4.16667C8.79357 4.16667 9.16667 4.53976 9.16667 5V7.98828L11.0059 9.82747C11.3313 10.1529 11.3313 10.6804 11.0059 11.0059C10.6804 11.3313 10.1529 11.3313 9.82747 11.0059L7.74414 8.92253C7.58786 8.76625 7.5 8.55435 7.5 8.33333V5ZM16.6667 8.33333C16.6667 12.9357 12.9357 16.6667 8.33333 16.6667C3.73096 16.6667 0 12.9357 0 8.33333C0 3.73096 3.73096 0 8.33333 0C12.9357 0 16.6667 3.73096 16.6667 8.33333Z" fill="#F86C1D"/>
</svg>
