<svg width="14" height="11" viewBox="0 0 14 11" fill="none" xmlns="http://www.w3.org/2000/svg">
<path fill-rule="evenodd" clip-rule="evenodd" d="M0.666667 0C1.03486 0 1.33333 0.298477 1.33333 0.666667V9.33333H12.6667C13.0349 9.33333 13.3333 9.63181 13.3333 10C13.3333 10.3682 13.0349 10.6667 12.6667 10.6667H1.33333C0.596954 10.6667 0 10.0697 0 9.33333V0.666667C0 0.298477 0.298477 0 0.666667 0ZM8.66667 2.66667C8.29848 2.66667 8 2.36819 8 2C8 1.63181 8.29848 1.33333 8.66667 1.33333H11.3333C11.7015 1.33333 12 1.63181 12 2V4.66667C12 5.03486 11.7015 5.33333 11.3333 5.33333C10.9651 5.33333 10.6667 5.03486 10.6667 4.66667V3.60948L8.27614 6C7.75544 6.5207 6.91123 6.5207 6.39053 6L6 5.60948L3.80474 7.80474C3.54439 8.06509 3.12228 8.06509 2.86193 7.80474C2.60158 7.54439 2.60158 7.12228 2.86193 6.86193L5.05719 4.66667C5.57789 4.14597 6.42211 4.14597 6.94281 4.66667L7.33333 5.05719L9.72386 2.66667H8.66667Z" fill="#2C80F9"/>
</svg>
