<svg width="20" height="20" viewBox="0 0 20 20" fill="none" xmlns="http://www.w3.org/2000/svg">
<path d="M15.9472 0.276393C15.763 -0.092131 15.237 -0.0921311 15.0528 0.276393L14.0745 2.2329C14.0262 2.32966 13.9477 2.40812 13.8509 2.4565L11.8944 3.43475C11.5259 3.61901 11.5259 4.14492 11.8944 4.32918L13.8509 5.30743C13.9477 5.35581 14.0262 5.43427 14.0745 5.53104L15.0528 7.48754C15.237 7.85606 15.763 7.85606 15.9472 7.48754L16.9255 5.53104C16.9738 5.43427 17.0523 5.35581 17.1491 5.30743L19.1056 4.32918C19.4741 4.14492 19.4741 3.61901 19.1056 3.43475L17.1491 2.4565C17.0523 2.40812 16.9738 2.32966 16.9255 2.2329L15.9472 0.276393Z" fill="#1A1E2D"/>
<path fill-rule="evenodd" clip-rule="evenodd" d="M2 4.38197C2 3.82968 2.44772 3.38197 3 3.38197H8C8.55228 3.38197 9 2.93425 9 2.38197C9 1.82968 8.55228 1.38197 8 1.38197H3C1.34315 1.38197 0 2.72511 0 4.38197V16.382C0 18.0388 1.34315 19.382 3 19.382H15C16.6569 19.382 18 18.0388 18 16.382V11.382C18 10.8297 17.5523 10.382 17 10.382C16.4477 10.382 16 10.8297 16 11.382V16.382C16 16.9342 15.5523 17.382 15 17.382H13.9C13.4367 15.0997 11.419 13.382 9 13.382C6.58104 13.382 4.56329 15.0997 4.10002 17.382H3C2.44772 17.382 2 16.9342 2 16.382V4.38197Z" fill="#1A1E2D"/>
<path d="M9 5.88184C7.34315 5.88184 6 7.22498 6 8.88184C6 10.5387 7.34315 11.8818 9 11.8818C10.6569 11.8818 12 10.5387 12 8.88184C12 7.22498 10.6569 5.88184 9 5.88184Z" fill="#1A1E2D"/>
</svg>
