<svg width="20" height="20" viewBox="0 0 20 20" fill="none" xmlns="http://www.w3.org/2000/svg">
<path d="M10.0004 3.41638C13.1373 3.41636 16.1991 5.15405 18.3199 8.47335C18.9137 9.40289 18.9137 10.5972 18.3199 11.5267C16.1991 14.846 13.1373 16.5837 10.0004 16.5837C6.8637 16.5836 3.80249 14.8459 1.68174 11.5267C1.08787 10.5971 1.08784 9.40293 1.68174 8.47335C3.80249 5.15415 6.86369 3.41651 10.0004 3.41638ZM10.0004 4.91703C7.45658 4.91716 4.83736 6.31984 2.94557 9.28064C2.66623 9.71784 2.66623 10.2822 2.94557 10.7194C4.83736 13.6803 7.45657 15.083 10.0004 15.083C12.5444 15.083 15.1642 13.6804 17.0561 10.7194C17.3354 10.2823 17.3354 9.71781 17.0561 9.28064C15.1642 6.31969 12.5444 4.91701 10.0004 4.91703ZM11.7509 10C11.7509 9.03354 10.9669 8.25037 10.0004 8.25037C9.03406 8.25052 8.25075 9.03364 8.25075 10C8.25075 10.9664 9.03406 11.7496 10.0004 11.7497C10.9669 11.7497 11.7509 10.9665 11.7509 10ZM13.2507 10C13.2507 11.795 11.7953 13.2504 10.0004 13.2504C8.20563 13.2502 6.75091 11.7949 6.75091 10C6.75091 8.20521 8.20563 6.74987 10.0004 6.74972C11.7953 6.74972 13.2507 8.20512 13.2507 10Z" fill="#4B5375"/>
</svg>
