<svg width="15" height="12" viewBox="0 0 15 12" fill="none" xmlns="http://www.w3.org/2000/svg">
<path d="M4.52604 6C6.60717 6.00008 8.55783 7.58053 9.03451 10.4557C9.16408 11.2382 8.53067 11.8672 7.81055 11.8672H1.24089C0.520916 11.867 -0.112593 11.2381 0.0169282 10.4557L0.0664074 10.1895C0.616255 7.48292 2.50997 6 4.52604 6ZM9.72396 6.09245C11.7749 5.61765 13.9439 6.97329 14.4577 9.7819C14.603 10.5763 13.9543 11.2005 13.2409 11.2005H11.1927C10.8613 11.2005 10.5924 10.9316 10.5924 10.6003C10.5924 10.2689 10.8613 10 11.1927 10H13.2409C13.2581 10 13.2692 9.99386 13.2754 9.98893C12.8619 7.74964 11.2718 6.96561 9.99479 7.26107C9.67196 7.33581 9.34948 7.13468 9.27474 6.81185C9.20014 6.48909 9.4012 6.16717 9.72396 6.09245ZM4.52604 7.20052C3.12771 7.20052 1.59872 8.25547 1.20117 10.6504C1.20149 10.6508 1.202 10.6512 1.20248 10.6517C1.20869 10.6586 1.22146 10.6666 1.24089 10.6667H7.81055C7.83015 10.6667 7.84336 10.6586 7.84961 10.6517L7.85026 10.6504C7.45271 8.2556 5.92432 7.2006 4.52604 7.20052ZM5.92578 2.60026C5.92578 1.82711 5.29917 1.20061 4.52604 1.20052C3.75284 1.20052 3.12565 1.82706 3.12565 2.60026C3.12565 3.37346 3.75284 4 4.52604 4C5.29917 3.99992 5.92578 3.37341 5.92578 2.60026ZM11.5924 2.93359C11.5924 2.34454 11.1151 1.86727 10.526 1.86719C9.93694 1.86719 9.45899 2.34449 9.45899 2.93359C9.45899 3.5227 9.93694 4 10.526 4C11.1151 3.99991 11.5924 3.52264 11.5924 2.93359ZM12.7923 2.93359C12.7923 4.18539 11.7778 5.20044 10.526 5.20052C9.2742 5.20052 8.25912 4.18544 8.25912 2.93359C8.25912 1.68175 9.2742 0.666667 10.526 0.666667C11.7778 0.666752 12.7923 1.6818 12.7923 2.93359ZM7.12565 2.60026C7.12565 4.03615 5.96191 5.20044 4.52604 5.20052C3.0901 5.20052 1.92578 4.0362 1.92578 2.60026C1.92578 1.16432 3.0901 0 4.52604 0C5.96191 8.50298e-05 7.12565 1.16437 7.12565 2.60026Z" fill="#4B5375"/>
</svg>
