<svg width="15" height="9" viewBox="0 0 15 9" fill="none" xmlns="http://www.w3.org/2000/svg">
<path d="M12.3643 0.421631C12.7388 0.0159404 13.3715 -0.00930584 13.7773 0.36499C14.1829 0.739504 14.2082 1.37229 13.834 1.77808L8.62988 7.42065C7.79458 8.32628 6.40372 8.32619 5.56836 7.42065L0.364258 1.77808C-0.0100382 1.37226 0.015208 0.739512 0.420898 0.36499C0.826715 -0.00922854 1.45949 0.0159672 1.83398 0.421631L7.03906 6.06421C7.05579 6.08228 7.06923 6.09058 7.07812 6.09448C7.08685 6.09831 7.09368 6.09933 7.09863 6.09937C7.1036 6.09937 7.11122 6.09839 7.12012 6.09448C7.12905 6.0905 7.14257 6.08219 7.15918 6.06421L12.3643 0.421631Z" fill="#1A1E2D" stroke="#1A1E2D" stroke-width="0.2" stroke-linecap="round" stroke-linejoin="round"/>
</svg>
