<svg width="15" height="12" viewBox="0 0 15 12" fill="none" xmlns="http://www.w3.org/2000/svg">
<path d="M12 3.93359C12 3.89678 11.9704 3.86719 11.9336 3.86719H9.20052V10H12V3.93359ZM5.93359 6C6.26496 6 6.53385 6.26889 6.53385 6.60026C6.53385 6.93163 6.26496 7.20052 5.93359 7.20052H4.60026C4.26889 7.20052 4 6.93163 4 6.60026C4 6.26889 4.26889 6 4.60026 6H5.93359ZM5.93359 3.33333C6.26496 3.33333 6.53385 3.60222 6.53385 3.93359C6.53385 4.26497 6.26496 4.53385 5.93359 4.53385H4.60026C4.26889 4.53385 4 4.26497 4 3.93359C4 3.60222 4.26889 3.33333 4.60026 3.33333H5.93359ZM8 1.26693C8 1.23011 7.97041 1.20052 7.93359 1.20052H2.60026C2.56344 1.20052 2.53385 1.23011 2.53385 1.26693V10H8V1.26693ZM9.20052 2.66667H11.9336C12.6332 2.66667 13.2005 3.23403 13.2005 3.93359V10H13.9336C14.265 10 14.5339 10.2689 14.5339 10.6003C14.5339 10.9316 14.265 11.2005 13.9336 11.2005H0.60026C0.26889 11.2005 0 10.9316 0 10.6003C0 10.2689 0.26889 10 0.60026 10H1.33333V1.26693C1.33333 0.567366 1.9007 8.58834e-08 2.60026 0H7.93359C8.63316 0 9.20052 0.567367 9.20052 1.26693V2.66667Z" fill="#4B5375"/>
</svg>
