<svg width="48" height="48" viewBox="0 0 48 48" fill="none" xmlns="http://www.w3.org/2000/svg">
<path d="M0 24C0 10.7452 10.7452 0 24 0C37.2548 0 48 10.7452 48 24C48 37.2548 37.2548 48 24 48C10.7452 48 0 37.2548 0 24Z" fill="#57A4E8"/>
<path d="M27.0184 16.1514H29.2984V25.6657H27.0184V16.1514ZM28.6812 19.9914H31.4069V21.86H28.6812V19.9914ZM18.7041 26.3686H29.2984V32.0257H27.0184V28.1686H18.7041V26.3686ZM17.2641 17.1286H19.5269V19.2371H22.6469V17.1286H24.8927V24.86H17.2641V17.1286ZM19.5269 20.9857V23.0771H22.6469V20.9857H19.5269Z" fill="white"/>
</svg>
