<svg width="64" height="64" viewBox="0 0 64 64" fill="none" xmlns="http://www.w3.org/2000/svg">
<path d="M0 32C0 14.3269 14.3269 0 32 0C49.6731 0 64 14.3269 64 32C64 49.6731 49.6731 64 32 64C14.3269 64 0 49.6731 0 32Z" fill="#FEF2F2"/>
<path d="M41.9227 42.0376H22.0772C21.3278 42.0376 20.656 41.6505 20.2802 41.0021C19.9121 40.367 19.9064 39.6178 20.2647 38.9465L30.1876 20.3589C30.5429 19.6933 31.2204 19.2959 32 19.2959C32.7795 19.2959 33.4571 19.6933 33.8124 20.3589L43.7352 38.9464C44.0936 39.6177 44.0879 40.367 43.7198 41.0021C43.344 41.6505 42.6722 42.0376 41.9227 42.0376Z" fill="#FF4C04"/>
<path d="M43.7353 38.9464L33.8125 20.3589C33.4571 19.6933 32.7796 19.2959 32 19.2959V42.0376H41.9228C42.6723 42.0376 43.3441 41.6505 43.7198 41.0021C44.0879 40.367 44.0936 39.6177 43.7353 38.9464Z" fill="#FF4C04"/>
<path d="M31.9988 38.9903C30.9645 38.9903 30.123 38.1488 30.123 37.1145C30.123 36.0802 30.9645 35.2388 31.9988 35.2388C33.0331 35.2388 33.8746 36.0802 33.8746 37.1145C33.8746 38.1488 33.0331 38.9903 31.9988 38.9903Z" fill="#FFF3F3"/>
<path d="M31.9989 33.3631C30.9645 33.3631 30.123 32.5216 30.123 31.4873V27.4309C30.123 26.3966 30.9645 25.5552 31.9988 25.5552C33.0331 25.5552 33.8746 26.3966 33.8746 27.4309V31.4873C33.8746 32.5216 33.0332 33.3631 31.9989 33.3631Z" fill="#FFF3F3"/>
<path d="M32 25.5552H32V33.3631H32.0001C33.0344 33.3631 33.8758 32.5216 33.8758 31.4873V27.4309C33.8758 26.3967 33.0343 25.5552 32 25.5552Z" fill="#FFF3F3"/>
<path d="M32 35.2388H32V38.9903H32C33.0343 38.9903 33.8758 38.1488 33.8758 37.1145C33.8758 36.0802 33.0343 35.2388 32 35.2388Z" fill="#FFF3F3"/>
</svg>
