<svg width="14" height="14" viewBox="0 0 14 14" fill="none" xmlns="http://www.w3.org/2000/svg">
<path fill-rule="evenodd" clip-rule="evenodd" d="M11.9354 0.268427C12.2934 -0.0893962 12.8744 -0.0895012 13.2323 0.268427C13.59 0.626373 13.59 1.20738 13.2323 1.5653L8.04772 6.74987L13.2323 11.9354C13.5899 12.2934 13.5901 12.8744 13.2323 13.2323C12.8744 13.5901 12.2934 13.5899 11.9354 13.2323L6.74987 8.04772L1.5653 13.2323C1.20738 13.59 0.626365 13.59 0.268424 13.2323C-0.0894989 12.8744 -0.089384 12.2934 0.268424 11.9354L5.45299 6.74987L0.268424 1.5653C-0.0894402 1.20732 -0.0895092 0.62637 0.268424 0.268427C0.626367 -0.0895119 1.20731 -0.0894393 1.5653 0.268427L6.74987 5.453L11.9354 0.268427Z" fill="#1A1E2D"/>
</svg>
