<svg width="20" height="20" viewBox="0 0 20 20" fill="none" xmlns="http://www.w3.org/2000/svg">
<path d="M14.2487 9.16667C14.2487 6.35922 11.9731 4.08366 9.16569 4.08366C6.35824 4.08366 4.08268 6.35922 4.08268 9.16667C4.08268 11.9741 6.35824 14.2497 9.16569 14.2497C11.9731 14.2497 14.2487 11.9741 14.2487 9.16667ZM15.7493 9.16667C15.7493 10.7141 15.2132 12.1354 14.3195 13.2593L17.1963 16.1361C17.4892 16.429 17.4892 16.9044 17.1963 17.1973C16.9034 17.4902 16.428 17.4901 16.1351 17.1973L13.2583 14.3205C12.1344 15.2141 10.7132 15.7503 9.16569 15.7503C5.52982 15.7503 2.58203 12.8025 2.58203 9.16667C2.58203 5.53079 5.52982 2.58301 9.16569 2.58301C12.8016 2.58301 15.7493 5.53079 15.7493 9.16667Z" fill="#4B5375"/>
</svg>
