<svg width="24" height="24" viewBox="0 0 24 24" fill="none" xmlns="http://www.w3.org/2000/svg">
<path d="M4.09961 19V5C4.09961 3.39837 5.39837 2.09961 7 2.09961H12.1719C12.9409 2.09969 13.6789 2.40544 14.2227 2.94922L19.0508 7.77734C19.5946 8.32113 19.9003 9.05911 19.9004 9.82812V19C19.9004 20.6016 18.6016 21.9004 17 21.9004H7C5.39837 21.9004 4.09961 20.6016 4.09961 19ZM15.5 16.0996C15.9971 16.0996 16.4004 16.5029 16.4004 17C16.4004 17.4971 15.9971 17.9004 15.5 17.9004H9C8.50294 17.9004 8.09961 17.4971 8.09961 17C8.09961 16.5029 8.50294 16.0996 9 16.0996H15.5ZM12 12.0996C12.4971 12.0996 12.9004 12.5029 12.9004 13C12.9004 13.4971 12.4971 13.9004 12 13.9004H9C8.50294 13.9004 8.09961 13.4971 8.09961 13C8.09961 12.5029 8.50294 12.0996 9 12.0996H12ZM13.9004 7C13.9004 7.60751 14.3925 8.09961 15 8.09961H16.8262L13.9004 5.17383V7ZM5.90039 19C5.90039 19.6075 6.39249 20.0996 7 20.0996H17C17.6075 20.0996 18.0996 19.6075 18.0996 19V9.90039H15C13.3984 9.90039 12.0996 8.60163 12.0996 7V3.90039H7C6.39249 3.90039 5.90039 4.39249 5.90039 5V19Z" fill="#1A1E2D"/>
</svg>
