<svg width="21" height="21" viewBox="0 0 21 21" fill="none" xmlns="http://www.w3.org/2000/svg">
<path d="M11.1768 0C13.0105 0 14.502 1.49156 14.502 3.3252V4.8877C14.502 5.42955 14.0633 5.86893 13.5215 5.86914C12.9795 5.86914 12.54 5.42968 12.54 4.8877V3.3252C12.54 2.57415 11.9279 1.96289 11.1768 1.96289H3.3252C2.57416 1.96297 1.96289 2.5742 1.96289 3.3252V17.0752C1.96289 17.8262 2.57416 18.4374 3.3252 18.4375H11.1768C11.9279 18.4375 12.54 17.8262 12.54 17.0752V15.5127C12.54 14.9707 12.9795 14.5312 13.5215 14.5312C14.0633 14.5315 14.502 14.9708 14.502 15.5127V17.0752C14.502 18.9088 13.0105 20.4004 11.1768 20.4004H3.3252C1.49156 20.4003 0 18.9088 0 17.0752V3.3252C0 1.4916 1.49156 7.43247e-05 3.3252 0H11.1768ZM11.4414 20.1875C11.4571 20.1862 11.4727 20.1851 11.4883 20.1836C11.4727 20.1851 11.4571 20.1862 11.4414 20.1875ZM11.7725 20.1426C11.7793 20.1413 11.7861 20.14 11.793 20.1387C11.7861 20.14 11.7793 20.1413 11.7725 20.1426ZM12.0537 20.0732C12.0647 20.07 12.076 20.0678 12.0869 20.0645C12.076 20.0678 12.0647 20.07 12.0537 20.0732ZM12.3438 19.9727C12.3512 19.9696 12.3588 19.9669 12.3662 19.9639C12.3588 19.9669 12.3512 19.9696 12.3438 19.9727ZM12.4932 19.9053C12.5441 19.8815 12.5951 19.8584 12.6445 19.832C12.5951 19.8584 12.5441 19.8815 12.4932 19.9053ZM12.7676 19.7598C12.8105 19.7343 12.854 19.7101 12.8955 19.6826C12.854 19.7101 12.8105 19.7343 12.7676 19.7598ZM13.0186 19.5938C13.0586 19.5644 13.0992 19.536 13.1377 19.5049C13.0992 19.536 13.0586 19.5644 13.0186 19.5938ZM13.249 19.4072C13.2854 19.3749 13.3226 19.3436 13.3574 19.3096C13.3226 19.3436 13.2854 19.3749 13.249 19.4072ZM13.46 19.2021C13.4938 19.1659 13.5275 19.1296 13.5596 19.0918C13.5275 19.1296 13.4938 19.1659 13.46 19.2021ZM13.6445 18.9844C13.6769 18.9426 13.709 18.9008 13.7393 18.8574C13.709 18.9008 13.6769 18.9426 13.6445 18.9844ZM13.8232 18.7295C13.8482 18.6898 13.8733 18.6503 13.8965 18.6094C13.8733 18.6503 13.8482 18.6898 13.8232 18.7295ZM13.9688 18.4697C13.9895 18.4284 14.0104 18.3871 14.0293 18.3447C14.0104 18.3871 13.9895 18.4284 13.9688 18.4697ZM12.6943 17.4424C12.6986 17.4248 12.7043 17.4075 12.708 17.3896L12.71 17.3799C12.7058 17.401 12.6994 17.4216 12.6943 17.4424ZM14.2842 15.3486C14.2867 15.3602 14.2881 15.372 14.29 15.3838C14.2881 15.372 14.2867 15.3602 14.2842 15.3486ZM14.2168 15.1641C14.2034 15.1373 14.1901 15.1108 14.1738 15.0859C14.1901 15.1108 14.2034 15.1373 14.2168 15.1641ZM14.1426 15.0439C14.1239 15.0193 14.1053 14.9949 14.084 14.9727C14.1053 14.9949 14.124 15.0193 14.1426 15.0439ZM14.0381 14.9307C14.0173 14.9122 13.9963 14.8941 13.9736 14.8779C13.9963 14.8941 14.0173 14.9122 14.0381 14.9307ZM13.9258 14.8477C13.8994 14.8316 13.873 14.8157 13.8447 14.8027C13.873 14.8157 13.8994 14.8316 13.9258 14.8477ZM13.7461 14.7646C13.7431 14.7638 13.7403 14.7626 13.7373 14.7617C13.7403 14.7626 13.7431 14.7638 13.7461 14.7646ZM16.6328 6.96777C17.016 6.58443 17.6372 6.58452 18.0205 6.96777L19.7705 8.7168C20.6101 9.55645 20.6101 10.9221 19.7705 11.7617L18.0205 13.5107C17.829 13.7023 17.578 13.7988 17.3271 13.7988C17.0763 13.7988 16.8244 13.7023 16.6328 13.5107C16.25 13.1277 16.25 12.5071 16.6328 12.124L17.5361 11.2207H8.6377C8.09588 11.2205 7.65723 10.7811 7.65723 10.2393C7.65723 9.6974 8.09588 9.25801 8.6377 9.25781H17.5361L16.6328 8.35449C16.25 7.97146 16.25 7.35081 16.6328 6.96777ZM17.0449 13.5439C17.0884 13.5607 17.1324 13.5752 17.1777 13.584C17.1324 13.5752 17.0884 13.5608 17.0449 13.5439ZM17.3271 13.5986C17.3753 13.5986 17.4232 13.5928 17.4707 13.584C17.4232 13.5928 17.3753 13.5986 17.3271 13.5986ZM17.5 13.5762C17.5361 13.568 17.5716 13.5582 17.6064 13.5449C17.5716 13.5583 17.5361 13.568 17.5 13.5762ZM17.6992 13.5029C17.7055 13.4995 17.7116 13.4958 17.7178 13.4922C17.7116 13.4958 17.7055 13.4995 17.6992 13.5029ZM16.8584 13.4414C16.8633 13.4451 16.8681 13.4486 16.873 13.4521C16.8681 13.4486 16.8633 13.4451 16.8584 13.4414ZM16.6748 13.2471C16.6891 13.2687 16.704 13.2901 16.7207 13.3105C16.704 13.2901 16.6891 13.2687 16.6748 13.2471ZM19.8281 11.3828C19.8414 11.3645 19.8556 11.3468 19.8682 11.3281C19.8556 11.3468 19.8414 11.3645 19.8281 11.3828ZM19.9463 11.2012C19.9531 11.1891 19.9602 11.1772 19.9668 11.165C19.9602 11.1772 19.9531 11.1891 19.9463 11.2012ZM20.0068 11.083C20.0207 11.0541 20.0346 11.0255 20.0469 10.9961C20.0346 11.0255 20.0207 11.0541 20.0068 11.083ZM20.0781 10.9131C20.0889 10.8838 20.1001 10.8549 20.1094 10.8252C20.1001 10.8549 20.0889 10.8838 20.0781 10.9131ZM8.08496 10.792H8.08594H8.08496ZM20.1338 10.7344C20.1415 10.7048 20.149 10.6753 20.1553 10.6455C20.149 10.6753 20.1415 10.7048 20.1338 10.7344ZM20.1709 10.5645C20.1764 10.5316 20.1817 10.4988 20.1855 10.4658C20.1817 10.4989 20.1764 10.5316 20.1709 10.5645ZM7.87207 10.3965H7.87305H7.87207ZM20.1934 10.3828C20.1959 10.3486 20.1975 10.3145 20.1982 10.2803C20.1975 10.3145 20.1959 10.3486 20.1934 10.3828ZM20.1982 10.1973C20.1974 10.1588 20.1954 10.1204 20.1924 10.082C20.1955 10.1204 20.1974 10.1588 20.1982 10.1973ZM20.1865 10.0205C20.1821 9.98092 20.1758 9.94165 20.1689 9.90234C20.1758 9.94165 20.1821 9.98092 20.1865 10.0205ZM20.1592 9.8457C20.1522 9.81159 20.1436 9.77791 20.1348 9.74414C20.1436 9.77791 20.1522 9.81159 20.1592 9.8457ZM20.1094 9.65137C20.1018 9.62731 20.0925 9.60388 20.084 9.58008C20.0925 9.60388 20.1018 9.62731 20.1094 9.65137ZM20.0479 9.48242C20.0327 9.44636 20.0154 9.41125 19.998 9.37598C20.0154 9.41125 20.0327 9.44636 20.0479 9.48242ZM8.55762 9.46191H8.55859H8.55762ZM19.877 9.16113C19.8417 9.10795 19.8037 9.0561 19.7627 9.00586C19.8037 9.0561 19.8417 9.10796 19.877 9.16113ZM16.6738 8.09082H16.6748H16.6738ZM17.4766 6.89355C17.5748 6.91261 17.6704 6.95079 17.7568 7.00781C17.6703 6.95081 17.5749 6.91259 17.4766 6.89355ZM13.6602 5.65527C13.6641 5.65457 13.668 5.65408 13.6719 5.65332C13.668 5.65408 13.6641 5.65457 13.6602 5.65527ZM13.2988 5.63574C13.3059 5.63785 13.3131 5.63969 13.3203 5.6416C13.3131 5.63969 13.3059 5.63785 13.2988 5.63574ZM13.8027 5.61523C13.8051 5.61434 13.8073 5.61322 13.8096 5.6123C13.8073 5.61322 13.8051 5.61434 13.8027 5.61523ZM13.1113 5.5498C13.14 5.56763 13.1692 5.58459 13.2002 5.59863C13.1692 5.5846 13.14 5.56761 13.1113 5.5498ZM13.874 5.58105C13.8991 5.56826 13.9238 5.55537 13.9473 5.54004C13.9238 5.55538 13.8991 5.56825 13.874 5.58105ZM12.8779 5.33008C12.9319 5.40849 12.9998 5.47615 13.0781 5.53027C12.9998 5.47618 12.9319 5.40846 12.8779 5.33008ZM13.9893 5.50781C14.0138 5.4893 14.0384 5.47141 14.0605 5.4502C14.0384 5.47142 14.0138 5.48929 13.9893 5.50781ZM14.1006 5.40527C14.1196 5.38401 14.1386 5.36311 14.1553 5.33984C14.1387 5.36311 14.1196 5.384 14.1006 5.40527ZM14.1855 5.29199C14.2018 5.26535 14.2174 5.23858 14.2305 5.20996C14.2174 5.23858 14.2018 5.26535 14.1855 5.29199ZM12.8105 5.20996C12.8226 5.23654 12.8377 5.26124 12.8525 5.28613C12.8377 5.26124 12.8226 5.23654 12.8105 5.20996ZM14.2676 5.11621C14.2697 5.10941 14.2715 5.10258 14.2734 5.0957C14.2715 5.10258 14.2697 5.10942 14.2676 5.11621ZM12.7666 5.08496C12.7687 5.09308 12.7701 5.10136 12.7725 5.10938C12.7701 5.10136 12.7687 5.09308 12.7666 5.08496ZM14.2988 3.16504C14.3015 3.21808 14.3027 3.2715 14.3027 3.3252C14.3027 3.27149 14.3015 3.21809 14.2988 3.16504ZM12.6543 17.5811C12.6611 17.5613 12.6678 17.5416 12.6738 17.5215C12.6678 17.5416 12.6611 17.5613 12.6543 17.5811ZM19.9727 9.32227C19.9497 9.279 19.9239 9.2371 19.8975 9.19531C19.9239 9.23709 19.9497 9.279 19.9727 9.32227Z" fill="#4B5375"/>
</svg>
