<svg width="18" height="18" viewBox="0 0 18 18" fill="none" xmlns="http://www.w3.org/2000/svg">
<path d="M1.34977e-06 15.444V3.7985C1.20761e-06 3.5586 -0.000456566 3.32445 0.0156264 3.1276C0.0325652 2.92035 0.0724346 2.67648 0.197267 2.43131L0.267579 2.30631C0.441408 2.02295 0.69048 1.7921 0.988283 1.64029L1.17188 1.56119C1.35366 1.49647 1.53006 1.47136 1.68555 1.45865C1.88236 1.44259 2.11663 1.44303 2.35645 1.44303H7.26953C7.76629 1.44322 8.16873 1.84569 8.16895 2.34244C8.16895 2.83938 7.76642 3.24264 7.26953 3.24283H2.35645C2.08697 3.24283 1.93859 3.24391 1.83203 3.2526C1.82457 3.25321 1.81764 3.25394 1.81152 3.25455C1.81094 3.26045 1.81016 3.26694 1.80957 3.27408C1.80087 3.38064 1.80078 3.52892 1.80078 3.7985V15.444C1.80078 15.7134 1.80088 15.8619 1.80957 15.9684C1.81015 15.9755 1.81094 15.9821 1.81152 15.988C1.81765 15.9886 1.82455 15.9903 1.83203 15.9909C1.93858 15.9996 2.08701 15.9997 2.35645 15.9997H14.002C14.2715 15.9997 14.4198 15.9996 14.5264 15.9909C14.5332 15.9903 14.5393 15.9885 14.5449 15.988C14.5455 15.9821 14.5473 15.9755 14.5479 15.9684C14.5565 15.8619 14.5576 15.7135 14.5576 15.444V10.5309C14.5578 10.034 14.9611 9.63151 15.458 9.63151C15.9548 9.63173 16.3572 10.0342 16.3574 10.5309V15.444C16.3574 15.6838 16.3579 15.9181 16.3418 16.1149C16.3249 16.3223 16.2852 16.5668 16.1602 16.8122C15.9866 17.1526 15.7096 17.4297 15.3691 17.6032C15.124 17.728 14.8801 17.7679 14.6729 17.7848C14.476 17.8009 14.2419 17.8005 14.002 17.8005H2.35645C2.11665 17.8005 1.88235 17.8009 1.68555 17.7848C1.47818 17.7679 1.23362 17.7282 0.988283 17.6032C0.647801 17.4297 0.37077 17.1527 0.197267 16.8122C0.0722641 16.5668 0.0325693 16.3223 0.0156264 16.1149C-0.000432502 15.9181 1.34977e-06 15.6838 1.34977e-06 15.444ZM13.2676 0.529943C13.9743 -0.176743 15.1203 -0.176553 15.8271 0.529943L17.2705 1.9733C17.977 2.68011 17.9772 3.82619 17.2705 4.53287L12.4551 9.3483C12.2863 9.51707 12.057 9.61196 11.8184 9.61197H9.08887C8.59181 9.61197 8.18848 9.20864 8.18848 8.71158V5.98209C8.18849 5.74342 8.28338 5.51414 8.45215 5.34537L13.2676 0.529943ZM14.5439 1.80045L9.98926 6.35514V7.81119H11.4453L16 3.25651V3.24869L14.5518 1.80045H14.5439Z" fill="#1A1E2D"/>
</svg>
