<svg width="17" height="17" viewBox="0 0 17 17" fill="none" xmlns="http://www.w3.org/2000/svg">
<path fill-rule="evenodd" clip-rule="evenodd" d="M9.03316 0.729624C10.1026 -0.346383 11.9311 -0.206066 13.1074 0.977671L15.9209 3.8097C17.0967 4.99342 17.2351 6.8318 16.1669 7.90736L8.50776 15.6163H16.3125C16.6931 15.6164 16.9999 15.9273 17 16.3077C16.9998 16.6882 16.6931 16.9981 16.3125 16.9982L6.04683 17.0001C5.45885 17.0002 4.87301 16.8115 4.38179 16.5031C4.1646 16.3666 3.96403 16.2036 3.78413 16.0226L0.970655 13.1906C-0.205134 12.0069 -0.343505 10.1684 0.724561 9.09291L9.03316 0.729624ZM1.69722 10.0695C1.19955 10.571 1.26535 11.5316 1.94429 12.215L4.75679 15.046C5.43575 15.7294 6.38843 15.7944 6.88569 15.2941L8.0771 14.0939L2.88765 8.87123L1.69722 10.0695ZM4.7773 15.2921C4.79645 15.3085 4.81735 15.3225 4.83687 15.338C4.81431 15.3201 4.79058 15.3033 4.76851 15.2843L4.7773 15.2921ZM10.8466 1.37806C10.5203 1.37807 10.2236 1.48826 10.0068 1.70619L3.85933 7.89271L9.04878 13.1163L15.1943 6.9308C15.692 6.42934 15.6269 5.46871 14.9482 4.78529L12.1357 1.95423C11.7555 1.57152 11.2773 1.37823 10.8466 1.37806ZM15.9531 4.09291C15.9367 4.07406 15.9221 4.05288 15.9052 4.03431L15.8027 3.92689C15.8558 3.98033 15.9045 4.03694 15.9531 4.09291Z" fill="#1A1E2D"/>
</svg>
