<svg width="17" height="13" viewBox="0 0 17 13" fill="none" xmlns="http://www.w3.org/2000/svg">
<path fill-rule="evenodd" clip-rule="evenodd" d="M3.03492 12.1144C3.32767 12.407 3.80258 12.4067 4.09547 12.1144C4.388 11.8215 4.38801 11.3466 4.09547 11.0538L2.04371 9.00108H11.8992C14.3841 9.00079 16.3979 6.98596 16.3982 4.50108C16.3982 2.01598 14.3842 0.000402451 11.8992 0.000106812H8.14918C7.73503 0.000181198 7.39821 0.336916 7.39821 0.751083C7.39846 1.16503 7.73519 1.50101 8.14918 1.50108H11.8992C13.5558 1.50138 14.8982 2.84441 14.8982 4.50108C14.898 6.15754 13.5556 7.49981 11.8992 7.50011H2.04371L4.09547 5.44835C4.38833 5.15549 4.38826 4.67973 4.09547 4.38683C3.8026 4.09429 3.32772 4.09416 3.03492 4.38683L0.585706 6.83604C-0.195181 7.61711 -0.19529 8.88415 0.585706 9.66515L3.03492 12.1144Z" fill="#1A1E2D"/>
</svg>
