<svg width="24" height="24" viewBox="0 0 24 24" fill="none" xmlns="http://www.w3.org/2000/svg">
<path d="M12.0012 11.7966C14.7201 11.7966 16.9243 9.60376 16.9243 6.89869C16.9243 4.19362 14.7201 2.00073 12.0012 2.00073C9.28227 2.00073 7.07812 4.19362 7.07812 6.89869C7.07812 9.60376 9.28227 11.7966 12.0012 11.7966Z" fill="#7D829B"/>
<path d="M14.5641 13.8367H9.4359C6.46154 13.8367 4 16.2858 4 19.2449C4 19.9592 4.30769 20.5715 4.92308 20.8776C5.84615 21.3878 7.89744 21.9999 12 21.9999C16.1026 21.9999 18.1538 21.3878 19.0769 20.8776C19.5897 20.5715 20 19.9592 20 19.2449C20 16.1837 17.5385 13.8367 14.5641 13.8367Z" fill="#7D829B"/>
</svg>
