<svg width="20" height="20" viewBox="0 0 20 20" fill="none" xmlns="http://www.w3.org/2000/svg">
<path d="M15.9154 9.08374H4.08268V15.8334C4.08268 15.8794 4.11967 15.9164 4.16569 15.9164H15.8324C15.8784 15.9164 15.9154 15.8794 15.9154 15.8334V9.08374ZM15.9154 5.00008C15.9154 4.95406 15.8784 4.91707 15.8324 4.91707H4.16569C4.11967 4.91707 4.08268 4.95406 4.08268 5.00008V7.58309H15.9154V5.00008ZM17.416 15.8334C17.416 16.7079 16.7068 17.4171 15.8324 17.4171H4.16569C3.29124 17.4171 2.58203 16.7079 2.58203 15.8334V5.00008C2.58203 4.12563 3.29124 3.41642 4.16569 3.41642H5.91536V2.50008C5.91536 2.08587 6.25148 1.74976 6.66569 1.74976C7.0799 1.74976 7.41602 2.08587 7.41602 2.50008V3.41642H12.582V2.50008C12.582 2.08587 12.9181 1.74976 13.3324 1.74976C13.7466 1.74976 14.0827 2.08587 14.0827 2.50008V3.41642H15.8324C16.7068 3.41642 17.416 4.12563 17.416 5.00008V15.8334Z" fill="#7D829B"/>
</svg>
